<svg width="531" height="445" viewBox="0 0 531 445" fill="none" xmlns="http://www.w3.org/2000/svg">
<path d="M117.993 29.7914C73.4321 65.8933 42.2829 139.983 52.9548 195.763C56.8515 216.131 64.9144 240.573 89.5525 247.345C109.827 252.918 137.923 248.003 153.561 235.284C173.018 219.458 188.687 170.725 190.002 148.361C190.651 137.326 186.737 95.7135 167.911 91.7954C150.985 88.2727 127.704 118.348 122.632 129.992C106.751 166.451 113.534 224.452 117.872 263.01C122.744 306.314 132.427 343.02 173.511 368.671C196.634 383.108 221.726 384.713 244.164 372.411C269.972 358.263 301.417 334.09 313.137 307.341C317.753 296.804 328.434 253.637 306.339 246.491C283.155 233.18 270.72 244.37 262.157 250.666C248.914 260.403 245.587 297.775 247.007 312.086C250.511 347.384 285.865 382.19 328.515 372.913C359.981 366.069 387.548 351.647 412.486 334.137C446.358 310.356 468.3 271.346 478.965 233.368C488.032 201.083 499.034 194.583 477.914 157.196" stroke="#01B0B3" stroke-width="42.7899" stroke-linecap="round"/>
<path d="M118.083 11.6835L130.846 40.8637L121.223 49.9939L92.753 35.7165L100.979 27.9117L106.052 30.6479L113.72 23.3733L111.253 18.163L118.083 11.6835ZM116.358 28.9512L111.484 33.5752L121.239 39.0072L116.358 28.9512Z" fill="#FFF1F1"/>
<path d="M90.062 39.1895L107.082 52.1536L101.3 59.7445L95.3769 55.233L91.384 60.4751L97.3069 64.9866L91.499 72.6115L74.4791 59.6474L80.287 52.0225L86.8907 57.0526L90.8837 51.8104L84.28 46.7803L90.062 39.1895Z" fill="#FFF1F1"/>
<path d="M77.6614 68.1556C75.9993 71.6319 76.4187 72.959 82.0699 76.282L87.5146 79.3529L76.8783 99.8177L57.8943 89.951L62.3146 81.4462L76.097 88.6094L78.9188 83.1799L77.4016 82.2949C67.9733 76.9607 66.5677 72.6133 69.212 67.5256C69.7448 66.5005 70.4112 65.4966 70.4112 65.4966L77.6614 68.1556Z" fill="#FFF1F1"/>
<path d="M52.807 103.11C54.2936 98.15 57.363 96.2557 60.929 97.3246C64.5769 98.4181 66.3852 101.774 64.4977 110.009L63.3021 115.19L64.8187 115.644C66.2942 116.086 67.3597 115.512 67.8634 113.832C68.3917 112.069 67.9488 110.865 66.8051 109.762L70.3362 102.155C73.0992 104.412 74.7559 108.125 72.4338 115.872C69.9889 124.029 66.1777 126.013 61.71 124.674L50.7661 121.394C49.5775 121.037 48.7537 121.103 47.893 121.292L50.6942 111.946C51.1943 111.918 51.7517 111.995 52.3665 112.18C52.8993 112.339 53.4609 112.552 54.1208 112.884C52.9647 111.376 51.3327 108.028 52.807 103.11ZM59.341 106.944C58.1523 106.588 57.0459 107.15 56.5053 108.953C55.9401 110.839 56.4241 112.503 56.9079 113.273L60.105 114.231L60.7681 110.678C61.1734 108.432 60.5706 107.313 59.341 106.944Z" fill="#FFF1F1"/>
<path d="M46.6206 127.788L67.9155 129.855L66.9939 139.352L59.5833 138.633L58.9468 145.192L66.3575 145.911L65.4317 155.451L44.1368 153.385L45.0625 143.845L53.325 144.646L53.9614 138.087L45.699 137.286L46.6206 127.788Z" fill="#FFF1F1"/>
<path d="M33.6841 162.494L45.2117 161.235L45.5739 164.553C47.68 165.313 50.8967 165.995 55.8728 165.839L61.364 165.67L63.8483 188.428L48.3647 190.118L48.7826 193.946L37.255 195.205L36.3217 186.655L42.0642 186.028L40.3647 170.459L34.6221 171.086L33.6841 162.494ZM46.4469 172.55L47.3245 180.59L57.1932 179.512L56.5245 173.387L55.3242 173.432C51.2035 173.538 48.3171 173.121 46.4469 172.55Z" fill="#FFF1F1"/>
<path d="M41.609 207.074L61.3499 198.825L64.9299 207.393L53.1248 212.326L53.1413 212.365L67.6355 213.868L71.5124 223.146L51.7716 231.395L48.1916 222.827L59.9966 217.894L59.9801 217.855L45.486 216.352L41.609 207.074Z" fill="#FFF1F1"/>
<path d="M71.506 242.53C69.8473 240.673 68.9758 237.933 70.4775 235.243C72.4379 231.73 76.6297 230.542 81.8605 233.462L96.2454 241.491L85.8176 260.173L77.5229 255.543L80.9432 249.415L78.0663 247.809L71.6942 252.289L62.5402 247.18L71.506 242.53ZM78.5723 240.055C77.884 241.288 78.268 242.531 79.8747 243.428L83.2374 245.305L85.4898 241.27L82.1271 239.393C80.5205 238.496 79.2605 238.822 78.5723 240.055Z" fill="#FFF1F1"/>
<path d="M114.865 240.968L107.598 237.162L111.868 232.813L105.713 233.264L107.233 225.344L112.817 227.814L110.59 222.278L118.865 221.206L118.074 227.09L122.85 223.322L126.379 230.589L120.397 231.708L125.549 234.838L119.491 240.369L116.474 235.064L114.865 240.968Z" fill="#FFF1F1"/>
<path d="M157.317 247.015L144.844 217.71L154.557 208.675L182.884 223.234L174.581 230.957L169.535 228.171L161.796 235.369L164.21 240.603L157.317 247.015ZM159.213 229.765L164.132 225.19L154.432 219.661L159.213 229.765Z" fill="#FFF1F1"/>
<path d="M190.999 210.926L170.915 203.552L174.203 194.595L181.193 197.161L183.464 190.975L176.475 188.409L179.778 179.411L199.862 186.784L196.559 195.782L188.766 192.921L186.495 199.107L194.288 201.968L190.999 210.926Z" fill="#FFF1F1"/>
<path d="M193.905 179.431C194.367 175.605 193.545 174.482 187.127 173.143L180.986 171.976L184.512 149.184L205.656 152.455L204.19 161.927L188.84 159.552L187.904 165.599L189.625 165.952C200.265 167.988 202.988 171.656 202.111 177.323C201.935 178.465 201.625 179.629 201.625 179.629L193.905 179.431Z" fill="#FFF1F1"/>
<path d="M204.2 135.85C203.963 141.022 201.446 143.605 197.727 143.435C193.922 143.26 191.353 140.444 191.183 131.998L191.084 126.682L189.503 126.609C187.964 126.538 187.07 127.354 186.99 129.107C186.905 130.945 187.628 132.006 189.005 132.797L187.428 141.035C184.199 139.516 181.69 136.317 182.06 128.238C182.45 119.732 185.665 116.881 190.324 117.094L201.737 117.618C202.977 117.674 203.76 117.411 204.549 117.018L204.102 126.764C203.624 126.914 203.065 126.974 202.424 126.944C201.868 126.919 201.271 126.849 200.551 126.687C202.038 127.869 204.435 130.72 204.2 135.85ZM196.93 133.717C198.17 133.774 199.106 132.96 199.193 131.08C199.283 129.113 198.409 127.617 197.753 126.987L194.418 126.834L194.639 130.443C194.791 132.72 195.648 133.659 196.93 133.717Z" fill="#FFF1F1"/>
<path d="M191.335 95.8117L180.263 114.119L172.098 109.181L175.951 102.81L170.312 99.4003L166.459 105.771L158.258 100.811L169.329 82.5037L177.531 87.4638L173.235 94.5671L178.874 97.9771L183.17 90.8738L191.335 95.8117Z" fill="#FFF1F1"/>
<path d="M146.689 86.5577L153.265 96.1091L150.516 98.0017C150.846 100.216 151.771 103.372 154.269 107.678L157.022 112.432L138.166 125.414L129.334 112.585L126.162 114.768L119.586 105.217L126.67 100.34L129.946 105.098L142.846 96.2172L139.57 91.459L146.689 86.5577ZM143.89 102.563L137.229 107.149L142.858 115.326L147.933 111.832L147.324 110.797C145.277 107.219 144.275 104.48 143.89 102.563Z" fill="#FFF1F1"/>
<path d="M116.939 123.601L136.596 132.049L132.929 140.58L121.175 135.528L121.158 135.567L130.158 147.027L126.188 156.265L106.531 147.817L110.198 139.286L121.952 144.338L121.969 144.299L112.969 132.839L116.939 123.601Z" fill="#FFF1F1"/>
<path d="M112.847 169.971C114.157 167.854 116.538 166.241 119.544 166.918C123.468 167.802 125.796 171.485 124.48 177.329L120.859 193.4L99.9874 188.699L102.075 179.432L108.921 180.974L109.645 177.759L103.542 172.919L105.846 162.692L112.847 169.971ZM117.225 176.046C115.847 175.735 114.763 176.456 114.359 178.251L113.513 182.008L118.021 183.024L118.867 179.267C119.272 177.472 118.602 176.356 117.225 176.046Z" fill="#FFF1F1"/>
<path d="M105.272 253.372L126.59 251.555L127.4 261.063L119.981 261.695L120.541 268.261L127.96 267.629L128.773 277.179L107.456 278.996L106.642 269.446L114.913 268.741L114.354 262.175L106.082 262.88L105.272 253.372Z" fill="#FFF1F1"/>
<path d="M115.259 282.893C116.258 286.614 117.439 287.35 123.893 286.198L130.026 284.989L135.258 307.452L114.42 312.305L112.246 302.97L127.374 299.447L125.986 293.487L124.258 293.802C113.627 295.882 109.732 293.494 108.431 287.91C108.169 286.785 108.022 285.589 108.022 285.589L115.259 282.893Z" fill="#FFF1F1"/>
<path d="M119.675 326.259C117.367 321.624 118.31 318.143 121.643 316.483C125.052 314.786 128.667 315.997 132.922 323.295L135.594 327.892L137.011 327.186C138.39 326.5 138.775 325.352 137.992 323.782C137.172 322.134 136.025 321.559 134.437 321.537L131.809 313.572C135.369 313.329 139.117 314.904 142.722 322.143C146.518 329.766 145.095 333.82 140.92 335.9L130.693 340.992C129.582 341.546 129.026 342.157 128.527 342.883L124.178 334.15C124.524 333.787 124.983 333.463 125.558 333.177C126.056 332.929 126.611 332.7 127.32 332.49C125.445 332.181 121.964 330.855 119.675 326.259ZM127.064 324.587C125.954 325.14 125.531 326.307 126.37 327.992C127.247 329.754 128.739 330.637 129.618 330.868L132.606 329.38L130.659 326.334C129.418 324.418 128.213 324.015 127.064 324.587Z" fill="#FFF1F1"/>
<path d="M133.04 349.462L148.931 335.136L155.32 342.223L149.79 347.209L154.203 352.103L159.733 347.118L166.151 354.237L150.26 368.563L143.842 361.444L150.008 355.885L145.595 350.991L139.43 356.549L133.04 349.462Z" fill="#FFF1F1"/>
<path d="M155.068 377.315L160.711 367.185L163.627 368.809C165.465 367.531 167.882 365.302 170.634 361.153L173.673 356.576L193.672 367.716L186.093 381.323L189.458 383.197L183.815 393.328L176.301 389.142L179.112 384.096L165.43 376.475L162.619 381.522L155.068 377.315ZM170.654 372.724L177.72 376.659L182.55 367.986L177.167 364.988L176.51 365.993C174.212 369.415 172.202 371.528 170.654 372.724Z" fill="#FFF1F1"/>
<path d="M199.118 393.479L197.192 372.171L206.44 371.335L207.592 384.077L207.634 384.073L213.429 370.703L223.444 369.798L225.37 391.106L216.122 391.942L214.97 379.199L214.928 379.203L209.133 392.573L199.118 393.479Z" fill="#FFF1F1"/>
<path d="M236.332 377.974C233.869 378.338 231.101 377.56 229.679 374.826C227.823 371.258 229.134 367.103 234.449 364.339L249.064 356.737L258.937 375.718L250.51 380.101L247.271 373.875L244.348 375.396L244.588 383.181L235.287 388.019L236.332 377.974ZM238.149 370.71C238.801 371.963 240.05 372.326 241.683 371.477L245.099 369.7L242.967 365.6L239.55 367.377C237.918 368.226 237.497 369.458 238.149 370.71Z" fill="#FFF1F1"/>
<path d="M304.736 345.402L288.199 318.183L296.519 307.852L326.638 318.209L319.525 327.04L314.132 325.004L307.503 333.235L310.641 338.071L304.736 345.402ZM304.145 328.059L308.359 322.827L297.967 318.743L304.145 328.059Z" fill="#FFF1F1"/>
<path d="M326.22 309.192L305.572 303.59L308.07 294.381L315.256 296.33L316.981 289.97L309.796 288.021L312.306 278.77L332.954 284.372L330.444 293.623L322.433 291.449L320.707 297.809L328.719 299.983L326.22 309.192Z" fill="#FFF1F1"/>
<path d="M326.073 272.019C324.778 268.39 323.541 267.753 317.2 269.421L311.185 271.12L304.16 249.152L324.539 242.635L327.458 251.765L312.663 256.496L314.527 262.324L316.224 261.871C326.653 258.941 330.728 261.007 332.474 266.468C332.826 267.569 333.069 268.749 333.069 268.749L326.073 272.019Z" fill="#FFF1F1"/>
<path d="M290.4 229.766C295.204 227.836 298.599 229.054 299.987 232.509C301.407 236.042 299.91 239.549 292.296 243.208L287.5 245.504L288.09 246.973C288.665 248.402 289.778 248.877 291.406 248.223C293.113 247.537 293.779 246.44 293.927 244.858L302.077 242.875C302.035 246.443 300.165 250.053 292.661 253.068C284.76 256.243 280.832 254.501 279.093 250.173L274.833 239.572C274.37 238.42 273.805 237.817 273.121 237.262L282.174 233.625C282.508 233.998 282.795 234.482 283.034 235.078C283.242 235.594 283.425 236.166 283.577 236.889C284.035 235.044 285.635 231.681 290.4 229.766ZM291.476 237.266C291.013 236.114 289.884 235.599 288.137 236.301C286.311 237.035 285.312 238.451 285.011 239.31L286.256 242.407L289.447 240.709C291.456 239.626 291.955 238.457 291.476 237.266Z" fill="#FFF1F1"/>
<path d="M257.662 245.204L274.219 258.754L268.176 266.139L262.414 261.423L258.24 266.523L264.002 271.238L257.932 278.656L241.375 265.106L247.445 257.688L253.869 262.946L258.043 257.846L251.619 252.589L257.662 245.204Z" fill="#FFF1F1"/>
<path d="M231.08 280.539L242.662 281.11L242.498 284.443C244.458 285.525 247.527 286.704 252.466 287.333L257.915 288.03L256.79 310.895L241.233 310.129L241.044 313.975L229.462 313.405L229.885 304.815L235.654 305.099L236.424 289.457L230.655 289.173L231.08 280.539ZM242.102 292.478L241.704 300.555L251.62 301.044L251.923 294.889L250.73 294.745C246.644 294.201 243.859 293.336 242.102 292.478Z" fill="#FFF1F1"/>
<path d="M238.555 322.583L259.357 317.578L261.529 326.606L249.089 329.599L249.099 329.641L263.17 333.429L265.522 343.206L244.721 348.211L242.549 339.183L254.988 336.19L254.978 336.148L240.907 332.36L238.555 322.583Z" fill="#FFF1F1"/>
<path d="M267.073 358.834C265.927 356.624 265.763 353.753 267.885 351.519C270.656 348.604 275.011 348.493 279.354 352.619L291.296 363.968L276.558 379.477L269.672 372.933L274.506 367.846L272.117 365.576L264.833 368.335L257.233 361.113L267.073 358.834ZM274.532 358.19C273.559 359.214 273.623 360.514 274.957 361.781L277.748 364.434L280.932 361.084L278.14 358.431C276.806 357.164 275.505 357.167 274.532 358.19Z" fill="#FFF1F1"/>
<path d="M307.219 385.593L300.787 380.502L305.792 377.023L299.66 376.321L302.628 368.823L307.655 372.288L306.497 366.434L314.827 366.921L312.954 372.556L318.348 369.742L320.464 377.538L314.378 377.525L318.857 381.559L311.875 385.866L309.898 380.092L307.219 385.593Z" fill="#FFF1F1"/>
<path d="M337.209 391.113L335.478 359.311L347.69 354.131L369.353 377.478L358.914 381.906L355.121 377.565L345.391 381.693L345.875 387.437L337.209 391.113ZM344.874 375.544L351.059 372.921L343.825 364.415L344.874 375.544Z" fill="#FFF1F1"/>
<path d="M372.805 375.033L361.629 356.789L369.766 351.804L373.655 358.153L379.274 354.711L375.385 348.362L383.558 343.355L394.734 361.599L386.561 366.606L382.225 359.527L376.606 362.97L380.942 370.048L372.805 375.033Z" fill="#FFF1F1"/>
<path d="M393.801 353.144C396.883 350.831 397.125 349.461 393.653 343.9L390.247 338.658L409.145 325.437L421.41 342.967L413.556 348.462L404.652 335.735L399.638 339.243L400.574 340.729C406.464 349.82 405.699 354.325 401 357.612C400.054 358.274 398.999 358.856 398.999 358.856L393.801 353.144Z" fill="#FFF1F1"/>
<path d="M431.887 335.795C427.953 339.161 424.346 339.092 421.926 336.264C419.451 333.37 419.747 329.569 425.79 323.666L429.6 319.957L428.57 318.754C427.569 317.583 426.362 317.489 425.029 318.63C423.631 319.826 423.351 321.079 423.717 322.625L416.63 327.111C415.529 323.717 416.145 319.698 422.29 314.441C428.761 308.905 433.039 309.299 436.071 312.843L443.499 321.525C444.305 322.468 445.034 322.858 445.859 323.165L438.446 329.508C438.01 329.261 437.583 328.894 437.166 328.406C436.805 327.984 436.448 327.501 436.072 326.865C436.228 328.758 435.789 332.457 431.887 335.795ZM428.468 329.034C429.275 329.977 430.509 330.104 431.94 328.88C433.435 327.6 433.929 325.939 433.939 325.029L431.769 322.493L429.288 325.122C427.732 326.792 427.633 328.059 428.468 329.034Z" fill="#FFF1F1"/>
<path d="M450.201 318.754L433.634 305.216L439.672 297.827L445.437 302.538L449.607 297.435L443.841 292.724L449.906 285.302L466.474 298.84L460.409 306.262L453.981 301.009L449.811 306.112L456.239 311.365L450.201 318.754Z" fill="#FFF1F1"/>
<path d="M475.315 296.581L465.149 291L466.756 288.075C465.466 286.244 463.222 283.841 459.056 281.115L454.461 278.104L465.477 258.036L479.131 265.531L480.984 262.155L491.149 267.735L487.01 275.275L481.946 272.495L474.41 286.224L479.474 289.004L475.315 296.581ZM470.627 281.023L474.518 273.933L465.816 269.156L462.851 274.558L463.86 275.209C467.296 277.486 469.422 279.483 470.627 281.023Z" fill="#FFF1F1"/>
<path d="M487.973 260.083L467.878 252.737L471.067 244.016L483.083 248.409L483.098 248.369L473.476 237.425L476.929 227.981L497.023 235.327L493.835 244.048L481.818 239.655L481.804 239.695L491.425 250.639L487.973 260.083Z" fill="#FFF1F1"/>
<path d="M491.933 222.307C490.589 224.402 488.182 225.976 485.188 225.251C481.279 224.303 479.01 220.584 480.421 214.762L484.301 198.751L505.094 203.79L502.857 213.022L496.037 211.369L495.261 214.571L501.285 219.51L498.816 229.698L491.933 222.307ZM487.655 216.162C489.027 216.495 490.122 215.792 490.555 214.003L491.462 210.261L486.971 209.172L486.064 212.915C485.631 214.703 486.282 215.83 487.655 216.162Z" fill="#FFF1F1"/>
<path d="M497.576 177.847L492.413 184.221L488.99 179.178L488.22 185.301L480.755 182.25L484.277 177.262L478.41 178.355L478.99 170.031L484.603 171.966L481.85 166.541L489.67 164.513L489.588 170.598L493.672 166.165L497.9 173.194L492.105 175.106L497.576 177.847Z" fill="#FFF1F1"/>
</svg>
