<svg width="497" height="399" viewBox="0 0 497 399" fill="none" xmlns="http://www.w3.org/2000/svg">
<path d="M437.296 351.523C472.041 305.896 484.76 226.537 461.183 174.871C452.574 156.005 438.953 134.168 413.412 133.422C392.395 132.809 366.261 144.237 354.08 160.297C338.924 180.281 335.24 231.338 339.259 253.377C341.241 264.252 354.898 303.754 374.116 303.103C391.394 302.518 406.892 267.785 409.062 255.27C415.858 216.088 395.533 161.343 382.189 124.909C367.201 83.99 349.101 50.6206 303.111 35.4281C277.228 26.8776 252.47 31.2597 233.582 48.5245C211.859 68.382 187.032 99.3135 181.98 128.077C179.99 139.407 179.834 183.876 202.994 185.586C228.67 193.029 238.101 179.212 244.93 171.068C255.491 158.472 249.874 121.375 245.105 107.808C233.343 74.3429 190.751 48.8986 151.511 68.011C122.561 82.1118 99.1937 102.651 79.1105 125.569C51.834 156.694 39.7533 199.79 38.3844 239.214C37.2208 272.728 28.0703 281.648 57.4431 312.971" stroke="#01B0B3" stroke-width="42.7899" stroke-linecap="round"/>
<path d="M441.497 369.139L422.187 343.811L429.374 332.661L460.415 339.791L454.271 349.322L448.694 347.865L442.968 356.748L446.597 361.226L441.497 369.139ZM439.084 351.954L442.724 346.307L431.96 343.34L439.084 351.954Z" fill="#FFF1F1"/>
<path d="M462.207 335.78L442.602 327.215L446.422 318.47L453.245 321.451L455.883 315.413L449.06 312.432L452.897 303.648L472.503 312.214L468.666 320.997L461.058 317.674L458.42 323.712L466.027 327.036L462.207 335.78Z" fill="#FFF1F1"/>
<path d="M467.396 304.701C468.188 300.93 467.466 299.74 461.189 297.85L455.172 296.156L460.66 273.754L481.44 278.845L479.159 288.154L464.073 284.459L462.617 290.402L464.3 290.902C474.724 293.852 477.119 297.743 475.755 303.312C475.48 304.435 475.07 305.568 475.07 305.568L467.396 304.701Z" fill="#FFF1F1"/>
<path d="M483.266 264.856C482.996 270.026 480.463 272.594 476.745 272.399C472.942 272.201 470.391 269.368 470.275 260.921L470.209 255.605L468.628 255.522C467.09 255.442 466.191 256.252 466.099 258.004C466.003 259.841 466.719 260.907 468.091 261.707L466.462 269.934C463.243 268.395 460.754 265.18 461.176 257.104C461.62 248.6 464.852 245.77 469.51 246.013L480.92 246.609C482.159 246.673 482.944 246.414 483.735 246.027L483.227 255.77C482.748 255.916 482.188 255.973 481.547 255.939C480.991 255.91 480.395 255.836 479.675 255.67C481.156 256.862 483.534 259.728 483.266 264.856ZM476.01 262.677C477.249 262.742 478.191 261.934 478.29 260.054C478.392 258.088 477.528 256.586 476.875 255.953L473.542 255.779L473.74 259.388C473.878 261.666 474.728 262.61 476.01 262.677Z" fill="#FFF1F1"/>
<path d="M483.433 239.413L462.255 242.448L460.901 233.002L468.271 231.946L467.336 225.423L459.966 226.479L458.607 216.991L479.785 213.956L481.145 223.444L472.928 224.622L473.862 231.145L482.08 229.967L483.433 239.413Z" fill="#FFF1F1"/>
<path d="M487.784 202.631L476.882 206.583L475.744 203.446C473.518 203.206 470.231 203.305 465.434 204.635L460.139 206.099L452.336 184.577L466.979 179.269L465.667 175.648L476.568 171.696L479.5 179.782L474.069 181.751L479.407 196.474L484.838 194.505L487.784 202.631ZM473.002 195.883L470.246 188.28L460.913 191.663L463.013 197.456L464.169 197.128C468.147 196.05 471.05 195.771 473.002 195.883Z" fill="#FFF1F1"/>
<path d="M469.528 161.195L452.302 173.884L446.795 166.408L457.096 158.82L457.071 158.785L442.633 160.758L436.669 152.661L453.895 139.972L459.402 147.449L449.101 155.037L449.126 155.071L463.564 153.099L469.528 161.195Z" fill="#FFF1F1"/>
<path d="M432.085 133.827C434.136 135.238 435.632 137.694 434.81 140.663C433.737 144.54 429.946 146.687 424.173 145.089L408.295 140.694L414.003 120.075L423.158 122.609L421.286 129.372L424.461 130.251L429.591 124.39L439.695 127.186L432.085 133.827ZM425.806 137.905C426.183 136.544 425.515 135.427 423.742 134.936L420.03 133.908L418.798 138.362L422.509 139.39C424.282 139.881 425.429 139.266 425.806 137.905Z" fill="#FFF1F1"/>
<path d="M390.329 145.612L398.291 147.589L395.173 152.826L401.045 150.93L401.444 158.984L395.434 157.907L398.908 162.759L391.122 165.759L390.498 159.855L386.75 164.646L381.6 158.423L387.147 155.918L381.401 154.097L385.977 147.289L390.164 151.729L390.329 145.612Z" fill="#FFF1F1"/>
<path d="M347.653 149.79L366.71 175.308L359.413 186.385L328.444 178.948L334.682 169.479L340.245 170.991L346.059 162.165L342.474 157.651L347.653 149.79ZM349.895 166.998L346.2 172.608L356.933 175.682L349.895 166.998Z" fill="#FFF1F1"/>
<path d="M323.475 192.829L344.734 195.237L343.66 204.718L336.262 203.88L335.52 210.428L342.918 211.266L341.839 220.79L320.58 218.382L321.659 208.858L329.908 209.792L330.649 203.244L322.401 202.31L323.475 192.829Z" fill="#FFF1F1"/>
<path d="M328.109 224.116C328.566 227.942 329.631 228.838 336.183 228.62L342.426 228.299L344.397 251.278L323.08 253.107L322.261 243.557L337.737 242.23L337.214 236.133L335.459 236.198C324.64 236.739 321.125 233.82 320.635 228.107C320.537 226.956 320.562 225.751 320.562 225.751L328.109 224.116Z" fill="#FFF1F1"/>
<path d="M328.427 268.895C327.433 263.814 329.266 260.708 332.92 259.993C336.657 259.261 339.821 261.389 341.985 269.555L343.34 274.697L344.894 274.392C346.406 274.097 347.081 273.092 346.745 271.371C346.391 269.565 345.438 268.705 343.913 268.262L343.494 259.886C346.991 260.596 350.186 263.11 351.739 271.047C353.374 279.404 350.926 282.935 346.349 283.831L335.137 286.025C333.919 286.264 333.221 286.705 332.547 287.273L330.673 277.699C331.102 277.44 331.632 277.25 332.262 277.126C332.807 277.019 333.404 276.946 334.142 276.933C332.417 276.137 329.413 273.934 328.427 268.895ZM335.995 269.245C334.777 269.483 334.06 270.496 334.421 272.343C334.799 274.275 336.003 275.522 336.79 275.979L340.065 275.338L338.997 271.884C338.309 269.708 337.255 268.998 335.995 269.245Z" fill="#FFF1F1"/>
<path d="M350.406 304.749L356.828 284.341L365.93 287.205L363.695 294.307L369.981 296.285L372.216 289.182L381.359 292.059L374.938 312.468L365.795 309.591L368.286 301.672L362 299.695L359.509 307.613L350.406 304.749Z" fill="#FFF1F1"/>
<path d="M395.974 303.168L387.324 295.445L389.546 292.955C388.702 290.882 387.055 288.035 383.609 284.442L379.808 280.476L395.054 263.398L406.673 273.771L409.238 270.898L417.888 278.621L412.16 285.037L407.851 281.19L397.421 292.873L401.73 296.72L395.974 303.168ZM394.904 286.954L400.29 280.921L392.884 274.31L388.781 278.907L389.618 279.768C392.454 282.759 394.076 285.183 394.904 286.954Z" fill="#FFF1F1"/>
<path d="M416.106 260.133L395.008 256.579L396.55 247.423L409.167 249.548L409.174 249.505L397.716 240.503L399.386 230.587L420.484 234.14L418.941 243.296L406.325 241.172L406.318 241.214L417.776 250.217L416.106 260.133Z" fill="#FFF1F1"/>
<path d="M409.102 214.112C408.33 216.479 406.399 218.61 403.318 218.664C399.297 218.734 396.162 215.708 396.057 209.718L395.769 193.246L417.161 192.872L417.327 202.37L410.311 202.493L410.368 205.787L417.444 209.044L417.627 219.526L409.102 214.112ZM403.41 209.247C404.822 209.222 405.704 208.265 405.672 206.426L405.604 202.575L400.984 202.656L401.051 206.506C401.083 208.346 401.998 209.272 403.41 209.247Z" fill="#FFF1F1"/>
<path d="M396.712 131.29L376.431 138.103L373.393 129.057L380.45 126.686L378.352 120.44L371.294 122.811L368.242 113.725L388.523 106.912L391.575 115.998L383.706 118.641L385.805 124.888L393.674 122.244L396.712 131.29Z" fill="#FFF1F1"/>
<path d="M380.019 104.973C378.167 101.594 376.845 101.159 370.848 103.806L365.175 106.433L354.773 85.8481L373.869 76.1989L378.192 84.7537L364.328 91.759L367.088 97.2203L368.692 96.5055C378.528 91.9667 382.878 93.3643 385.464 98.4819C385.985 99.5131 386.411 100.64 386.411 100.64L380.019 104.973Z" fill="#FFF1F1"/>
<path d="M365.459 63.8861C368.799 67.8425 368.707 71.4481 365.862 73.8495C362.952 76.3061 359.153 75.9851 353.291 69.9026L349.606 66.069L348.397 67.0902C347.22 68.0839 347.118 69.2899 348.249 70.6305C349.436 72.0365 350.687 72.3244 352.235 71.9693L356.675 79.0854C353.274 80.1645 349.259 79.5216 344.042 73.3419C338.55 66.8351 338.972 62.559 342.536 59.5504L351.266 52.1806C352.214 51.3801 352.609 50.6544 352.922 49.8306L359.215 57.2856C358.966 57.72 358.596 58.1442 358.106 58.5582C357.681 58.9171 357.195 59.2708 356.557 59.6419C358.451 59.4984 362.147 59.9625 365.459 63.8861ZM358.676 67.2604C359.624 66.46 359.759 65.2264 358.544 63.7877C357.275 62.2836 355.617 61.7792 354.707 61.763L352.157 63.916L354.77 66.4141C356.429 67.9815 357.695 68.0885 358.676 67.2604Z" fill="#FFF1F1"/>
<path d="M346.98 44.5075L334.934 62.1889L327.048 56.8162L331.24 50.6631L325.794 46.9528L321.602 53.1059L313.681 47.7091L325.727 30.0278L333.648 35.4246L328.974 42.2849L334.42 45.9952L339.094 39.1348L346.98 44.5075Z" fill="#FFF1F1"/>
<path d="M318.983 22.6624L315.9 33.841L312.682 32.9535C311.199 34.6305 309.378 37.3687 307.687 42.0512L305.818 47.2174L283.75 41.1302L287.891 26.1153L284.179 25.0913L287.262 13.9127L295.553 16.1997L294.017 21.7684L309.115 25.9327L310.651 20.364L318.983 22.6624ZM304.927 30.8144L297.131 28.664L294.491 38.2339L300.431 39.8723L300.832 38.7401C302.255 34.8712 303.707 32.3421 304.927 30.8144Z" fill="#FFF1F1"/>
<path d="M272.359 17.3893L279.276 37.6353L270.489 40.6373L266.353 28.5302L266.312 28.544L263.848 42.906L254.333 46.157L247.416 25.911L256.202 22.909L260.339 35.0162L260.379 35.0023L262.843 20.6403L272.359 17.3893Z" fill="#FFF1F1"/>
<path d="M239.874 41.2661C242.181 40.3285 245.055 40.4295 247.083 42.7484C249.732 45.7758 249.441 50.1231 244.932 54.0673L232.533 64.914L218.446 48.8107L225.596 42.5563L230.217 47.8382L232.696 45.6688L230.62 38.1613L238.511 31.2589L239.874 41.2661ZM239.829 48.7532C238.899 47.6904 237.599 47.6339 236.214 48.8453L233.316 51.3809L236.358 54.8592L239.257 52.3236C240.642 51.1122 240.759 49.816 239.829 48.7532Z" fill="#FFF1F1"/>
<path d="M181.129 89.1088L203.641 111.638L198.004 123.645L166.29 120.715L171.109 110.451L176.83 111.152L181.322 101.585L177.128 97.6301L181.129 89.1088ZM185.81 105.819L182.955 111.9L194.018 113.407L185.81 105.819Z" fill="#FFF1F1"/>
<path d="M168.83 129.377L190.218 129.93L189.971 139.469L182.528 139.276L182.358 145.864L189.801 146.056L189.553 155.638L168.165 155.085L168.413 145.503L176.712 145.718L176.882 139.13L168.584 138.916L168.83 129.377Z" fill="#FFF1F1"/>
<path d="M177.776 165.457C179.893 168.676 181.246 169.002 187.011 165.881L192.453 162.806L204.48 182.485L186.224 193.642L181.226 185.463L194.48 177.364L191.289 172.142L189.748 172.984C180.309 178.301 175.861 177.258 172.871 172.366C172.268 171.38 171.753 170.291 171.753 170.291L177.776 165.457Z" fill="#FFF1F1"/>
<path d="M222.439 198.061C218.229 201.074 214.642 200.694 212.476 197.667C210.259 194.57 210.883 190.809 217.414 185.451L221.53 182.085L220.609 180.797C219.712 179.544 218.518 179.346 217.092 180.367C215.595 181.438 215.208 182.662 215.439 184.234L207.991 188.09C207.187 184.614 208.148 180.664 214.725 175.957C221.65 171.002 225.878 171.764 228.593 175.557L235.241 184.848C235.964 185.857 236.655 186.309 237.452 186.687L229.518 192.364C229.105 192.081 228.711 191.679 228.338 191.157C228.014 190.704 227.7 190.192 227.381 189.526C227.373 191.426 226.615 195.073 222.439 198.061ZM219.618 191.03C220.34 192.039 221.559 192.272 223.09 191.176C224.691 190.031 225.326 188.418 225.415 187.513L223.472 184.799L220.773 187.204C219.079 188.732 218.871 189.986 219.618 191.03Z" fill="#FFF1F1"/>
<path d="M250.59 175.31L231.296 166.066L235.418 157.461L242.133 160.678L244.98 154.735L238.266 151.518L242.407 142.874L261.702 152.118L257.56 160.762L250.074 157.175L247.227 163.118L254.713 166.705L250.59 175.31Z" fill="#FFF1F1"/>
<path d="M268.05 134.685L256.662 136.874L256.032 133.597C253.871 133.01 250.61 132.591 245.663 133.149L240.203 133.763L235.883 111.282L251.178 108.342L250.451 104.56L261.839 102.371L263.462 110.818L257.79 111.908L260.745 127.288L266.418 126.197L268.05 134.685ZM254.514 125.697L252.987 117.755L243.238 119.628L244.401 125.679L245.594 125.537C249.693 125.098 252.603 125.279 254.514 125.697Z" fill="#FFF1F1"/>
<path d="M250.831 95.6073L231.806 105.396L227.558 97.1388L238.935 91.2855L238.916 91.2474L224.348 90.8987L219.747 81.9572L238.772 72.169L243.02 80.4257L231.643 86.279L231.663 86.3171L246.231 86.6658L250.831 95.6073Z" fill="#FFF1F1"/>
<path d="M214.54 67.1401C216.177 69.0165 217.016 71.7671 215.483 74.4395C213.481 77.9284 209.276 79.0676 204.08 76.0866L189.79 67.8887L200.437 49.3308L208.676 54.0579L205.184 60.1449L208.042 61.7844L214.467 57.3796L223.56 62.5964L214.54 67.1401ZM207.445 69.5323C208.148 68.3075 207.779 67.0596 206.183 66.144L202.842 64.2276L200.543 68.2361L203.883 70.1525C205.479 71.0681 206.743 70.7571 207.445 69.5323Z" fill="#FFF1F1"/>
<path d="M169.199 50.6489L176.654 54.0723L172.616 58.6375L178.739 57.8672L177.631 65.8556L171.927 63.6785L174.438 69.0921L166.23 70.5912L166.715 64.6739L162.141 68.6846L158.239 61.6111L164.155 60.1827L158.848 57.3241L164.611 51.4868L167.899 56.6281L169.199 50.6489Z" fill="#FFF1F1"/>
<path d="M138.755 52.388L147.967 82.8759L137.33 90.8004L110.754 73.2473L119.848 66.4731L124.561 69.7918L133.037 63.4778L131.206 58.0118L138.755 52.388ZM134.995 69.3292L129.607 73.3426L138.649 79.8931L134.995 69.3292Z" fill="#FFF1F1"/>
<path d="M107.979 76.44L123.157 91.5187L116.432 98.2882L111.15 93.0408L106.506 97.7157L111.788 102.963L105.033 109.763L89.8547 94.6842L96.6099 87.8843L102.499 93.7349L107.143 89.06L101.254 83.2095L107.979 76.44Z" fill="#FFF1F1"/>
<path d="M92.763 102.678C90.3164 105.655 90.4056 107.044 95.0961 111.624L99.6465 115.91L84.4169 133.23L68.3497 119.103L74.6789 111.905L86.3437 122.161L90.3842 117.566L89.1232 116.343C81.2475 108.906 80.9244 104.348 84.7106 100.042C85.4735 99.1744 86.361 98.3594 86.361 98.3594L92.763 102.678Z" fill="#FFF1F1"/>
<path d="M59.8693 128.552C62.8946 124.35 66.4144 123.563 69.4355 125.738C72.526 127.963 73.1386 131.726 68.6644 138.892L65.8419 143.398L67.1267 144.323C68.3768 145.223 69.5714 145.029 70.5965 143.605C71.6716 142.112 71.6466 140.828 70.9258 139.413L76.7486 133.376C78.6224 136.413 78.9751 140.463 74.2496 147.026C69.2741 153.936 65.0237 154.567 61.2386 151.842L51.967 145.166C50.9599 144.441 50.1599 144.234 49.2848 144.131L54.9854 136.214C55.4674 136.35 55.9688 136.605 56.4897 136.98C56.9411 137.305 57.4023 137.69 57.9176 138.219C57.3176 136.416 56.8689 132.719 59.8693 128.552ZM64.7919 134.311C63.7849 133.586 62.5556 133.755 61.4555 135.283C60.3053 136.88 60.2192 138.611 60.4248 139.497L63.1333 141.448L64.921 138.306C66.0378 136.315 65.8337 135.061 64.7919 134.311Z" fill="#FFF1F1"/>
<path d="M46.1112 149.445L65.4129 158.675L61.2965 167.284L54.5794 164.072L51.7367 170.017L58.4537 173.229L54.3188 181.876L35.017 172.646L39.152 163.999L46.641 167.58L49.4838 161.635L41.9947 158.054L46.1112 149.445Z" fill="#FFF1F1"/>
<path d="M26.9624 176.935L38.1598 179.949L37.2922 183.172C38.9784 184.645 41.7277 186.449 46.4206 188.111L51.5982 189.948L45.6473 212.054L30.6072 208.005L29.6061 211.724L18.4087 208.709L20.6444 200.404L26.2225 201.906L30.2936 186.783L24.7155 185.281L26.9624 176.935ZM35.2011 190.94L33.0988 198.749L42.6848 201.33L44.2865 195.38L43.1518 194.986C39.2742 193.588 36.7363 192.151 35.2011 190.94Z" fill="#FFF1F1"/>
<path d="M23.3071 215.391L44.5694 217.77L43.537 226.998L30.8221 225.575L30.8174 225.618L42.7567 233.972L41.6386 243.965L20.3763 241.586L21.4088 232.358L34.1236 233.781L34.1284 233.738L22.1891 225.384L23.3071 215.391Z" fill="#FFF1F1"/>
<path d="M28.4039 253.031C29.2139 250.677 31.1795 248.578 34.2604 248.574C38.2826 248.568 41.3675 251.645 41.3753 257.636L41.3968 274.11L20.0019 274.138L19.9895 264.638L27.007 264.629L27.0027 261.335L19.9808 257.963L19.9671 247.48L28.4039 253.031ZM34.0159 257.988C32.6038 257.99 31.7065 258.932 31.7089 260.772L31.7139 264.623L36.3352 264.617L36.3302 260.766C36.3278 258.926 35.428 257.986 34.0159 257.988Z" fill="#FFF1F1"/>
<path d="M33.4495 297.564L36.9561 290.149L41.4759 294.238L40.7742 288.106L48.7497 289.303L46.5089 294.983L51.9503 292.532L53.3574 300.757L47.4458 300.205L51.4051 304.824L44.2883 308.647L42.9263 302.715L40.0084 307.99L34.2361 302.162L39.4138 298.932L33.4495 297.564Z" fill="#FFF1F1"/>
</svg>
