<svg width="384" height="417" viewBox="0 0 384 417" fill="none" xmlns="http://www.w3.org/2000/svg">
<path d="M352.774 147.4C337.291 109.736 293.236 73.4595 253.119 69.3594C238.471 67.8624 220.203 68.3696 210.578 83.75C202.659 96.4062 200.281 116.519 205.748 129.747C212.551 146.205 242.51 166.788 257.454 172.237C264.829 174.925 293.932 180.737 300.431 168.729C306.274 157.933 290.557 135.972 283.669 130.15C262.103 111.923 221.267 104.725 194.156 99.8239C163.707 94.319 136.766 93.4309 110.951 116.154C96.4217 128.943 90.2201 145.684 94.0183 163.453C98.387 183.889 108.427 210.202 124.236 223.622C130.463 228.908 157.651 244.964 167.012 231.389C180.788 218.33 175.708 207.592 173.169 200.485C169.243 189.494 144.498 179.62 134.475 177.672C109.75 172.867 78.8742 189.828 76.4991 220.729C74.7469 243.527 78.9435 265.215 85.7756 285.745C95.0549 313.629 117.122 336.499 140.784 351.488C160.899 364.23 163.08 373.038 192.813 366.285" stroke="#FECD1F" stroke-width="30.3835" stroke-linecap="round"/>
<path d="M364.456 151.463L342.008 154.202L337.757 145.797L353.266 129.339L356.9 136.523L354.006 139.417L357.393 146.114L361.439 145.498L364.456 151.463ZM353.061 146.773L350.908 142.516L345.227 148.046L353.061 146.773Z" fill="#5249EB"/>
<path d="M351.51 126.895L339.226 135.833L335.24 130.354L339.515 127.244L336.762 123.46L332.487 126.57L328.483 121.067L340.768 112.129L344.771 117.633L340.005 121.1L342.758 124.884L347.524 121.416L351.51 126.895Z" fill="#5249EB"/>
<path d="M334.41 112.651C332.384 110.812 331.396 110.827 327.984 113.995L324.787 117.073L313.032 105.67L323.61 94.7659L328.495 99.5047L320.815 107.421L323.934 110.446L324.845 109.595C330.393 104.267 333.637 104.197 336.559 107.031C337.148 107.603 337.695 108.26 337.695 108.26L334.41 112.651Z" fill="#5249EB"/>
<path d="M315.796 88.7072C318.867 90.7284 319.53 93.202 318.077 95.41C316.591 97.6688 313.939 98.2153 308.722 95.2545L305.442 93.3862L304.824 94.3252C304.222 95.2389 304.396 96.0806 305.436 96.7655C306.528 97.4837 307.437 97.4278 308.42 96.8743L312.876 100.826C310.778 102.245 307.915 102.616 303.118 99.4589C298.067 96.1347 297.493 93.1381 299.314 90.3717L303.774 83.5954C304.259 82.8594 304.382 82.2856 304.429 81.6617L310.215 85.4704C310.133 85.8164 309.967 86.1797 309.716 86.5604C309.499 86.8903 309.24 87.2289 308.879 87.6103C310.141 87.1309 312.751 86.7026 315.796 88.7072ZM311.857 92.3708C312.341 91.6348 312.185 90.7678 311.068 90.0328C309.9 89.2644 308.67 89.2548 308.047 89.427L306.745 91.4066L309.027 92.5813C310.472 93.3144 311.356 93.1322 311.857 92.3708Z" fill="#5249EB"/>
<path d="M300.386 79.5349L294.644 93.5996L288.371 91.0386L290.37 86.144L286.038 84.3754L284.039 89.2699L277.738 86.6974L283.481 72.6327L289.782 75.2052L287.554 80.6623L291.886 82.431L294.114 76.9738L300.386 79.5349Z" fill="#5249EB"/>
<path d="M279.549 63.7073L278.057 71.805L275.727 71.3757C274.781 72.6535 273.662 74.7027 272.754 78.1194L271.751 81.8891L255.765 78.9445L257.768 68.0679L255.079 67.5725L256.57 59.4748L262.576 60.5811L261.833 64.615L272.77 66.6294L273.513 62.5955L279.549 63.7073ZM270.109 70.341L264.461 69.3008L263.185 76.2331L267.487 77.0257L267.701 76.2C268.469 73.3755 269.34 71.4969 270.109 70.341Z" fill="#5249EB"/>
<path d="M247.808 60.0272L249.399 75.1355L242.842 75.8259L241.891 66.7912L241.861 66.7944L237.887 76.3478L230.786 77.0956L229.195 61.9873L235.752 61.2968L236.703 70.3316L236.734 70.3284L240.708 60.775L247.808 60.0272Z" fill="#5249EB"/>
<path d="M218.011 72.9519C219.612 72.2017 221.654 72.1671 223.178 73.7364C225.168 75.7852 225.123 78.8786 222.071 81.8422L213.68 89.9921L203.096 79.0943L207.934 74.3948L211.406 77.9693L213.084 76.3393L211.335 71.0925L216.674 65.9062L218.011 72.9519ZM218.256 78.2627C217.557 77.5434 216.633 77.5514 215.696 78.4617L213.735 80.3668L216.021 82.7208L217.982 80.8156C218.92 79.9054 218.955 78.9819 218.256 78.2627Z" fill="#5249EB"/>
<path d="M210.445 102.379L214.513 98.211L216.602 102.001L217.549 97.7223L222.627 100.369L219.809 103.665L224.029 103.277L223.072 109.124L219.231 107.388L220.821 111.404L215.16 112.325L215.617 108.028L212.438 110.895L209.91 105.647L214.133 104.676L210.445 102.379Z" fill="#5249EB"/>
<path d="M197.624 129.607L220.099 127.09L224.266 135.537L208.594 151.841L205.031 144.62L207.954 141.755L204.634 135.025L200.582 135.601L197.624 129.607ZM208.972 134.409L211.082 138.687L216.819 133.214L208.972 134.409Z" fill="#5249EB"/>
<path d="M215.108 159.62L224.214 147.46L229.638 151.521L226.469 155.753L230.214 158.557L233.383 154.325L238.831 158.405L229.725 170.565L224.277 166.486L227.81 161.767L224.065 158.963L220.532 163.681L215.108 159.62Z" fill="#5249EB"/>
<path d="M235.823 167.94C238.331 169.033 239.263 168.702 241.481 164.61L243.525 160.67L258.311 167.71L251.78 181.426L245.635 178.501L250.377 168.542L246.454 166.675L245.863 167.773C242.312 174.596 239.262 175.701 235.586 173.951C234.845 173.598 234.116 173.15 234.116 173.15L235.823 167.94Z" fill="#5249EB"/>
<path d="M263.302 183.789C259.832 182.574 258.588 180.336 259.461 177.841C260.354 175.289 262.794 174.114 268.573 175.719L272.21 176.734L272.581 175.673C272.943 174.641 272.57 173.867 271.394 173.455C270.161 173.023 269.292 173.299 268.473 174.074L263.191 171.324C264.881 169.437 267.568 168.382 272.989 170.279C278.695 172.277 279.98 175.044 278.886 178.17L276.206 185.827C275.915 186.658 275.935 187.245 276.041 187.861L269.502 185.573C269.498 185.217 269.571 184.824 269.722 184.394C269.852 184.021 270.022 183.63 270.278 183.172C269.171 183.944 266.744 184.993 263.302 183.789ZM266.233 179.278C265.942 180.11 266.305 180.913 267.567 181.354C268.886 181.816 270.082 181.526 270.644 181.208L271.427 178.971L268.928 178.386C267.347 178.026 266.534 178.418 266.233 179.278Z" fill="#5249EB"/>
<path d="M292.465 183.333L282.266 172.074L287.288 167.525L290.837 171.443L294.305 168.302L290.756 164.384L295.8 159.815L305.999 171.074L300.955 175.643L296.998 171.275L293.53 174.416L297.487 178.785L292.465 183.333Z" fill="#5249EB"/>
<path d="M307.658 155.574L299.821 158.102L299.094 155.846C297.52 155.619 295.186 155.606 291.747 156.428L287.953 157.333L282.962 141.863L293.488 138.467L292.648 135.865L300.485 133.337L302.36 139.149L298.456 140.409L301.87 150.992L305.774 149.733L307.658 155.574ZM297.34 150.41L295.577 144.945L288.869 147.109L290.212 151.273L291.04 151.069C293.891 150.405 295.958 150.281 297.34 150.41Z" fill="#5249EB"/>
<path d="M288.732 128.111L278.982 139.762L273.926 135.53L279.756 128.563L279.733 128.544L270.104 132.332L264.629 127.75L274.378 116.1L279.435 120.331L273.604 127.298L273.628 127.317L283.256 123.529L288.732 128.111Z" fill="#5249EB"/>
<path d="M258.127 115.956C259.301 117.278 259.913 119.227 258.84 121.133C257.44 123.622 254.461 124.456 250.753 122.371L240.558 116.635L248.007 103.395L253.886 106.702L251.443 111.045L253.482 112.192L258.017 109.026L264.505 112.676L258.127 115.956ZM253.104 117.697C253.596 116.823 253.326 115.939 252.187 115.299L249.804 113.958L248.195 116.818L250.578 118.158C251.717 118.799 252.612 118.571 253.104 117.697Z" fill="#5249EB"/>
<path d="M203.136 93.8937L200.031 108.765L193.398 107.38L194.479 102.205L189.899 101.248L188.818 106.423L182.156 105.032L185.261 90.161L191.923 91.5523L190.718 97.3222L195.299 98.2787L196.504 92.5087L203.136 93.8937Z" fill="#5249EB"/>
<path d="M181.12 94.6884C178.385 94.6098 177.644 95.2639 177.113 99.8886L176.687 104.307L160.342 103.291L161.284 88.1284L168.077 88.5505L167.393 99.5585L171.729 99.828L171.867 98.5884C172.617 90.9331 175.034 88.7698 179.098 89.0223C179.917 89.0732 180.76 89.2169 180.76 89.2169L181.12 94.6884Z" fill="#5249EB"/>
<path d="M150.882 88.8526C154.505 88.2264 156.681 89.577 157.131 92.1818C157.592 94.8464 156.031 97.0586 150.201 98.4672L146.529 99.3484L146.721 100.456C146.907 101.534 147.609 102.029 148.837 101.817C150.124 101.595 150.75 100.932 151.088 99.8556L157.041 99.69C156.482 102.161 154.647 104.39 148.988 105.368C143.03 106.398 140.562 104.604 139.998 101.341L138.616 93.3468C138.466 92.4786 138.163 91.9759 137.771 91.4887L144.597 90.3089C144.774 90.6175 144.901 90.9964 144.978 91.4455C145.046 91.8347 145.088 92.259 145.086 92.7835C145.679 91.5712 147.289 89.4735 150.882 88.8526ZM150.515 94.2195C150.365 93.3513 149.657 92.826 148.34 93.0537C146.963 93.2918 146.059 94.1264 145.722 94.6779L146.126 97.0131L148.594 96.309C150.15 95.8551 150.67 95.1177 150.515 94.2195Z" fill="#5249EB"/>
<path d="M132.556 93.1622L139.065 106.889L132.943 109.792L130.678 105.015L126.45 107.02L128.715 111.797L122.565 114.713L116.056 100.986L122.206 98.0699L124.731 103.396L128.959 101.391L126.434 96.0652L132.556 93.1622Z" fill="#5249EB"/>
<path d="M109.309 102.345L115.051 108.246L113.353 109.899C113.848 111.41 114.872 113.508 117.134 116.225L119.628 119.224L107.977 130.56L100.265 122.633L98.305 124.54L92.563 118.638L96.9401 114.379L99.8005 117.319L107.771 109.564L104.91 106.625L109.309 102.345ZM109.259 113.882L105.143 117.887L110.058 122.939L113.194 119.888L112.645 119.236C110.785 116.976 109.757 115.178 109.259 113.882Z" fill="#5249EB"/>
<path d="M89.5393 128.659L104.426 131.688L103.111 138.149L94.2091 136.337L94.2031 136.367L102.118 143.032L100.694 150.028L85.8074 146.999L87.1221 140.538L96.0243 142.35L96.0304 142.32L88.1156 135.656L89.5393 128.659Z" fill="#5249EB"/>
<path d="M92.51 156.863C92.7635 155.113 93.857 153.389 96.0058 152.978C98.8111 152.442 101.37 154.181 102.168 158.359L104.363 169.849L89.4412 172.699L88.1756 166.074L93.07 165.139L92.6311 162.841L87.2863 161.418L85.8897 154.106L92.51 156.863ZM97.0808 159.578C96.096 159.766 95.5947 160.542 95.8398 161.826L96.3529 164.512L99.576 163.896L99.063 161.21C98.8178 159.927 98.0657 159.39 97.0808 159.578Z" fill="#5249EB"/>
<path d="M100.626 209.764L122.51 204.058L127.843 211.821L114.664 230.2L110.105 223.563L112.588 220.309L108.339 214.123L104.411 215.274L100.626 209.764ZM112.544 212.894L115.245 216.826L120.139 210.588L112.544 212.894Z" fill="#5249EB"/>
<path d="M120.677 231.557L128.693 218.652L134.449 222.227L131.659 226.718L135.634 229.187L138.424 224.696L144.205 228.287L136.189 241.192L130.408 237.601L133.518 232.594L129.543 230.125L126.433 235.132L120.677 231.557Z" fill="#5249EB"/>
<path d="M145.615 238.922C148.347 238.78 149.033 238.068 149.189 233.416L149.259 228.978L165.632 228.673L165.915 243.863L159.11 243.989L158.905 232.962L154.561 233.043L154.524 234.289C154.393 241.98 152.158 244.331 148.087 244.407C147.267 244.422 146.414 244.347 146.414 244.347L145.615 238.922Z" fill="#5249EB"/>
<path d="M180.945 224.016C181.28 227.677 179.76 229.738 177.127 229.979C174.434 230.225 172.354 228.493 171.416 222.569L170.83 218.839L169.711 218.941C168.622 219.041 168.072 219.701 168.185 220.942C168.304 222.243 168.915 222.919 169.961 223.342L169.65 229.29C167.232 228.535 165.157 226.528 164.634 220.809C164.083 214.788 166.068 212.47 169.366 212.169L177.445 211.43C178.322 211.35 178.848 211.088 179.365 210.736L179.995 217.635C179.674 217.786 179.286 217.883 178.832 217.924C178.439 217.96 178.012 217.969 177.49 217.925C178.651 218.612 180.613 220.385 180.945 224.016ZM175.625 223.221C176.502 223.141 177.082 222.478 176.96 221.146C176.833 219.755 176.073 218.787 175.551 218.407L173.19 218.623L173.695 221.14C174.023 222.727 174.717 223.304 175.625 223.221Z" fill="#5249EB"/>
<path d="M177.226 198.927L164.637 207.431L160.844 201.816L165.225 198.857L162.606 194.979L158.225 197.939L154.416 192.299L167.005 183.795L170.814 189.435L165.93 192.735L168.549 196.612L173.433 193.313L177.226 198.927Z" fill="#5249EB"/>
<path d="M158.946 173.915L156.199 181.677L153.965 180.887C152.83 182 151.403 183.848 149.969 187.079L148.386 190.644L133.062 185.222L136.75 174.796L134.173 173.884L136.919 166.122L142.676 168.159L141.308 172.025L151.792 175.735L153.16 171.868L158.946 173.915ZM148.58 178.982L143.167 177.066L140.815 183.711L144.94 185.171L145.281 184.389C146.483 181.72 147.639 180.002 148.58 178.982Z" fill="#5249EB"/>
<path d="M129.017 170.476L128.185 185.645L121.602 185.285L122.099 176.213L122.069 176.212L116.627 185.012L109.497 184.621L110.329 169.452L116.912 169.813L116.415 178.884L116.445 178.886L121.888 170.086L129.017 170.476Z" fill="#5249EB"/>
<path d="M98.9325 182.401C100.67 182.072 102.656 182.545 103.743 184.444C105.162 186.922 104.351 189.908 100.659 192.021L90.5076 197.834L82.9592 184.65L88.8128 181.298L91.2887 185.623L93.319 184.46L92.9262 178.943L99.3862 175.245L98.9325 182.401ZM97.8515 187.607C97.3533 186.737 96.4562 186.515 95.3224 187.164L92.9493 188.523L94.5798 191.371L96.9528 190.012C98.0866 189.363 98.3497 188.477 97.8515 187.607Z" fill="#5249EB"/>
<path d="M72.861 203.897L77.634 200.559L78.9816 204.672L80.7074 200.644L85.2041 204.19L81.8228 206.903L86.0409 207.308L84.0131 212.875L80.5619 210.453L81.3773 214.696L75.6432 214.547L76.8914 210.41L73.2353 212.635L71.7276 207.009L76.0575 206.84L72.861 203.897Z" fill="#5249EB"/>
<path d="M63.0366 222.861L85.022 228.16L86.0589 237.521L65.7659 247.503L64.8796 239.5L68.6045 237.804L67.7784 230.345L63.7725 229.504L63.0366 222.861ZM72.0661 231.245L72.5913 235.986L79.8499 232.798L72.0661 231.245Z" fill="#5249EB"/>
<path d="M66.7076 250.248L81.3937 246.361L83.1273 252.911L78.0165 254.263L79.2137 258.787L84.3244 257.434L86.0658 264.013L71.3797 267.9L69.6383 261.321L75.3366 259.813L74.1394 255.29L68.4412 256.798L66.7076 250.248Z" fill="#5249EB"/>
<path d="M77.3091 268.947C78.2547 271.515 79.1377 271.958 83.6274 270.729L87.8865 269.479L93.0317 285.027L78.6092 289.8L76.4709 283.338L86.9417 279.873L85.5766 275.748L84.3749 276.082C76.9912 278.237 74.083 276.8 72.8039 272.934C72.5461 272.156 72.3654 271.319 72.3654 271.319L77.3091 268.947Z" fill="#5249EB"/>
<path d="M81.3302 298.325C79.8418 294.963 80.6227 292.524 83.0397 291.454C85.5124 290.359 88.0376 291.334 90.822 296.647L92.5695 299.994L93.5974 299.539C94.5976 299.096 94.9072 298.294 94.4029 297.155C93.874 295.961 93.0787 295.515 91.9528 295.449L90.3443 289.715C92.8772 289.657 95.4853 290.894 97.8102 296.145C100.258 301.674 99.1187 304.504 96.0904 305.845L88.6726 309.129C87.8669 309.486 87.4529 309.902 87.0759 310.401L84.2713 304.067C84.5277 303.82 84.8643 303.605 85.281 303.42C85.6422 303.261 86.0434 303.116 86.5526 302.99C85.2327 302.711 82.8063 301.658 81.3302 298.325ZM86.6254 297.376C85.8197 297.732 85.4823 298.546 86.0235 299.769C86.5893 301.047 87.6188 301.721 88.2355 301.913L90.4025 300.954L89.1192 298.731C88.3006 297.332 87.4588 297.007 86.6254 297.376Z" fill="#5249EB"/>
<path d="M89.1331 314.145L101.716 305.633L105.512 311.245L101.134 314.207L103.756 318.082L108.134 315.12L111.948 320.757L99.3653 329.27L95.5516 323.633L100.434 320.33L97.8118 316.454L92.9297 319.757L89.1331 314.145Z" fill="#5249EB"/>
<path d="M99.0217 335.646L104.888 329.868L106.551 331.556C108.058 331.052 110.15 330.015 112.853 327.736L115.837 325.223L127.244 336.804L119.365 344.565L121.284 346.513L115.418 352.291L111.133 347.94L114.055 345.062L106.251 337.14L103.329 340.018L99.0217 335.646ZM110.559 335.625L114.589 339.716L119.611 334.769L116.54 331.653L115.892 332.206C113.643 334.08 111.852 335.119 110.559 335.625Z" fill="#5249EB"/>
<path d="M121.192 351.62L130.281 339.447L135.564 343.392L130.128 350.671L130.153 350.689L139.556 346.373L145.278 350.645L136.188 362.817L130.905 358.873L136.341 351.593L136.316 351.575L126.913 355.892L121.192 351.62Z" fill="#5249EB"/>
<path d="M146.016 361.964C144.864 360.623 144.284 358.665 145.387 356.776C146.827 354.31 149.82 353.524 153.493 355.67L163.594 361.57L155.931 374.688L150.107 371.285L152.62 366.983L150.6 365.803L146.014 368.895L139.586 365.14L146.016 361.964ZM151.067 360.305C150.561 361.171 150.817 362.059 151.945 362.718L154.306 364.097L155.961 361.263L153.6 359.884C152.472 359.225 151.573 359.439 151.067 360.305Z" fill="#5249EB"/>
<path d="M175.006 374.807L171.722 369.997L175.849 368.696L171.841 366.925L175.437 362.468L178.112 365.88L178.564 361.667L184.108 363.757L181.648 367.18L185.899 366.413L185.687 372.145L181.564 370.85L183.748 374.531L178.105 375.976L177.985 371.644L175.006 374.807Z" fill="#5249EB"/>
</svg>
