<svg width="498" height="436" viewBox="0 0 498 436" fill="none" xmlns="http://www.w3.org/2000/svg">
<path d="M413.883 406.614C457.557 369.443 486.901 294.62 474.88 239.114C470.491 218.848 461.838 194.608 437.043 188.435C416.64 183.355 388.671 188.95 373.346 202.044C354.278 218.337 339.794 267.435 339.022 289.824C338.641 300.872 343.562 342.378 362.478 345.838C379.484 348.95 402.029 318.319 406.817 306.555C421.81 269.722 413.623 211.903 408.352 173.461C402.432 130.288 391.862 93.827 350.168 69.1797C326.702 55.3079 301.579 54.3113 279.445 67.1529C253.988 81.9229 223.138 106.851 212.07 133.876C207.71 144.522 198.079 187.935 220.341 194.543C243.84 207.288 256 195.8 264.409 189.298C277.412 179.244 279.832 141.802 278.065 127.53C273.707 92.3267 237.519 58.3877 195.107 68.6956C163.816 76.3006 136.607 91.3866 112.1 109.496C78.8154 134.091 57.8251 173.621 48.0835 211.847C39.8021 244.342 28.9604 251.107 50.9806 287.971" stroke="#01B0B3" stroke-width="42.7899" stroke-linecap="round"/>
<path d="M414.232 424.721L400.765 395.858L410.164 386.498L438.972 400.081L430.937 408.083L425.799 405.47L418.31 412.929L420.902 418.078L414.232 424.721ZM415.538 407.416L420.298 402.675L410.414 397.481L415.538 407.416Z" fill="#FFF1F1"/>
<path d="M441.578 396.544L424.248 383.996L429.845 376.267L435.875 380.634L439.74 375.297L433.71 370.93L439.331 363.167L456.66 375.714L451.039 383.478L444.315 378.609L440.45 383.947L447.174 388.815L441.578 396.544Z" fill="#FFF1F1"/>
<path d="M453.273 367.286C454.85 363.771 454.399 362.454 448.668 359.269L443.151 356.331L453.288 335.614L472.506 345.018L468.293 353.628L454.341 346.801L451.651 352.297L453.19 353.145C462.745 358.249 464.255 362.561 461.735 367.711C461.227 368.749 460.585 369.769 460.585 369.769L453.273 367.286Z" fill="#FFF1F1"/>
<path d="M477.273 331.74C475.907 336.734 472.884 338.702 469.294 337.72C465.62 336.715 463.731 333.404 465.419 325.126L466.488 319.918L464.961 319.5C463.475 319.094 462.424 319.693 461.961 321.386C461.476 323.16 461.948 324.354 463.118 325.428L459.772 333.119C456.955 330.929 455.209 327.258 457.343 319.457C459.589 311.243 463.351 309.167 467.85 310.398L478.87 313.412C480.067 313.739 480.889 313.653 481.745 313.444L479.171 322.854C478.672 322.895 478.113 322.831 477.494 322.662C476.957 322.515 476.39 322.316 475.723 322C476.915 323.479 478.628 326.787 477.273 331.74ZM470.648 328.065C471.845 328.392 472.937 327.804 473.434 325.988C473.953 324.089 473.429 322.437 472.927 321.679L469.708 320.798L469.131 324.367C468.78 326.622 469.41 327.726 470.648 328.065Z" fill="#FFF1F1"/>
<path d="M482.86 306.916L461.521 305.367L462.213 295.85L469.639 296.389L470.116 289.817L462.69 289.277L463.384 279.717L484.723 281.267L484.029 290.827L475.749 290.226L475.272 296.798L483.551 297.399L482.86 306.916Z" fill="#FFF1F1"/>
<path d="M494.951 271.907L483.458 273.445L483.015 270.136C480.891 269.428 477.659 268.824 472.688 269.1L467.203 269.402L464.168 246.712L479.606 244.647L479.095 240.83L490.589 239.292L491.729 247.817L486.003 248.583L488.08 264.106L493.805 263.34L494.951 271.907ZM481.949 262.163L480.876 254.147L471.037 255.463L471.854 261.571L473.053 261.497C477.169 261.291 480.065 261.638 481.949 262.163Z" fill="#FFF1F1"/>
<path d="M485.949 227.532L466.414 236.257L462.627 227.779L474.309 222.562L474.291 222.523L459.765 221.372L455.664 212.19L475.2 203.465L478.986 211.943L467.304 217.161L467.322 217.2L481.848 218.351L485.949 227.532Z" fill="#FFF1F1"/>
<path d="M455.201 192.811C456.904 194.627 457.841 197.346 456.406 200.072C454.531 203.631 450.369 204.92 445.069 202.128L430.494 194.45L440.466 175.521L448.87 179.948L445.599 186.157L448.514 187.693L454.776 183.06L464.051 187.946L455.201 192.811ZM448.196 195.457C448.855 194.208 448.441 192.974 446.813 192.116L443.405 190.321L441.251 194.41L444.659 196.205C446.287 197.063 447.538 196.706 448.196 195.457Z" fill="#FFF1F1"/>
<path d="M411.892 195.424L419.249 199.052L415.086 203.504L421.228 202.903L419.9 210.858L414.258 208.524L416.619 214.005L408.372 215.276L409.021 209.375L404.337 213.257L400.633 206.079L406.586 204.814L401.36 201.81L407.283 196.134L410.427 201.365L411.892 195.424Z" fill="#FFF1F1"/>
<path d="M369.306 190.407L382.486 219.402L372.995 228.669L344.323 214.801L352.437 206.879L357.549 209.542L365.111 202.159L362.57 196.984L369.306 190.407ZM367.829 207.698L363.022 212.391L372.854 217.683L367.829 207.698Z" fill="#FFF1F1"/>
<path d="M336.509 227.303L356.766 234.187L353.696 243.222L346.646 240.826L344.526 247.065L351.575 249.461L348.491 258.536L328.234 251.652L331.318 242.576L339.178 245.248L341.298 239.009L333.439 236.337L336.509 227.303Z" fill="#FFF1F1"/>
<path d="M334.367 258.859C333.998 262.695 334.847 263.798 341.295 264.981L347.463 265.998L344.49 288.87L323.274 286.112L324.509 276.607L339.912 278.609L340.701 272.541L338.972 272.23C328.286 270.453 325.475 266.851 326.214 261.165C326.363 260.019 326.645 258.848 326.645 258.848L334.367 258.859Z" fill="#FFF1F1"/>
<path d="M325.132 302.676C325.243 297.5 327.697 294.857 331.419 294.937C335.226 295.019 337.863 297.772 338.238 306.212L338.466 311.524L340.048 311.558C341.589 311.591 342.463 310.754 342.5 309C342.54 307.161 341.792 306.117 340.396 305.36L341.773 297.086C345.038 298.526 347.623 301.664 347.449 309.749C347.265 318.262 344.121 321.19 339.458 321.09L328.035 320.843C326.795 320.817 326.018 321.1 325.239 321.511L325.449 311.757C325.924 311.596 326.482 311.522 327.123 311.536C327.679 311.548 328.277 311.604 329.002 311.748C327.486 310.602 325.021 307.81 325.132 302.676ZM332.451 304.632C331.21 304.605 330.294 305.441 330.253 307.324C330.211 309.292 331.12 310.766 331.792 311.38L335.129 311.452L334.821 307.85C334.613 305.577 333.734 304.66 332.451 304.632Z" fill="#FFF1F1"/>
<path d="M338.962 342.393L349.587 323.822L357.869 328.561L354.172 335.023L359.891 338.295L363.589 331.833L371.908 336.593L361.284 355.163L352.964 350.403L357.087 343.198L351.367 339.926L347.244 347.131L338.962 342.393Z" fill="#FFF1F1"/>
<path d="M383.819 350.562L377.014 341.173L379.716 339.214C379.333 337.008 378.331 333.876 375.73 329.631L372.862 324.945L391.398 311.51L400.539 324.122L403.657 321.862L410.462 331.251L403.498 336.299L400.108 331.621L387.428 340.812L390.818 345.489L383.819 350.562ZM386.23 334.493L392.778 329.747L386.952 321.709L381.963 325.325L382.597 326.345C384.73 329.872 385.799 332.586 386.23 334.493Z" fill="#FFF1F1"/>
<path d="M412.663 312.807L392.808 304.838L396.267 296.22L408.14 300.986L408.156 300.946L398.88 289.708L402.626 280.376L422.481 288.345L419.023 296.962L407.149 292.197L407.133 292.236L416.409 303.475L412.663 312.807Z" fill="#FFF1F1"/>
<path d="M415.631 266.351C414.372 268.499 412.031 270.169 409.01 269.565C405.066 268.776 402.649 265.151 403.823 259.277L407.053 243.123L428.033 247.317L426.17 256.632L419.289 255.256L418.643 258.487L424.862 263.178L422.806 273.458L415.631 266.351ZM411.107 260.384C412.492 260.661 413.558 259.914 413.918 258.11L414.673 254.334L410.142 253.428L409.387 257.204C409.026 259.008 409.723 260.107 411.107 260.384Z" fill="#FFF1F1"/>
<path d="M421.182 182.791L399.914 185.124L398.874 175.639L406.275 174.827L405.556 168.277L398.155 169.089L397.11 159.561L418.378 157.228L419.423 166.756L411.171 167.661L411.89 174.211L420.141 173.306L421.182 182.791Z" fill="#FFF1F1"/>
<path d="M410.483 153.521C409.394 149.825 408.195 149.118 401.771 150.426L395.669 151.783L389.895 129.454L410.608 124.097L413.008 133.377L397.97 137.266L399.502 143.19L401.222 142.834C411.799 140.496 415.751 142.789 417.187 148.34C417.476 149.459 417.652 150.651 417.652 150.651L410.483 153.521Z" fill="#FFF1F1"/>
<path d="M405.016 110.274C407.436 114.852 406.577 118.355 403.286 120.095C399.919 121.875 396.276 120.751 391.845 113.559L389.063 109.028L387.663 109.768C386.301 110.487 385.944 111.644 386.764 113.195C387.624 114.822 388.785 115.37 390.373 115.353L393.194 123.252C389.641 123.581 385.856 122.097 382.076 114.947C378.097 107.419 379.421 103.331 383.544 101.152L393.645 95.8123C394.742 95.2324 395.283 94.6076 395.764 93.8693L400.323 102.495C399.987 102.866 399.535 103.201 398.968 103.501C398.476 103.761 397.926 104.003 397.223 104.23C399.105 104.494 402.617 105.735 405.016 110.274ZM397.67 112.125C398.767 111.545 399.161 110.369 398.281 108.704C397.361 106.964 395.849 106.118 394.964 105.908L392.013 107.468L394.034 110.466C395.32 112.351 396.535 112.725 397.67 112.125Z" fill="#FFF1F1"/>
<path d="M391.093 87.4026L375.554 102.109L368.995 95.1792L374.402 90.0612L369.873 85.2752L364.465 90.3932L357.877 83.4318L373.415 68.725L380.004 75.6863L373.975 81.3926L378.505 86.1785L384.534 80.4723L391.093 87.4026Z" fill="#FFF1F1"/>
<path d="M368.396 60.0909L363.001 70.3552L360.046 68.8022C358.24 70.1245 355.877 72.4115 353.227 76.6259L350.299 81.2749L330.036 70.6231L337.283 56.8363L333.874 55.0444L339.27 44.7801L346.883 48.782L344.195 53.8952L358.058 61.1823L360.745 56.0691L368.396 60.0909ZM352.926 65.0592L345.767 61.2962L341.148 70.0834L346.602 72.9504L347.236 71.9297C349.45 68.4529 351.408 66.2916 352.926 65.0592Z" fill="#FFF1F1"/>
<path d="M323.967 44.9998L326.409 66.2549L317.185 67.3147L315.724 54.6041L315.682 54.609L310.213 68.1157L300.223 69.2634L297.781 48.0082L307.006 46.9484L308.466 59.659L308.509 59.6541L313.977 46.1475L323.967 44.9998Z" fill="#FFF1F1"/>
<path d="M287.14 61.4029C289.593 60.9786 292.38 61.69 293.867 64.388C295.809 67.9104 294.599 72.0959 289.353 74.9882L274.926 82.9422L264.596 64.2061L272.915 59.6197L276.303 65.7651L279.189 64.1743L278.761 56.3968L287.941 51.3352L287.14 61.4029ZM285.5 68.7083C284.818 67.4717 283.56 67.1393 281.948 68.0277L278.576 69.887L280.807 73.934L284.18 72.0747C285.791 71.1863 286.181 69.9449 285.5 68.7083Z" fill="#FFF1F1"/>
<path d="M219.546 95.6224L236.738 122.433L228.67 132.963L198.31 123.339L205.206 114.338L210.647 116.242L217.075 107.853L213.82 103.095L219.546 95.6224ZM220.557 112.947L216.471 118.279L226.959 122.11L220.557 112.947Z" fill="#FFF1F1"/>
<path d="M198.945 132.343L219.724 137.443L217.449 146.711L210.218 144.936L208.647 151.335L215.878 153.11L213.593 162.419L192.815 157.319L195.1 148.01L203.162 149.989L204.733 143.589L196.671 141.61L198.945 132.343Z" fill="#FFF1F1"/>
<path d="M199.994 169.501C201.377 173.097 202.629 173.705 208.927 171.884L214.899 170.039L222.454 191.831L202.24 198.839L199.1 189.783L213.776 184.695L211.771 178.914L210.086 179.407C199.731 182.59 195.607 180.623 193.729 175.205C193.351 174.114 193.079 172.94 193.079 172.94L199.994 169.501Z" fill="#FFF1F1"/>
<path d="M236.681 210.877C231.925 212.923 228.501 211.787 227.03 208.368C225.525 204.869 226.936 201.328 234.459 197.485L239.198 195.074L238.572 193.619C237.964 192.204 236.839 191.756 235.228 192.45C233.537 193.177 232.898 194.29 232.788 195.875L224.689 198.055C224.645 194.487 226.427 190.833 233.855 187.637C241.677 184.271 245.647 185.918 247.49 190.202L252.005 200.697C252.496 201.837 253.075 202.426 253.773 202.964L244.811 206.82C244.467 206.455 244.169 205.978 243.915 205.388C243.696 204.877 243.498 204.31 243.328 203.591C242.915 205.446 241.397 208.847 236.681 210.877ZM235.423 203.406C235.913 204.546 237.055 205.033 238.784 204.289C240.592 203.511 241.556 202.071 241.836 201.206L240.517 198.14L237.368 199.914C235.386 201.046 234.916 202.227 235.423 203.406Z" fill="#FFF1F1"/>
<path d="M269.035 194.65L252.154 181.505L258.016 173.976L263.891 178.55L267.939 173.351L262.065 168.777L267.954 161.214L284.835 174.359L278.946 181.922L272.396 176.821L268.347 182.021L274.897 187.121L269.035 194.65Z" fill="#FFF1F1"/>
<path d="M294.753 158.68L283.16 158.391L283.244 155.054C281.258 154.02 278.161 152.916 273.208 152.407L267.743 151.843L268.314 128.957L283.885 129.346L283.981 125.496L295.573 125.785L295.359 134.383L289.584 134.239L289.193 149.895L294.968 150.039L294.753 158.68ZM283.444 147.012L283.646 138.928L273.722 138.68L273.568 144.84L274.764 144.955C278.862 145.4 281.667 146.198 283.444 147.012Z" fill="#FFF1F1"/>
<path d="M286.261 116.83L265.587 122.338L263.196 113.365L275.559 110.072L275.548 110.031L261.39 106.584L258.801 96.8676L279.475 91.3601L281.866 100.333L269.503 103.626L269.514 103.667L283.672 107.114L286.261 116.83Z" fill="#FFF1F1"/>
<path d="M256.873 81.281C258.072 83.4631 258.305 86.3295 256.238 88.6136C253.538 91.5956 249.187 91.8121 244.746 87.7919L232.532 76.7362L246.89 60.8745L253.933 67.2495L249.223 72.4521L251.666 74.6633L258.881 71.7292L266.654 78.7646L256.873 81.281ZM249.431 82.1057C250.379 81.0589 250.284 79.7609 248.92 78.5261L246.064 75.9417L242.963 79.3678L245.818 81.9523C247.182 83.187 248.483 83.1526 249.431 82.1057Z" fill="#FFF1F1"/>
<path d="M216.089 55.503L222.642 60.4368L217.724 64.0363L223.87 64.589L221.085 72.1576L215.976 68.8146L217.276 74.639L208.937 74.3538L210.672 68.676L205.348 71.6194L203.044 63.8767L209.128 63.7423L204.553 59.8181L211.428 55.3435L213.544 61.0675L216.089 55.503Z" fill="#FFF1F1"/>
<path d="M185.975 50.7119L188.476 82.4628L176.393 87.9374L154.171 65.1224L164.499 60.4425L168.397 64.6897L178.024 60.3277L177.4 54.597L185.975 50.7119ZM178.689 66.462L172.57 69.2346L180.007 77.5621L178.689 66.462Z" fill="#FFF1F1"/>
<path d="M150.778 67.6504L162.393 85.6182L154.38 90.7984L150.338 84.5456L144.804 88.123L148.846 94.3758L140.796 99.5792L129.181 81.6115L137.231 76.408L141.737 83.3795L147.271 79.8021L142.765 72.8306L150.778 67.6504Z" fill="#FFF1F1"/>
<path d="M130.319 90.0415C127.294 92.4284 127.085 93.8044 130.691 99.2792L134.224 104.437L115.652 118.112L102.966 100.884L110.684 95.2008L119.894 107.708L124.821 104.08L123.85 102.617C117.741 93.671 118.397 89.1494 123.014 85.7495C123.944 85.0645 124.985 84.4574 124.985 84.4574L130.319 90.0415Z" fill="#FFF1F1"/>
<path d="M92.6652 108.309C96.5167 104.848 100.123 104.829 102.611 107.598C105.157 110.431 104.953 114.238 99.0539 120.286L95.3357 124.086L96.3938 125.264C97.4233 126.41 98.6318 126.475 99.9369 125.302C101.306 124.073 101.555 122.813 101.152 121.277L108.128 116.62C109.311 119.986 108.793 124.019 102.777 129.424C96.4424 135.114 92.1552 134.824 89.0382 131.355L81.4028 122.856C80.5735 121.933 79.8359 121.56 79.0028 121.273L86.2603 114.753C86.7021 114.989 87.1376 115.345 87.5665 115.823C87.9383 116.237 88.3068 116.711 88.6975 117.338C88.4956 115.448 88.8455 111.74 92.6652 108.309ZM96.247 114.984C95.4177 114.061 94.1805 113.965 92.78 115.223C91.3158 116.539 90.8626 118.211 90.8746 119.121L93.1051 121.604L95.5215 118.915C97.037 117.208 97.1049 115.939 96.247 114.984Z" fill="#FFF1F1"/>
<path d="M74.7691 125.789L91.6596 138.921L85.8026 146.454L79.9247 141.884L75.8799 147.087L81.7578 151.657L75.8745 159.223L58.9841 146.091L64.8674 138.524L71.4209 143.62L75.4656 138.417L68.9121 133.322L74.7691 125.789Z" fill="#FFF1F1"/>
<path d="M50.2007 148.564L60.4981 153.897L58.9634 156.86C60.2968 158.659 62.5984 161.007 66.8291 163.632L71.4961 166.53L60.9695 186.859L47.1382 179.697L45.3674 183.117L35.07 177.785L39.0248 170.147L44.1545 172.803L51.3559 158.896L46.2262 156.24L50.2007 148.564ZM55.2644 164.004L51.5456 171.186L60.3611 175.75L63.1945 170.279L62.1699 169.652C58.6795 167.459 56.5061 165.514 55.2644 164.004Z" fill="#FFF1F1"/>
<path d="M38.4314 185.358L58.6978 192.214L55.7219 201.01L43.6026 196.91L43.5889 196.95L53.4729 207.657L50.2501 217.183L29.9837 210.326L32.9596 201.53L45.0789 205.631L45.0926 205.59L35.2087 194.883L38.4314 185.358Z" fill="#FFF1F1"/>
<path d="M35.3868 223.219C36.68 221.091 39.048 219.459 42.0589 220.112C45.9898 220.964 48.3479 224.628 47.0784 230.482L43.5875 246.582L22.6784 242.049L24.6914 232.765L31.5495 234.252L32.2477 231.032L26.1059 226.241L28.3274 215.996L35.3868 223.219ZM39.8132 229.257C38.4332 228.958 37.3555 229.688 36.9656 231.486L36.1495 235.249L40.6659 236.229L41.482 232.465C41.8719 230.667 41.1932 229.557 39.8132 229.257Z" fill="#FFF1F1"/>
<path d="M30.8224 267.804L35.8293 261.307L39.3735 266.265L39.995 260.125L47.532 262.995L44.1319 268.066L49.9706 266.832L49.592 275.167L43.934 273.368L46.8176 278.725L39.0496 280.942L38.9833 274.857L35.0081 279.388L30.6108 272.463L36.3581 270.411L30.8224 267.804Z" fill="#FFF1F1"/>
</svg>
