<svg width="1779" height="641" viewBox="0 0 1779 641" fill="none" xmlns="http://www.w3.org/2000/svg">
<path fill-rule="evenodd" clip-rule="evenodd" d="M0.0550954 324.324C0.0543893 324.228 0.053801 324.132 0.0533307 324.035L0.0520933 323.659C0.0519042 323.547 0.0518743 323.436 0.0520035 323.324L81.1052 323.057L80.9162 265.612L14.4117 265.831C14.5801 265.497 14.75 265.163 14.9213 264.829L80.913 264.612L80.724 207.175L60.3191 207.242C60.6801 206.908 61.0426 206.573 61.4066 206.239L80.7207 206.175L80.6672 189.899C80.9987 189.638 81.3312 189.377 81.6646 189.117L81.7207 206.172L161.775 205.909L161.586 148.471L143.787 148.53C144.392 148.194 144.999 147.859 145.607 147.524L161.583 147.471L161.555 139.04C161.887 138.869 162.22 138.698 162.553 138.527L162.583 147.468L241.332 147.209L241.189 103.647C241.522 103.519 241.855 103.391 242.188 103.262L242.332 147.206L322.387 146.942L322.198 89.4973L279.773 89.6369C280.76 89.2995 281.75 88.9629 282.741 88.6271L322.194 88.4973L322.153 76.0369C322.486 75.9367 322.819 75.8365 323.152 75.7364L323.194 88.494L403.249 88.2307L403.137 54.299C403.47 54.2197 403.803 54.1405 404.136 54.0613L404.249 88.2274L484.311 87.964L484.143 37.1229C484.476 37.0605 484.809 36.9982 485.143 36.9359L485.311 87.9607L565.365 87.6974L565.176 30.268L522.15 30.4095C524.213 30.0667 526.281 29.7265 528.353 29.3891L565.173 29.268L565.154 23.7509C565.488 23.703 565.821 23.6552 566.154 23.6075L566.173 29.2647L646.227 29.0014L646.177 13.705C646.51 13.6701 646.843 13.6352 647.176 13.6004L647.227 28.9981L725.976 28.739L725.904 6.76538C726.237 6.74218 726.571 6.71905 726.904 6.69598L726.976 28.7357L807.031 28.4724L806.945 2.50324C807.278 2.4913 807.612 2.47943 807.945 2.46762L808.031 28.4691L888.085 28.2057L887.995 0.924554L888.877 0.921654C888.916 0.921538 888.956 0.921423 888.995 0.921309L889.085 28.2024L969.139 27.9391L969.054 1.96996C969.387 1.97971 969.721 1.98952 970.054 1.9994L970.139 27.9358L1050.19 27.6724L1050.12 5.6988C1050.45 5.71982 1050.79 5.7409 1051.12 5.76205L1051.19 27.6692L1129.94 27.4101L1129.89 12.1137C1130.23 12.1465 1130.56 12.1793 1130.89 12.2122L1130.94 27.4068L1211 27.1435L1210.98 21.6263C1211.31 21.672 1211.65 21.7178 1211.98 21.7637L1212 27.1402L1247.82 27.0223C1249.89 27.3461 1251.96 27.6726 1254.03 28.0019L1212 28.1402L1212.19 85.5695L1292.24 85.3062L1292.08 34.465C1292.41 34.5252 1292.74 34.5856 1293.08 34.6459L1293.24 85.3029L1373.31 85.0395L1373.19 51.1079C1373.53 51.1851 1373.86 51.2624 1374.19 51.3397L1374.31 85.0362L1454.36 84.7729L1454.32 72.3124C1454.65 72.4106 1454.99 72.5088 1455.32 72.6072L1455.36 84.7696L1493.81 84.6431C1494.81 84.9724 1495.8 85.3024 1496.79 85.6333L1455.36 85.7696L1455.55 143.215L1535.61 142.951L1535.46 99.3894C1535.8 99.5157 1536.13 99.6422 1536.46 99.7687L1536.61 142.948L1615.36 142.689L1615.33 134.257C1615.66 134.426 1616 134.596 1616.33 134.765L1616.36 142.686L1631.33 142.636C1631.94 142.967 1632.55 143.299 1633.16 143.63L1616.36 143.686L1616.55 201.123L1696.6 200.86L1696.55 184.583C1696.88 184.843 1697.22 185.104 1697.55 185.364L1697.6 200.856L1715.92 200.796C1716.28 201.128 1716.65 201.46 1717.01 201.793L1697.61 201.856L1697.79 259.293L1762.79 259.08C1762.96 259.412 1763.13 259.745 1763.3 260.078L1697.8 260.293L1697.99 317.738L1778.04 317.475C1778.04 317.649 1778.04 317.824 1778.04 317.998C1778.04 318.157 1778.04 318.316 1778.04 318.475L1697.99 318.738L1698.18 376.168L1763.72 375.952C1763.55 376.286 1763.38 376.62 1763.21 376.954L1698.18 377.168L1698.37 434.605L1717.84 434.541C1717.48 434.876 1717.12 435.21 1716.76 435.544L1698.37 435.605L1698.43 451.158C1698.09 451.421 1697.76 451.684 1697.43 451.946L1697.37 435.608L1617.32 435.871L1617.51 493.316L1634.41 493.261C1633.8 493.596 1633.2 493.932 1632.59 494.267L1617.51 494.316L1617.54 502.291C1617.21 502.463 1616.87 502.634 1616.54 502.806L1616.51 494.32L1537.76 494.579L1537.91 537.812C1537.57 537.941 1537.24 538.07 1536.91 538.198L1536.76 494.582L1456.71 494.845L1456.9 552.283L1498.51 552.146C1497.52 552.483 1496.53 552.82 1495.54 553.156L1456.9 553.283L1456.94 565.507C1456.61 565.608 1456.28 565.708 1455.94 565.808L1455.9 553.286L1375.85 553.549L1375.96 587.308C1375.63 587.387 1375.29 587.467 1374.96 587.546L1374.85 553.553L1294.78 553.816L1294.95 604.535C1294.62 604.597 1294.29 604.66 1293.95 604.722L1293.78 553.819L1213.73 554.083L1213.92 611.528L1256.23 611.388C1254.17 611.731 1252.1 612.071 1250.03 612.409L1213.92 612.528L1213.94 617.95C1213.61 617.998 1213.27 618.046 1212.94 618.094L1212.92 612.531L1132.87 612.794L1132.92 628.035C1132.59 628.07 1132.25 628.105 1131.92 628.14L1131.87 612.798L1053.12 613.057L1053.19 635.01C1052.86 635.033 1052.52 635.057 1052.19 635.08L1052.12 613.06L972.065 613.323L972.15 639.306C971.817 639.318 971.484 639.33 971.15 639.342L971.065 613.327L891.011 613.59L891.101 640.918C890.767 640.919 890.434 640.92 890.101 640.921L890.011 613.593L809.956 613.857L810.042 639.904C809.709 639.895 809.375 639.885 809.042 639.875L808.956 613.86L728.902 614.123L728.975 636.209C728.641 636.188 728.308 636.167 727.975 636.146L727.902 614.126L649.153 614.385L649.203 629.83C648.87 629.797 648.536 629.764 648.203 629.732L648.153 614.389L568.098 614.652L568.117 620.356C567.784 620.31 567.45 620.265 567.117 620.219L567.098 614.655L529.987 614.777C527.915 614.454 525.847 614.127 523.784 613.798L567.095 613.655L566.906 556.21L486.852 556.474L487.02 607.561C486.686 607.501 486.353 607.441 486.019 607.38L485.852 556.477L405.79 556.74L405.903 590.969C405.569 590.892 405.235 590.815 404.902 590.738L404.79 556.744L324.736 557.007L324.778 569.827C324.444 569.729 324.11 569.631 323.777 569.533L323.736 557.01L284.097 557.141C283.104 556.812 282.113 556.481 281.124 556.151L323.732 556.01L323.543 498.573L243.489 498.836L243.634 542.834C243.3 542.708 242.966 542.582 242.633 542.456L242.489 498.84L163.739 499.099L163.769 508.094C163.435 507.926 163.101 507.757 162.767 507.588L162.739 499.102L146.664 499.155C146.054 498.824 145.445 498.493 144.838 498.161L162.736 498.102L162.547 440.657L82.493 440.921L82.5493 458.038C82.2141 457.78 81.88 457.521 81.5467 457.262L81.493 440.924L62.111 440.988C61.745 440.656 61.3805 440.324 61.0176 439.991L81.4897 439.924L81.3007 382.487L15.2769 382.704C15.1036 382.371 14.9317 382.039 14.7613 381.706L81.2974 381.487L81.1085 324.057L0.0550954 324.324ZM890.007 612.593L809.953 612.857L809.764 555.412L889.818 555.148L890.007 612.593ZM808.953 612.86L808.764 555.415L728.71 555.678L728.899 613.123L808.953 612.86ZM889.815 554.148L809.761 554.412L809.572 496.974L889.626 496.711L889.815 554.148ZM808.761 554.415L808.572 496.977L728.518 497.241L728.707 554.678L808.761 554.415ZM889.623 495.711L809.569 495.974L809.38 438.529L889.434 438.266L889.623 495.711ZM808.569 495.977L808.38 438.533L728.325 438.796L728.514 496.241L808.569 495.977ZM889.431 437.266L809.376 437.529L809.187 380.092L889.242 379.829L889.431 437.266ZM808.376 437.533L808.187 380.095L728.133 380.359L728.322 437.796L808.376 437.533ZM889.238 378.829L809.184 379.092L808.995 321.663L889.049 321.399L889.238 378.829ZM808.184 379.095L807.995 321.666L727.941 321.929L728.13 379.359L808.184 379.095ZM889.046 320.399L808.992 320.663L808.803 263.218L888.857 262.954L889.046 320.399ZM807.992 320.666L807.803 263.221L727.749 263.484L727.938 320.929L807.992 320.666ZM888.854 261.954L808.8 262.218L808.611 204.781L888.665 204.518L888.854 261.954ZM807.8 262.221L807.611 204.784L727.556 205.047L727.745 262.484L807.8 262.221ZM888.662 203.518L808.607 203.781L808.418 146.343L888.473 146.08L888.662 203.518ZM807.607 203.784L807.418 146.347L727.364 146.61L727.553 204.048L807.607 203.784ZM888.469 145.08L808.415 145.343L808.226 87.8984L888.28 87.6351L888.469 145.08ZM807.415 145.347L807.226 87.9017L727.172 88.1651L727.361 145.61L807.415 145.347ZM888.277 86.6351L808.223 86.8985L808.034 29.4691L888.088 29.2057L888.277 86.6351ZM807.223 86.9017L807.034 29.4724L726.98 29.7357L727.169 87.1651L807.223 86.9017ZM1696.61 201.86L1616.55 202.123L1616.74 259.56L1696.79 259.297L1696.61 201.86ZM1696.8 260.297L1616.74 260.56L1616.93 318.005L1696.99 317.742L1696.8 260.297ZM1696.99 318.742L1616.94 319.005L1617.13 376.434L1697.18 376.171L1696.99 318.742ZM1697.18 377.171L1617.13 377.434L1617.32 434.871L1697.37 434.608L1697.18 377.171ZM1616.32 435.875L1616.51 493.32L1537.76 493.579L1537.57 436.134L1616.32 435.875ZM1616.13 377.438L1616.32 434.875L1537.57 435.134L1537.38 377.697L1616.13 377.438ZM1615.94 319.008L1616.13 376.438L1537.38 376.697L1537.19 319.267L1615.94 319.008ZM1615.74 260.563L1615.93 318.008L1537.18 318.267L1536.99 260.822L1615.74 260.563ZM1615.55 202.126L1615.74 259.563L1536.99 259.822L1536.8 202.385L1615.55 202.126ZM1615.36 143.689L1615.55 201.126L1536.8 201.385L1536.61 143.948L1615.36 143.689ZM725.98 29.739L647.23 29.9981L647.419 87.4274L726.169 87.1684L725.98 29.739ZM726.172 88.1684L647.422 88.4274L647.611 145.872L726.361 145.613L726.172 88.1684ZM726.364 146.613L647.615 146.872L647.804 204.31L726.553 204.051L726.364 146.613ZM726.556 205.051L647.807 205.31L647.996 262.747L726.745 262.488L726.556 205.051ZM726.749 263.488L647.999 263.747L648.188 321.192L726.938 320.933L726.749 263.488ZM726.941 321.933L648.191 322.192L648.38 379.621L727.13 379.362L726.941 321.933ZM727.133 380.362L648.384 380.621L648.573 438.058L727.322 437.799L727.133 380.362ZM727.325 438.799L648.576 439.058L648.765 496.503L727.514 496.244L727.325 438.799ZM727.518 497.244L648.768 497.503L648.957 554.94L727.707 554.681L727.518 497.244ZM727.71 555.681L648.96 555.94L649.149 613.385L727.899 613.126L727.71 555.681ZM1536.57 436.137L1536.76 493.582L1456.71 493.845L1456.52 436.4L1536.57 436.137ZM1536.38 377.7L1536.57 435.137L1456.51 435.4L1456.32 377.963L1536.38 377.7ZM1536.19 319.271L1536.38 376.7L1456.32 376.963L1456.13 319.534L1536.19 319.271ZM1535.99 260.826L1536.18 318.271L1456.13 318.534L1455.94 261.089L1535.99 260.826ZM1535.8 202.389L1535.99 259.826L1455.94 260.089L1455.75 202.652L1535.8 202.389ZM1535.61 143.951L1535.8 201.389L1455.74 201.652L1455.56 144.215L1535.61 143.951ZM646.23 30.0014L566.176 30.2647L566.365 87.6941L646.419 87.4307L646.23 30.0014ZM646.422 88.4307L566.368 88.6941L566.557 146.139L646.611 145.876L646.422 88.4307ZM646.615 146.876L566.56 147.139L566.749 204.576L646.804 204.313L646.615 146.876ZM646.807 205.313L566.753 205.576L566.942 263.013L646.996 262.75L646.807 205.313ZM646.999 263.75L566.945 264.013L567.134 321.458L647.188 321.195L646.999 263.75ZM647.191 322.195L567.137 322.458L567.326 379.888L647.38 379.624L647.191 322.195ZM647.384 380.624L567.329 380.888L567.518 438.325L647.573 438.062L647.384 380.624ZM647.576 439.062L567.522 439.325L567.711 496.77L647.765 496.506L647.576 439.062ZM647.768 497.506L567.714 497.77L567.903 555.207L647.957 554.944L647.768 497.506ZM647.96 555.944L567.906 556.207L568.095 613.652L648.149 613.389L647.96 555.944ZM1455.71 494.849L1455.9 552.286L1375.84 552.549L1375.65 495.112L1455.71 494.849ZM1455.52 436.404L1455.71 493.849L1375.65 494.112L1375.46 436.667L1455.52 436.404ZM1455.32 377.967L1455.51 435.404L1375.46 435.667L1375.27 378.23L1455.32 377.967ZM1455.13 319.537L1455.32 376.967L1375.27 377.23L1375.08 319.801L1455.13 319.537ZM1454.94 261.092L1455.13 318.537L1375.07 318.801L1374.89 261.356L1454.94 261.092ZM1454.75 202.655L1454.94 260.092L1374.88 260.356L1374.69 202.919L1454.75 202.655ZM1454.56 144.218L1454.74 201.655L1374.69 201.919L1374.5 144.481L1454.56 144.218ZM1454.36 85.7729L1454.55 143.218L1374.5 143.481L1374.31 86.0362L1454.36 85.7729ZM565.368 88.6974L485.314 88.9607L485.503 146.406L565.557 146.142L565.368 88.6974ZM565.56 147.142L485.506 147.406L485.695 204.843L565.749 204.58L565.56 147.142ZM565.753 205.58L485.698 205.843L485.887 263.28L565.942 263.017L565.753 205.58ZM565.945 264.017L485.891 264.28L486.08 321.725L566.134 321.462L565.945 264.017ZM566.137 322.462L486.083 322.725L486.272 380.154L566.326 379.891L566.137 322.462ZM566.329 380.891L486.275 381.154L486.464 438.592L566.518 438.328L566.329 380.891ZM566.522 439.328L486.467 439.592L486.656 497.036L566.711 496.773L566.522 439.328ZM566.714 497.773L486.66 498.036L486.849 555.474L566.903 555.21L566.714 497.773ZM1374.65 495.115L1374.84 552.553L1294.78 552.816L1294.59 495.379L1374.65 495.115ZM1374.46 436.67L1374.65 494.115L1294.59 494.379L1294.4 436.934L1374.46 436.67ZM1374.27 378.233L1374.46 435.67L1294.4 435.934L1294.21 378.497L1374.27 378.233ZM1374.08 319.804L1374.27 377.233L1294.2 377.497L1294.02 320.067L1374.08 319.804ZM1373.89 261.359L1374.07 318.804L1294.01 319.067L1293.82 261.622L1373.89 261.359ZM1373.69 202.922L1373.88 260.359L1293.82 260.622L1293.63 203.185L1373.69 202.922ZM1373.5 144.485L1373.69 201.922L1293.63 202.185L1293.44 144.748L1373.5 144.485ZM1373.31 86.0395L1373.5 143.485L1293.44 143.748L1293.25 86.3029L1373.31 86.0395ZM484.314 88.964L404.252 89.2274L404.441 146.672L484.503 146.409L484.314 88.964ZM484.506 147.409L404.444 147.672L404.633 205.11L484.695 204.846L484.506 147.409ZM484.698 205.846L404.637 206.11L404.826 263.547L484.887 263.283L484.698 205.846ZM484.891 264.283L404.829 264.547L405.018 321.992L485.08 321.728L484.891 264.283ZM485.083 322.728L405.021 322.992L405.21 380.421L485.272 380.158L485.083 322.728ZM485.275 381.158L405.213 381.421L405.402 438.858L485.464 438.595L485.275 381.158ZM485.467 439.595L405.406 439.858L405.594 497.303L485.656 497.04L485.467 439.595ZM485.66 498.04L405.598 498.303L405.787 555.74L485.849 555.477L485.66 498.04ZM1293.59 495.382L1293.78 552.819L1213.73 553.083L1213.54 495.645L1293.59 495.382ZM1293.4 436.937L1293.59 494.382L1213.54 494.645L1213.35 437.2L1293.4 436.937ZM1293.21 378.5L1293.4 435.937L1213.34 436.2L1213.15 378.763L1293.21 378.5ZM1293.02 320.071L1293.2 377.5L1213.15 377.763L1212.96 320.334L1293.02 320.071ZM1292.82 261.626L1293.01 319.071L1212.96 319.334L1212.77 261.889L1292.82 261.626ZM1292.63 203.189L1292.82 260.626L1212.77 260.889L1212.58 203.452L1292.63 203.189ZM1292.44 144.751L1292.63 202.189L1212.57 202.452L1212.39 145.015L1292.44 144.751ZM1292.25 86.3062L1292.44 143.751L1212.38 144.015L1212.19 86.5695L1292.25 86.3062ZM404.598 498.306L404.787 555.744L324.732 556.007L324.543 498.57L404.598 498.306ZM404.406 439.862L404.594 497.306L324.54 497.57L324.351 440.125L404.406 439.862ZM404.213 381.424L404.402 438.862L324.348 439.125L324.159 381.688L404.213 381.424ZM404.021 322.995L404.21 380.424L324.155 380.688L323.967 323.258L404.021 322.995ZM403.829 264.55L404.018 321.995L323.963 322.258L323.774 264.813L403.829 264.55ZM403.637 206.113L403.826 263.55L323.771 263.813L323.582 206.376L403.637 206.113ZM403.444 147.676L403.633 205.113L323.579 205.376L323.39 147.939L403.444 147.676ZM403.252 89.2307L403.441 146.676L323.387 146.939L323.198 89.494L403.252 89.2307ZM323.348 439.128L243.293 439.392L243.105 381.954L323.159 381.691L323.348 439.128ZM322.967 323.262L323.155 380.691L243.101 380.954L242.912 323.525L322.967 323.262ZM322.774 264.817L322.963 322.262L242.909 322.525L242.72 265.08L322.774 264.817ZM322.582 206.38L322.771 263.817L242.717 264.08L242.528 206.643L322.582 206.38ZM322.39 147.942L322.579 205.38L242.525 205.643L242.336 148.206L322.39 147.942ZM1212.73 554.086L1212.92 611.531L1132.87 611.794L1132.68 554.349L1212.73 554.086ZM1212.54 495.648L1212.73 553.086L1132.67 553.349L1132.48 495.912L1212.54 495.648ZM1212.35 437.204L1212.54 494.648L1132.48 494.912L1132.29 437.467L1212.35 437.204ZM1212.15 378.767L1212.34 436.204L1132.29 436.467L1132.1 379.03L1212.15 378.767ZM1211.96 320.337L1212.15 377.767L1132.1 378.03L1131.91 320.601L1211.96 320.337ZM1211.77 261.892L1211.96 319.337L1131.9 319.601L1131.72 262.156L1211.77 261.892ZM1211.58 203.455L1211.77 260.892L1131.71 261.156L1131.52 203.719L1211.58 203.455ZM1211.39 145.018L1211.57 202.455L1131.52 202.719L1131.33 145.281L1211.39 145.018ZM1211.19 86.5728L1211.38 144.018L1131.33 144.281L1131.14 86.8362L1211.19 86.5728ZM1211 28.1434L1211.19 85.5728L1131.14 85.8362L1130.95 28.4068L1211 28.1434ZM323.54 497.573L243.486 497.836L243.297 440.392L323.351 440.128L323.54 497.573ZM242.293 439.395L163.544 439.654L163.355 382.217L242.105 381.958L242.293 439.395ZM241.912 323.528L242.101 380.958L163.352 381.217L163.163 323.787L241.912 323.528ZM241.72 265.083L241.909 322.528L163.159 322.787L162.97 265.342L241.72 265.083ZM241.528 206.646L241.717 264.083L162.967 264.342L162.778 206.905L241.528 206.646ZM241.336 148.209L241.525 205.646L162.775 205.905L162.586 148.468L241.336 148.209ZM1131.68 554.353L1131.87 611.798L1053.12 612.057L1052.93 554.612L1131.68 554.353ZM1131.48 495.915L1131.67 553.353L1052.92 553.612L1052.73 496.174L1131.48 495.915ZM1131.29 437.47L1131.48 494.915L1052.73 495.174L1052.54 437.729L1131.29 437.47ZM1131.1 379.033L1131.29 436.47L1052.54 436.729L1052.35 379.292L1131.1 379.033ZM1130.91 320.604L1131.1 378.033L1052.35 378.292L1052.16 320.863L1130.91 320.604ZM1130.72 262.159L1130.9 319.604L1052.15 319.863L1051.97 262.418L1130.72 262.159ZM1130.52 203.722L1130.71 261.159L1051.96 261.418L1051.77 203.981L1130.52 203.722ZM1130.33 145.284L1130.52 202.722L1051.77 202.981L1051.58 145.544L1130.33 145.284ZM1130.14 86.8395L1130.33 144.284L1051.58 144.544L1051.39 87.0985L1130.14 86.8395ZM1129.95 28.4101L1130.14 85.8395L1051.39 86.0985L1051.2 28.6692L1129.95 28.4101ZM242.486 497.84L163.736 498.099L163.547 440.654L242.297 440.395L242.486 497.84ZM162.544 439.657L162.355 382.22L82.3007 382.483L82.4897 439.921L162.544 439.657ZM1051.93 554.615L1052.12 612.06L972.062 612.323L971.873 554.878L1051.93 554.615ZM1051.73 496.177L1051.92 553.615L971.869 553.878L971.68 496.441L1051.73 496.177ZM1051.54 437.733L1051.73 495.177L971.677 495.441L971.488 437.996L1051.54 437.733ZM1051.35 379.296L1051.54 436.733L971.485 436.996L971.296 379.559L1051.35 379.296ZM1051.16 320.866L1051.35 378.296L971.293 378.559L971.104 321.13L1051.16 320.866ZM1050.97 262.421L1051.15 319.866L971.1 320.13L970.911 262.685L1050.97 262.421ZM1050.77 203.984L1050.96 261.421L970.908 261.685L970.719 204.248L1050.77 203.984ZM1050.58 145.547L1050.77 202.984L970.716 203.248L970.527 145.81L1050.58 145.547ZM1050.39 87.1018L1050.58 144.547L970.524 144.81L970.335 87.3652L1050.39 87.1018ZM1050.2 28.6724L1050.39 86.1018L970.331 86.3652L970.142 28.9358L1050.2 28.6724ZM82.2974 381.483L162.352 381.22L162.163 323.791L82.1085 324.054L82.2974 381.483ZM82.1052 323.054L162.159 322.791L161.97 265.346L81.9162 265.609L82.1052 323.054ZM81.9129 264.609L161.967 264.346L161.778 206.909L81.724 207.172L81.9129 264.609ZM971.062 612.327L970.873 554.882L890.818 555.145L891.007 612.59L971.062 612.327ZM970.869 553.882L970.68 496.444L890.626 496.707L890.815 554.145L970.869 553.882ZM970.677 495.444L970.488 437.999L890.434 438.263L890.623 495.707L970.677 495.444ZM970.485 436.999L970.296 379.562L890.242 379.826L890.431 437.263L970.485 436.999ZM970.293 378.562L970.104 321.133L890.049 321.396L890.238 378.826L970.293 378.562ZM970.1 320.133L969.911 262.688L889.857 262.951L890.046 320.396L970.1 320.133ZM969.908 261.688L969.719 204.251L889.665 204.514L889.854 261.951L969.908 261.688ZM969.716 203.251L969.527 145.813L889.473 146.077L889.662 203.514L969.716 203.251ZM969.524 144.813L969.335 87.3685L889.28 87.6318L889.469 145.077L969.524 144.813ZM969.331 86.3685L969.142 28.9391L889.088 29.2024L889.277 86.6318L969.331 86.3685Z" fill="#5D52AA"/>
</svg>
