<svg width="597" height="561" viewBox="0 0 597 561" fill="none" xmlns="http://www.w3.org/2000/svg">
<path d="M230.715 47.4011C176.097 64.891 120.206 122.647 109.928 178.501C106.176 198.895 104.828 224.598 125.335 239.842C142.209 252.386 170.176 257.992 189.361 251.807C213.233 244.112 245.504 204.376 254.837 184.011C259.443 173.961 270.881 133.761 254.757 123.284C240.26 113.865 207.659 133.453 198.71 142.466C170.692 170.687 155.985 227.201 146.049 264.708C134.889 306.832 130.605 344.552 159.595 383.353C175.91 405.19 198.713 415.783 224.084 412.454C253.266 408.625 291.336 397.497 311.956 376.817C320.078 368.671 345.683 332.313 327.681 317.642C310.901 296.832 295.255 302.752 284.992 305.515C269.12 309.788 252.47 343.412 248.605 357.263C239.073 391.43 259.403 436.686 302.515 443.503C334.321 448.533 365.241 445.086 394.831 437.809C435.02 427.926 469.612 399.525 493.321 367.998C513.476 341.196 526.086 339.128 519.957 296.627" stroke="#01B0B3" stroke-width="42.7899" stroke-linecap="round"/>
<path d="M237.364 30.5577L238.679 62.3799L226.401 67.4001L205.044 43.7723L215.54 39.4808L219.277 43.8703L229.06 39.8703L228.65 34.1205L237.364 30.5577ZM229.496 46.0253L223.278 48.5678L230.399 57.1668L229.496 46.0253Z" fill="#FFF1F1"/>
<path d="M201.277 46.0329L212.439 64.2856L204.298 69.2638L200.414 62.9118L194.792 66.3496L198.676 72.7016L190.499 77.702L179.338 59.4493L187.515 54.4489L191.845 61.5309L197.467 58.0931L193.137 51.0111L201.277 46.0329Z" fill="#FFF1F1"/>
<path d="M179.219 68.5321C176.409 71.1693 176.319 72.5582 180.381 77.704L184.342 82.5399L167.01 97.7561L152.895 81.6781L160.098 75.3544L170.345 87.0271L174.944 82.9902L173.85 81.6153C166.998 73.2257 167.264 68.6646 171.573 64.8817C172.441 64.1194 173.426 63.4255 173.426 63.4255L179.219 68.5321Z" fill="#FFF1F1"/>
<path d="M143.383 92.0972C146.566 88.014 150.114 87.3614 153.049 89.6504C156.053 91.9921 156.521 95.7756 151.777 102.765L148.784 107.16L150.033 108.134C151.248 109.081 152.449 108.932 153.527 107.549C154.659 106.098 154.683 104.814 154.016 103.372L160.066 97.5624C161.822 100.668 162.02 104.729 157.047 111.107C151.811 117.822 147.54 118.29 143.862 115.422L134.852 108.397C133.873 107.634 133.082 107.397 132.211 107.261L138.21 99.5669C138.686 99.7213 139.178 99.9958 139.684 100.39C140.122 100.733 140.569 101.135 141.063 101.683C140.533 99.8586 140.225 96.1466 143.383 92.0972ZM148.082 98.0399C147.103 97.2769 145.868 97.3992 144.711 98.884C143.5 100.436 143.348 102.162 143.52 103.056L146.152 105.108L148.058 102.037C149.25 100.09 149.094 98.8292 148.082 98.0399Z" fill="#FFF1F1"/>
<path d="M128.67 112.854L147.767 122.501L143.464 131.018L136.819 127.661L133.848 133.543L140.493 136.9L136.172 145.455L117.075 135.809L121.396 127.253L128.806 130.996L131.777 125.114L124.367 121.372L128.67 112.854Z" fill="#FFF1F1"/>
<path d="M104.031 140.508L115.23 143.515L114.365 146.738C116.052 148.21 118.803 150.012 123.497 151.671L128.676 153.504L122.74 175.614L107.697 171.576L106.699 175.295L95.4993 172.288L97.7293 163.982L103.308 165.479L107.369 150.354L101.79 148.856L104.031 140.508ZM112.279 154.508L110.182 162.318L119.77 164.892L121.368 158.941L120.233 158.548C116.354 157.152 113.815 155.717 112.279 154.508Z" fill="#FFF1F1"/>
<path d="M95.2538 184.929L116.642 184.398L116.872 193.681L104.082 193.998L104.083 194.041L117.046 200.696L117.296 210.749L95.9074 211.279L95.6772 201.997L108.467 201.679L108.466 201.637L95.5032 194.981L95.2538 184.929Z" fill="#FFF1F1"/>
<path d="M110.262 228.812C109.389 226.48 109.571 223.61 111.946 221.647C115.046 219.085 119.383 219.497 123.2 224.114L133.695 236.813L117.203 250.443L111.152 243.121L116.561 238.65L114.462 236.11L106.899 237.975L100.221 229.894L110.262 228.812ZM117.745 229.067C116.656 229.967 116.564 231.265 117.736 232.683L120.189 235.651L123.751 232.707L121.298 229.739C120.126 228.321 118.833 228.167 117.745 229.067Z" fill="#FFF1F1"/>
<path d="M151.237 243.075L145.845 236.894L151.401 234.388L145.501 232.578L149.789 225.748L154.098 230.074L154.03 224.107L162.13 226.109L159.259 231.306L165.076 229.526L165.731 237.577L159.75 236.452L163.416 241.237L155.765 244.194L154.877 238.157L151.237 243.075Z" fill="#FFF1F1"/>
<path d="M188.609 264.102L187.609 232.269L199.937 227.371L221.058 251.209L210.52 255.396L206.827 250.97L197.005 254.873L197.357 260.626L188.609 264.102ZM196.63 248.714L202.873 246.233L195.837 237.564L196.63 248.714Z" fill="#FFF1F1"/>
<path d="M233.083 242.68L217.039 228.526L223.351 221.37L228.935 226.296L233.294 221.354L227.71 216.429L234.051 209.241L250.096 223.394L243.755 230.582L237.53 225.091L233.17 230.032L239.396 235.524L233.083 242.68Z" fill="#FFF1F1"/>
<path d="M247.21 214.381C249.027 210.983 248.668 209.639 243.173 206.064L237.873 202.75L249.423 182.787L267.942 193.501L263.142 201.797L249.697 194.019L246.633 199.315L248.108 200.268C257.286 206.023 258.494 210.429 255.622 215.392C255.044 216.392 254.333 217.365 254.333 217.365L247.21 214.381Z" fill="#FFF1F1"/>
<path d="M272.605 177.498C270.509 182.232 267.226 183.727 263.822 182.22C260.34 180.678 258.966 177.122 261.871 169.189L263.706 164.198L262.258 163.557C260.849 162.934 259.72 163.37 259.01 164.974C258.265 166.656 258.554 167.907 259.55 169.144L255.094 176.249C252.636 173.664 251.457 169.772 254.731 162.377C258.179 154.591 262.208 153.1 266.473 154.988L276.92 159.613C278.055 160.116 278.88 160.154 279.758 160.074L275.808 168.995C275.308 168.961 274.765 168.814 274.178 168.554C273.669 168.329 273.139 168.047 272.526 167.635C273.484 169.276 274.684 172.803 272.605 177.498ZM266.603 172.875C267.737 173.377 268.906 172.958 269.668 171.237C270.465 169.437 270.193 167.726 269.809 166.901L266.757 165.549L265.654 168.992C264.971 171.17 265.429 172.355 266.603 172.875Z" fill="#FFF1F1"/>
<path d="M275.132 135.52L258.176 148.568L252.356 141.005L258.257 136.465L254.238 131.242L248.338 135.783L242.492 128.187L259.448 115.139L265.293 122.735L258.715 127.798L262.733 133.02L269.312 127.957L275.132 135.52Z" fill="#FFF1F1"/>
<path d="M236.878 110.709L239.543 121.994L236.295 122.761C235.8 124.945 235.518 128.221 236.284 133.14L237.127 138.569L214.847 143.831L211.267 128.672L207.519 129.557L204.854 118.272L213.224 116.295L214.552 121.917L229.794 118.317L228.466 112.695L236.878 110.709ZM228.466 124.61L220.595 126.469L222.877 136.131L228.874 134.714L228.682 133.529C228.071 129.452 228.13 126.536 228.466 124.61Z" fill="#FFF1F1"/>
<path d="M195.722 134.446L210.979 149.446L204.469 156.067L195.345 147.097L195.315 147.127L199.549 161.071L192.499 168.241L177.243 153.241L183.753 146.62L192.876 155.59L192.906 155.56L188.672 141.616L195.722 134.446Z" fill="#FFF1F1"/>
<path d="M175.096 176.178C177.085 174.68 179.889 174.04 182.444 175.76C185.781 178.007 186.616 182.283 183.27 187.252L174.069 200.918L156.322 188.969L161.628 181.089L167.449 185.008L169.289 182.275L165.356 175.552L171.211 166.856L175.096 176.178ZM176.974 183.426C175.803 182.637 174.531 182.916 173.504 184.442L171.353 187.637L175.186 190.218L177.337 187.023C178.365 185.497 178.145 184.214 176.974 183.426Z" fill="#FFF1F1"/>
<path d="M137.8 251.158L158.326 257.193L155.634 266.348L148.491 264.247L146.632 270.569L153.775 272.67L151.071 281.865L130.545 275.83L133.249 266.634L141.213 268.976L143.072 262.654L135.108 260.312L137.8 251.158Z" fill="#FFF1F1"/>
<path d="M136.404 282.291C135.986 286.121 136.821 287.235 143.253 288.501L149.407 289.599L146.139 312.43L124.96 309.398L126.318 299.91L141.694 302.111L142.561 296.053L140.836 295.72C130.174 293.805 127.41 290.167 128.222 284.491C128.386 283.347 128.683 282.18 128.683 282.18L136.404 282.291Z" fill="#FFF1F1"/>
<path d="M124.798 324.307C124.327 319.151 126.468 316.249 130.176 315.91C133.968 315.564 136.898 318.004 138.218 326.348L139.041 331.601L140.618 331.457C142.152 331.317 142.927 330.387 142.767 328.64C142.6 326.807 141.74 325.855 140.267 325.259L140.706 316.883C144.111 317.947 147.033 320.774 147.769 328.828C148.543 337.308 145.747 340.571 141.102 340.995L129.724 342.033C128.489 342.146 127.749 342.514 127.021 343.01L126.134 333.295C126.587 333.081 127.133 332.946 127.772 332.887C128.326 332.837 128.927 332.825 129.663 332.887C128.028 331.919 125.265 329.421 124.798 324.307ZM132.291 325.428C131.055 325.541 130.238 326.475 130.409 328.35C130.588 330.31 131.658 331.673 132.394 332.208L135.718 331.904L135.007 328.36C134.546 326.125 133.569 325.311 132.291 325.428Z" fill="#FFF1F1"/>
<path d="M128.841 350.778L148.845 343.188L152.23 352.109L145.269 354.75L147.606 360.911L154.567 358.27L157.968 367.232L137.964 374.822L134.564 365.86L142.325 362.915L139.988 356.754L132.226 359.699L128.841 350.778Z" fill="#FFF1F1"/>
<path d="M139.272 384.722L148.204 377.327L150.332 379.898C152.509 379.373 155.57 378.172 159.639 375.303L164.13 372.139L178.73 389.772L166.733 399.706L169.19 402.672L160.258 410.067L154.773 403.443L159.222 399.759L149.234 387.696L144.785 391.38L139.272 384.722ZM155.463 386.094L160.621 392.323L168.267 385.992L164.337 381.246L163.36 381.944C159.978 384.3 157.338 385.541 155.463 386.094Z" fill="#FFF1F1"/>
<path d="M174.465 415.756L180.395 395.199L189.317 397.773L185.771 410.066L185.812 410.078L196.059 399.718L205.721 402.506L199.791 423.062L190.869 420.489L194.416 408.196L194.374 408.184L184.127 418.543L174.465 415.756Z" fill="#FFF1F1"/>
<path d="M214.769 414.798C212.341 414.245 210.043 412.516 209.709 409.453C209.273 405.454 212.002 402.058 217.957 401.408L234.334 399.622L236.654 420.891L227.21 421.921L226.449 414.945L223.174 415.302L220.574 422.645L210.153 423.781L214.769 414.798ZM219.095 408.688C219.248 410.091 220.282 410.883 222.111 410.683L225.939 410.266L225.438 405.672L221.61 406.089C219.781 406.288 218.942 407.284 219.095 408.688Z" fill="#FFF1F1"/>
<path d="M290.328 409.243L284.784 377.88L296.284 371.268L320.598 391.84L310.768 397.491L306.48 393.639L297.317 398.907L298.489 404.551L290.328 409.243ZM296.064 392.865L301.888 389.516L293.684 381.943L296.064 392.865Z" fill="#FFF1F1"/>
<path d="M323.478 383.285L306.266 370.578L311.933 362.901L317.923 367.323L321.837 362.022L315.847 357.6L321.54 349.888L338.752 362.596L333.059 370.307L326.381 365.376L322.467 370.678L329.146 375.608L323.478 383.285Z" fill="#FFF1F1"/>
<path d="M336.818 348.588C336.926 344.737 336.005 343.694 329.491 342.95L323.269 342.352L324.687 319.332L346.041 320.647L345.452 330.214L329.949 329.259L329.572 335.367L331.318 335.56C342.1 336.61 345.149 340.013 344.796 345.736C344.725 346.889 344.523 348.077 344.523 348.077L336.818 348.588Z" fill="#FFF1F1"/>
<path d="M318.891 296.277C324.068 296.219 326.79 298.586 326.831 302.308C326.873 306.116 324.207 308.842 315.785 309.491L310.483 309.892L310.5 311.475C310.517 313.016 311.382 313.862 313.137 313.842C314.977 313.822 315.995 313.041 316.707 311.62L325.021 312.727C323.688 316.037 320.637 318.723 312.55 318.813C304.035 318.907 301.006 315.859 300.954 311.196L300.828 299.771C300.814 298.531 300.506 297.764 300.07 296.998L309.825 296.89C310.002 297.359 310.093 297.914 310.101 298.556C310.107 299.112 310.071 299.712 309.95 300.441C311.046 298.888 313.756 296.333 318.891 296.277ZM317.175 303.656C317.161 302.415 316.296 301.526 314.413 301.547C312.445 301.569 311 302.526 310.409 303.217L310.446 306.555L314.036 306.13C316.301 305.848 317.189 304.94 317.175 303.656Z" fill="#FFF1F1"/>
<path d="M282.783 298.795L293.301 317.426L284.992 322.117L281.331 315.633L275.593 318.873L279.253 325.356L270.907 330.069L260.389 311.438L268.735 306.725L272.816 313.954L278.555 310.715L274.474 303.486L282.783 298.795Z" fill="#FFF1F1"/>
<path d="M245.198 322.089L255.786 326.819L254.424 329.866C255.859 331.585 258.292 333.797 262.667 336.174L267.493 338.799L258.154 359.7L243.933 353.346L242.362 356.862L231.775 352.132L235.284 344.279L240.558 346.636L246.946 332.337L241.672 329.98L245.198 322.089ZM251.142 337.211L247.843 344.595L256.907 348.645L259.421 343.019L258.362 342.452C254.751 340.464 252.469 338.647 251.142 337.211Z" fill="#FFF1F1"/>
<path d="M236.922 363.982L258.123 366.86L256.874 376.061L244.196 374.34L244.19 374.382L255.93 383.014L254.578 392.979L233.377 390.101L234.626 380.9L247.304 382.621L247.31 382.579L235.57 373.947L236.922 363.982Z" fill="#FFF1F1"/>
<path d="M250.356 408.106C250.09 405.63 250.978 402.895 253.766 401.583C257.405 399.87 261.505 401.346 264.055 406.767L271.071 421.672L251.712 430.783L247.667 422.188L254.017 419.2L252.614 416.218L244.825 416.148L240.361 406.662L250.356 408.106ZM257.542 410.21C256.264 410.812 255.852 412.046 256.636 413.711L258.276 417.195L262.457 415.227L260.817 411.743C260.034 410.078 258.82 409.609 257.542 410.21Z" fill="#FFF1F1"/>
<path d="M278.07 447.599L273.922 440.523L279.847 439.095L274.387 436.218L279.872 430.305L283.3 435.358L284.343 429.482L291.93 432.956L288.142 437.528L294.189 436.861L293.334 444.894L287.667 442.676L290.379 448.059L282.311 449.541L282.562 443.444L278.07 447.599Z" fill="#FFF1F1"/>
<path d="M304.019 463.617L313.935 433.351L327.194 432.95L338.919 462.563L327.585 462.905L325.623 457.485L315.059 457.804L313.428 463.332L304.019 463.617ZM316.807 451.886L323.522 451.683L319.864 441.134L316.807 451.886Z" fill="#FFF1F1"/>
<path d="M343.023 461.536L339.222 440.481L348.612 438.786L349.935 446.113L356.42 444.942L355.097 437.615L364.529 435.912L368.33 456.967L358.898 458.67L357.423 450.5L350.938 451.671L352.413 459.84L343.023 461.536Z" fill="#FFF1F1"/>
<path d="M370.526 448.749C374.237 447.71 374.96 446.521 373.74 440.08L372.466 433.96L394.871 428.489L399.946 449.274L390.634 451.547L386.95 436.458L381.006 437.909L381.339 439.634C383.533 450.242 381.186 454.162 375.616 455.523C374.494 455.797 373.299 455.956 373.299 455.956L370.526 448.749Z" fill="#FFF1F1"/>
<path d="M412.31 446.388C407.424 448.098 404.088 446.727 402.858 443.214C401.6 439.619 403.253 436.184 411.026 432.874L415.921 430.798L415.398 429.304C414.889 427.85 413.798 427.325 412.143 427.905C410.406 428.512 409.691 429.579 409.471 431.152L401.24 432.763C401.444 429.201 403.475 425.679 411.109 423.008C419.146 420.194 422.991 422.113 424.531 426.515L428.306 437.298C428.716 438.47 429.253 439.098 429.911 439.683L420.703 442.906C420.386 442.519 420.121 442.022 419.909 441.416C419.726 440.891 419.568 440.312 419.449 439.583C418.908 441.404 417.157 444.692 412.31 446.388ZM411.575 438.848C411.985 440.019 413.09 440.584 414.867 439.962C416.725 439.312 417.787 437.943 418.126 437.099L417.024 433.948L413.758 435.499C411.702 436.491 411.151 437.636 411.575 438.848Z" fill="#FFF1F1"/>
<path d="M435.557 437.146L425.025 418.523L433.331 413.825L436.996 420.306L442.732 417.062L439.067 410.582L447.41 405.863L457.942 424.487L449.599 429.205L445.513 421.979L439.777 425.223L443.863 432.449L435.557 437.146Z" fill="#FFF1F1"/>
<path d="M467.001 425.586L459.55 416.7L462.108 414.556C461.57 412.382 460.35 409.329 457.456 405.278L454.265 400.806L471.807 386.097L481.814 398.033L484.765 395.558L492.216 404.444L485.625 409.97L481.914 405.544L469.913 415.606L473.624 420.032L467.001 425.586ZM468.272 409.387L474.469 404.191L468.091 396.584L463.369 400.543L464.074 401.516C466.451 404.883 467.708 407.515 468.272 409.387Z" fill="#FFF1F1"/>
<path d="M492.03 396.161L475.966 382.03L482.099 375.058L491.705 383.509L491.733 383.477L486.734 369.789L493.376 362.239L509.44 376.371L503.307 383.342L493.7 374.892L493.672 374.924L498.671 388.611L492.03 396.161Z" fill="#FFF1F1"/>
<path d="M509.417 362.391C507.404 363.857 504.591 364.451 502.063 362.689C498.763 360.389 497.998 356.1 501.424 351.185L510.844 337.671L528.396 349.906L522.964 357.699L517.207 353.686L515.323 356.388L519.146 363.175L513.151 371.775L509.417 362.391ZM507.657 355.113C508.815 355.921 510.091 355.663 511.143 354.153L513.345 350.994L509.554 348.351L507.352 351.51C506.3 353.02 506.499 354.306 507.657 355.113Z" fill="#FFF1F1"/>
<path d="M530.795 323.001L523.672 327.07L522.311 321.13L519.373 326.557L513.522 321.006L518.612 317.635L512.749 316.526L516.308 308.979L520.837 312.818L520.238 306.764L528.261 307.708L525.979 313.35L531.392 310.699L532.784 318.783L526.69 318.464L530.795 323.001Z" fill="#FFF1F1"/>
</svg>
