<svg width="80" height="80" viewBox="0 0 80 80" fill="none" xmlns="http://www.w3.org/2000/svg">
<circle cx="40" cy="40" r="39.5" fill="#01B0B3" stroke="#464646"/>
<path d="M41.12 33.6766C46.62 38.967 47 39.3918 47 40.029C47 40.6661 46.62 41.0716 41.14 46.362C36.92 50.4167 35.16 52 34.84 52C34.22 52 33.28 51.5173 33.12 51.1311C33.06 50.9574 33 50.5326 33 50.2043C33 49.683 33.6 49.0265 37.94 44.8174L42.88 40.029L37.94 35.2405C33.32 30.7611 33 30.4135 33 29.757C33 28.8496 33.52 28.2703 34.46 28.1158L35.22 28L41.12 33.6766Z" fill="#FFD43B"/>
</svg>
