<svg width="80" height="80" viewBox="0 0 80 80" fill="none" xmlns="http://www.w3.org/2000/svg">
<circle cx="40" cy="40" r="39.5" fill="#01B0B3" stroke="#464646"/>
<path d="M38.88 33.6766C33.38 38.967 33 39.3918 33 40.029C33 40.6661 33.38 41.0716 38.86 46.362C43.08 50.4167 44.84 52 45.16 52C45.78 52 46.72 51.5173 46.88 51.1311C46.94 50.9574 47 50.5326 47 50.2043C47 49.683 46.4 49.0265 42.06 44.8174L37.12 40.029L42.06 35.2405C46.68 30.7611 47 30.4135 47 29.757C47 28.8496 46.48 28.2703 45.54 28.1158L44.78 28L38.88 33.6766Z" fill="#FFD43B"/>
</svg>
