<svg width="157" height="157" viewBox="0 0 157 157" fill="none" xmlns="http://www.w3.org/2000/svg">
<path d="M78.5 0L93.3316 23.1476L117.75 10.517L119.021 37.9792L146.483 39.25L133.852 63.6684L157 78.5L133.852 93.3316L146.483 117.75L119.021 119.021L117.75 146.483L93.3316 133.852L78.5 157L63.6684 133.852L39.25 146.483L37.9792 119.021L10.517 117.75L23.1476 93.3316L0 78.5L23.1476 63.6684L10.517 39.25L37.9792 37.9792L39.25 10.517L63.6684 23.1476L78.5 0Z" fill="#FECD1F"/>
<path d="M78.5 0.926796L92.9106 23.4174L93.1565 23.8011L93.5613 23.5917L117.287 11.3196L118.521 38.0024L118.542 38.4576L118.998 38.4787L145.68 39.7134L133.408 63.4387L133.199 63.8435L133.583 64.0894L156.073 78.5L133.583 92.9106L133.199 93.1565L133.408 93.5613L145.68 117.287L118.998 118.521L118.542 118.542L118.521 118.998L117.287 145.68L93.5613 133.408L93.1565 133.199L92.9106 133.583L78.5 156.073L64.0894 133.583L63.8435 133.199L63.4387 133.408L39.7134 145.68L38.4787 118.998L38.4576 118.542L38.0024 118.521L11.3196 117.287L23.5917 93.5613L23.8011 93.1565L23.4174 92.9106L0.926796 78.5L23.4174 64.0894L23.8011 63.8435L23.5917 63.4387L11.3196 39.7134L38.0024 38.4787L38.4576 38.4576L38.4787 38.0024L39.7134 11.3196L63.4387 23.5917L63.8435 23.8011L64.0894 23.4174L78.5 0.926796Z" stroke="#1B00E3" stroke-opacity="0.93"/>
<path d="M64.4167 79H93.5833" stroke="#1B00E3" stroke-width="6" stroke-linecap="round" stroke-linejoin="round"/>
<path d="M79 64.4165L93.5833 78.9998L79 93.5832" stroke="#1B00E3" stroke-width="6" stroke-linecap="round" stroke-linejoin="round"/>
</svg>
