<svg width="599" height="568" viewBox="0 0 599 568" fill="none" xmlns="http://www.w3.org/2000/svg">
<path d="M359.176 518.738C414.323 502.995 472.025 447.047 484.075 391.548C488.474 371.284 490.639 345.637 470.628 329.748C454.161 316.673 426.387 310.18 407.015 315.751C382.911 322.682 349.391 361.371 339.415 381.429C334.491 391.327 321.779 431.143 337.562 442.128C351.752 452.004 384.96 433.463 394.191 424.739C423.093 397.424 439.591 341.407 450.716 304.235C463.211 262.488 468.693 224.923 440.953 185.22C425.341 162.874 402.887 151.561 377.422 154.081C348.134 156.979 309.729 166.89 288.461 186.903C280.083 194.787 253.334 230.311 270.86 245.547C286.97 266.881 302.796 261.462 313.142 259.027C329.142 255.261 346.854 222.185 351.157 208.463C361.772 174.617 342.893 128.737 300.02 120.551C268.389 114.512 237.376 116.973 207.569 123.304C167.086 131.903 131.607 159.188 106.907 189.945C85.9097 216.092 73.2397 217.758 78.0126 260.432" stroke="#FF65C7" stroke-width="42.7899" stroke-linecap="round"/>
<path d="M351.994 535.362L351.692 503.514L364.124 498.888L384.717 523.183L374.09 527.138L370.495 522.632L360.59 526.319L360.816 532.079L351.994 535.362ZM360.35 520.153L366.646 517.81L359.802 508.988L360.35 520.153Z" fill="#FFF8F8"/>
<path d="M388.554 521.043L377.979 502.445L386.274 497.728L389.954 504.2L395.683 500.943L392.002 494.471L400.335 489.733L410.91 508.332L402.578 513.07L398.474 505.853L392.746 509.11L396.849 516.327L388.554 521.043Z" fill="#FFF8F8"/>
<path d="M411.318 499.258C414.21 496.711 414.344 495.326 410.448 490.054L406.643 485.094L424.451 470.437L438.047 486.956L430.646 493.048L420.775 481.055L416.051 484.943L417.1 486.352C423.682 494.956 423.271 499.506 418.844 503.15C417.952 503.884 416.945 504.546 416.945 504.546L411.318 499.258Z" fill="#FFF8F8"/>
<path d="M447.886 476.845C444.574 480.825 441.008 481.365 438.146 478.983C435.219 476.547 434.871 472.751 439.836 465.915L442.967 461.618L441.75 460.605C440.566 459.62 439.361 459.73 438.238 461.079C437.061 462.493 436.997 463.775 437.617 465.238L431.386 470.852C429.729 467.692 429.661 463.627 434.834 457.41C440.281 450.865 444.565 450.534 448.15 453.517L456.932 460.825C457.885 461.619 458.669 461.881 459.535 462.045L453.294 469.544C452.823 469.375 452.341 469.085 451.847 468.674C451.42 468.318 450.986 467.902 450.509 467.338C450.982 469.179 451.171 472.899 447.886 476.845ZM443.379 470.756C444.332 471.55 445.57 471.467 446.775 470.02C448.034 468.507 448.241 466.786 448.098 465.888L445.532 463.753L443.529 466.762C442.276 468.67 442.392 469.935 443.379 470.756Z" fill="#FFF8F8"/>
<path d="M463.253 456.566L444.473 446.317L449.044 437.941L455.58 441.507L458.737 435.723L452.201 432.156L456.793 423.743L475.573 433.992L470.981 442.405L463.695 438.429L460.538 444.213L467.825 448.19L463.253 456.566Z" fill="#FFF8F8"/>
<path d="M488.76 429.709L477.662 426.348L478.629 423.154C476.99 421.629 474.298 419.74 469.659 417.933L464.541 415.936L471.178 394.026L486.084 398.541L487.201 394.855L498.299 398.217L495.806 406.448L490.277 404.774L485.737 419.762L491.266 421.437L488.76 429.709ZM480.961 415.454L483.306 407.714L473.805 404.837L472.019 410.734L473.14 411.163C476.973 412.681 479.465 414.196 480.961 415.454Z" fill="#FFF8F8"/>
<path d="M498.946 385.591L477.552 385.441L477.617 376.156L490.411 376.246L490.411 376.203L477.666 369.138L477.737 359.083L499.132 359.233L499.066 368.519L486.272 368.429L486.272 368.471L499.017 375.536L498.946 385.591Z" fill="#FFF8F8"/>
<path d="M485.342 341.253C486.14 343.611 485.868 346.474 483.431 348.36C480.251 350.823 475.929 350.273 472.261 345.536L462.176 332.51L479.093 319.412L484.908 326.923L479.36 331.219L481.377 333.824L488.995 332.201L495.413 340.49L485.342 341.253ZM477.871 340.76C478.988 339.895 479.122 338.601 477.996 337.146L475.638 334.101L471.984 336.93L474.341 339.975C475.468 341.43 476.755 341.624 477.871 340.76Z" fill="#FFF8F8"/>
<path d="M444.841 325.691L450.034 332.041L444.402 334.369L450.241 336.366L445.737 343.056L441.569 338.595L441.447 344.561L433.414 342.303L436.449 337.2L430.578 338.794L430.18 330.726L436.122 332.041L432.61 327.142L440.351 324.429L441.047 330.492L444.841 325.691Z" fill="#FFF8F8"/>
<path d="M408.158 303.486L408.144 335.335L395.667 339.839L375.315 315.34L385.981 311.491L389.531 316.032L399.473 312.444L399.304 306.682L408.158 303.486ZM399.652 318.612L393.333 320.893L400.089 329.781L399.652 318.612Z" fill="#FFF8F8"/>
<path d="M363.024 323.483L378.61 338.14L372.073 345.091L366.649 339.99L362.135 344.791L367.559 349.891L360.993 356.874L345.407 342.217L351.973 335.234L358.02 340.921L362.535 336.121L356.487 330.434L363.024 323.483Z" fill="#FFF8F8"/>
<path d="M348.004 351.317C346.079 354.655 346.395 356.011 351.774 359.759L356.966 363.24L344.787 382.825L326.618 371.527L331.68 363.388L344.87 371.59L348.102 366.394L346.657 365.395C337.667 359.351 336.6 354.908 339.628 350.039C340.238 349.058 340.98 348.108 340.98 348.108L348.004 351.317Z" fill="#FFF8F8"/>
<path d="M321.449 387.374C323.694 382.708 327.023 381.319 330.377 382.934C333.808 384.585 335.068 388.184 331.913 396.02L329.92 400.95L331.347 401.636C332.735 402.305 333.877 401.905 334.638 400.324C335.436 398.666 335.187 397.407 334.231 396.139L338.911 389.179C341.286 391.842 342.34 395.768 338.832 403.055C335.138 410.728 331.063 412.09 326.861 410.067L316.567 405.112C315.448 404.573 314.624 404.509 313.745 404.561L317.977 395.77C318.475 395.82 319.013 395.984 319.592 396.263C320.093 396.504 320.614 396.802 321.214 397.233C320.308 395.563 319.221 392 321.449 387.374ZM327.301 392.185C326.183 391.647 325.002 392.028 324.185 393.725C323.331 395.498 323.548 397.218 323.905 398.054L326.913 399.502L328.125 396.096C328.877 393.942 328.457 392.742 327.301 392.185Z" fill="#FFF8F8"/>
<path d="M317.586 429.251L334.948 416.75L340.524 424.493L334.482 428.844L338.332 434.191L344.374 429.841L349.975 437.619L332.613 450.121L327.012 442.342L333.749 437.492L329.898 432.144L323.161 436.995L317.586 429.251Z" fill="#FFF8F8"/>
<path d="M355.03 455.267L352.725 443.902L355.996 443.239C356.561 441.072 356.946 437.807 356.337 432.866L355.668 427.413L378.104 422.863L381.2 438.127L384.974 437.362L387.279 448.727L378.85 450.436L377.701 444.775L362.353 447.888L363.501 453.549L355.03 455.267ZM363.88 441.64L371.806 440.033L369.833 430.303L363.794 431.528L363.948 432.719C364.429 436.813 364.278 439.726 363.88 441.64Z" fill="#FFF8F8"/>
<path d="M396.922 432.851L382.15 417.373L388.868 410.962L397.701 420.218L397.732 420.189L393.944 406.118L401.219 399.175L415.99 414.653L409.273 421.064L400.44 411.808L400.409 411.837L404.196 425.908L396.922 432.851Z" fill="#FFF8F8"/>
<path d="M418.866 391.796C416.83 393.23 414.007 393.781 411.508 391.98C408.245 389.628 407.546 385.327 411.048 380.467L420.679 367.102L438.037 379.609L432.484 387.316L426.791 383.214L424.864 385.887L428.581 392.732L422.453 401.237L418.866 391.796ZM417.22 384.492C418.365 385.318 419.645 385.079 420.72 383.586L422.972 380.462L419.222 377.76L416.971 380.885C415.895 382.378 416.074 383.667 417.22 384.492Z" fill="#FFF8F8"/>
<path d="M458.529 318.042L438.206 311.356L441.188 302.291L448.26 304.618L450.32 298.358L443.247 296.032L446.242 286.927L466.566 293.613L463.57 302.718L455.685 300.123L453.626 306.383L461.511 308.977L458.529 318.042Z" fill="#FFF8F8"/>
<path d="M460.915 286.969C461.455 283.154 460.656 282.014 454.268 280.543L448.152 279.251L452.145 256.536L473.217 260.24L471.557 269.68L456.259 266.991L455.2 273.017L456.913 273.405C467.508 275.659 470.156 279.383 469.163 285.03C468.963 286.168 468.629 287.326 468.629 287.326L460.915 286.969Z" fill="#FFF8F8"/>
<path d="M473.853 245.342C474.159 250.511 471.927 253.344 468.211 253.564C464.409 253.789 461.559 251.258 460.505 242.876L459.849 237.599L458.268 237.693C456.731 237.784 455.927 238.689 456.031 240.441C456.14 242.277 456.969 243.257 458.422 243.899L457.717 252.257C454.347 251.085 451.516 248.167 451.038 240.093C450.534 231.593 453.432 228.421 458.088 228.145L469.493 227.469C470.732 227.396 471.483 227.051 472.227 226.578L472.804 236.317C472.344 236.516 471.794 236.634 471.153 236.672C470.598 236.705 469.997 236.698 469.264 236.613C470.867 237.632 473.549 240.217 473.853 245.342ZM466.4 243.984C467.639 243.91 468.485 243.003 468.374 241.124C468.257 239.159 467.231 237.762 466.512 237.205L463.181 237.402L463.778 240.967C464.168 243.216 465.118 244.06 466.4 243.984Z" fill="#FFF8F8"/>
<path d="M470.654 218.758L450.419 225.707L447.32 216.682L454.361 214.264L452.221 208.032L445.179 210.45L442.066 201.385L462.301 194.435L465.414 203.501L457.563 206.197L459.703 212.429L467.555 209.733L470.654 218.758Z" fill="#FFF8F8"/>
<path d="M461.309 184.498L452.146 191.605L450.1 188.968C447.908 189.423 444.811 190.526 440.653 193.264L436.063 196.283L422.031 178.195L434.338 168.648L431.978 165.605L441.14 158.498L446.412 165.293L441.848 168.834L451.447 181.209L456.011 177.668L461.309 184.498ZM445.17 182.612L440.213 176.221L432.369 182.306L436.146 187.175L437.145 186.508C440.6 184.261 443.278 183.105 445.17 182.612Z" fill="#FFF8F8"/>
<path d="M427.121 152.359L420.54 172.716L411.704 169.86L415.64 157.686L415.6 157.673L405.027 167.701L395.459 164.608L402.041 144.25L410.876 147.107L406.94 159.281L406.981 159.294L417.553 149.265L427.121 152.359Z" fill="#FFF8F8"/>
<path d="M386.808 152.035C389.217 152.665 391.458 154.466 391.695 157.538C392.003 161.549 389.168 164.857 383.195 165.316L366.769 166.58L365.128 145.248L374.599 144.519L375.138 151.516L378.423 151.264L381.255 144.007L391.707 143.203L386.808 152.035ZM382.289 158.004C382.18 156.597 381.173 155.773 379.338 155.914L375.499 156.209L375.853 160.817L379.693 160.522C381.527 160.38 382.397 159.412 382.289 158.004Z" fill="#FFF8F8"/>
<path d="M311.11 155.182L315.653 186.706L303.949 192.948L280.301 171.613L290.307 166.277L294.47 170.264L303.796 165.29L302.804 159.612L311.11 155.182ZM304.855 171.369L298.927 174.53L306.886 182.361L304.855 171.369Z" fill="#FFF8F8"/>
<path d="M277.15 180.072L293.95 193.32L288.041 200.813L282.195 196.202L278.114 201.377L283.96 205.987L278.025 213.513L261.226 200.265L267.161 192.739L273.679 197.879L277.76 192.705L271.242 187.564L277.15 180.072Z" fill="#FFF8F8"/>
<path d="M262.713 214.326C262.482 218.172 263.37 219.244 269.857 220.195L276.057 220.99L273.907 243.954L252.605 241.959L253.499 232.416L268.964 233.864L269.534 227.772L267.795 227.523C257.052 226.13 254.114 222.632 254.648 216.923C254.756 215.773 254.995 214.592 254.995 214.592L262.713 214.326Z" fill="#FFF8F8"/>
<path d="M278.966 267.182C273.79 267.074 271.145 264.622 271.222 260.901C271.301 257.093 274.052 254.454 282.492 254.073L287.804 253.841L287.836 252.258C287.868 250.718 287.031 249.844 285.277 249.808C283.437 249.77 282.394 250.519 281.638 251.915L273.363 250.545C274.801 247.279 277.936 244.691 286.021 244.859C294.535 245.036 297.465 248.178 297.369 252.841L297.131 264.264C297.105 265.504 297.389 266.281 297.801 267.06L288.047 266.857C287.885 266.383 287.811 265.825 287.825 265.183C287.836 264.627 287.891 264.029 288.035 263.304C286.891 264.821 284.1 267.288 278.966 267.182ZM280.916 259.861C280.89 261.101 281.727 262.018 283.61 262.057C285.578 262.098 287.052 261.187 287.665 260.515L287.734 257.178L284.133 257.488C281.86 257.698 280.943 258.577 280.916 259.861Z" fill="#FFF8F8"/>
<path d="M315.136 265.814L305.216 246.857L313.671 242.433L317.123 249.03L322.961 245.975L319.509 239.378L328.002 234.934L337.922 253.89L329.429 258.334L325.58 250.979L319.742 254.034L323.591 261.389L315.136 265.814Z" fill="#FFF8F8"/>
<path d="M353.443 243.728L343.012 238.663L344.469 235.66C343.09 233.897 340.729 231.609 336.432 229.094L331.692 226.317L341.691 205.723L355.702 212.527L357.384 209.062L367.816 214.127L364.059 221.864L358.863 219.341L352.022 233.429L357.218 235.952L353.443 243.728ZM347.983 228.424L351.516 221.149L342.585 216.813L339.894 222.356L340.934 222.956C344.48 225.058 346.703 226.946 347.983 228.424Z" fill="#FFF8F8"/>
<path d="M363.048 202.119L341.95 198.569L343.491 189.412L356.108 191.535L356.115 191.493L344.656 182.492L346.324 172.576L367.423 176.126L365.882 185.283L353.265 183.16L353.258 183.202L364.717 192.203L363.048 202.119Z" fill="#FFF8F8"/>
<path d="M351.025 157.59C351.213 160.073 350.238 162.779 347.41 164.001C343.718 165.597 339.668 163.992 337.29 158.493L330.753 143.372L350.392 134.882L354.161 143.601L347.72 146.386L349.027 149.41L356.81 149.728L360.97 159.351L351.025 157.59ZM343.91 155.258C345.206 154.698 345.658 153.477 344.927 151.789L343.399 148.254L339.157 150.087L340.686 153.622C341.416 155.311 342.614 155.819 343.91 155.258Z" fill="#FFF8F8"/>
<path d="M324.582 117.234L328.503 124.44L322.536 125.678L327.901 128.728L322.231 134.463L318.966 129.304L317.736 135.143L310.264 131.429L314.195 126.98L308.13 127.454L309.24 119.453L314.834 121.85L312.295 116.383L320.405 115.159L319.961 121.245L324.582 117.234Z" fill="#FFF8F8"/>
<path d="M299.157 100.4L288.282 130.335L275.017 130.313L264.24 100.342L275.58 100.361L277.368 105.841L287.937 105.858L289.743 100.384L299.157 100.4ZM286.002 111.717L279.284 111.706L282.604 122.367L286.002 111.717Z" fill="#FFF8F8"/>
<path d="M260.106 101.238L263.235 122.403L253.796 123.799L252.707 116.433L246.188 117.397L247.277 124.763L237.795 126.164L234.666 105L244.148 103.598L245.362 111.81L251.881 110.846L250.667 102.634L260.106 101.238Z" fill="#FFF8F8"/>
<path d="M232.21 113.144C228.468 114.063 227.708 115.229 228.722 121.706L229.801 127.863L207.232 132.618L202.822 111.682L212.201 109.706L215.403 124.906L221.39 123.644L221.113 121.91C219.258 111.237 221.728 107.393 227.338 106.211C228.469 105.973 229.668 105.852 229.668 105.852L232.21 113.144Z" fill="#FFF8F8"/>
<path d="M190.372 114.173C195.311 112.619 198.601 114.096 199.719 117.647C200.862 121.28 199.099 124.66 191.225 127.721L186.267 129.64L186.742 131.15C187.205 132.62 188.278 133.179 189.951 132.653C191.706 132.1 192.455 131.058 192.725 129.492L201.003 128.143C200.686 131.697 198.543 135.153 190.829 137.58C182.706 140.136 178.924 138.096 177.524 133.647L174.095 122.749C173.723 121.565 173.206 120.921 172.566 120.314L181.873 117.386C182.177 117.784 182.426 118.289 182.618 118.901C182.785 119.431 182.924 120.016 183.02 120.748C183.619 118.945 185.474 115.715 190.372 114.173ZM190.866 121.733C190.494 120.55 189.408 119.949 187.612 120.514C185.734 121.105 184.629 122.44 184.263 123.273L185.265 126.457L188.578 125.01C190.664 124.085 191.252 122.958 190.866 121.733Z" fill="#FFF8F8"/>
<path d="M166.842 122.671L176.776 141.62L168.325 146.05L164.868 139.456L159.032 142.516L162.489 149.11L153.999 153.56L144.066 134.611L152.555 130.161L156.409 137.513L162.245 134.453L158.391 127.101L166.842 122.671Z" fill="#FFF8F8"/>
<path d="M135.047 133.224L142.211 142.343L139.586 144.405C140.055 146.594 141.177 149.685 143.941 153.826L146.988 158.397L128.986 172.54L119.364 160.292L116.336 162.671L109.172 153.553L115.935 148.239L119.504 152.782L131.819 143.107L128.25 138.564L135.047 133.224ZM133.26 149.374L126.901 154.371L133.034 162.177L137.879 158.37L137.206 157.375C134.938 153.934 133.765 151.263 133.26 149.374Z" fill="#FFF8F8"/>
<path d="M109.094 161.838L124.7 176.473L118.348 183.246L109.016 174.494L108.987 174.525L113.548 188.365L106.669 195.7L91.0632 181.064L97.4151 174.291L106.747 183.043L106.777 183.012L102.216 169.172L109.094 161.838Z" fill="#FFF8F8"/>
<path d="M90.6406 195.037C92.699 193.636 95.5302 193.131 98.0003 194.973C101.225 197.377 101.854 201.688 98.2733 206.491L88.4271 219.699L71.274 206.912L76.9515 199.296L82.5777 203.49L84.547 200.848L80.9411 193.944L87.2069 185.539L90.6406 195.037ZM92.168 202.367C91.0359 201.523 89.7528 201.74 88.6531 203.216L86.3514 206.303L90.0565 209.065L92.3582 205.978C93.4579 204.503 93.3001 203.211 92.168 202.367Z" fill="#FFF8F8"/>
<path d="M68.0183 233.727L75.2668 229.887L76.4388 235.868L79.5477 230.537L85.2192 236.271L80.0239 239.479L85.8493 240.774L82.0521 248.204L77.6474 244.223L78.0531 250.293L70.0645 249.093L72.5248 243.527L67.0298 246.005L65.8957 237.88L71.9768 238.393L68.0183 233.727Z" fill="#FFF8F8"/>
</svg>
