<svg width="57" height="58" viewBox="0 0 57 58" fill="none" xmlns="http://www.w3.org/2000/svg">
<circle cx="20" cy="20" r="20" transform="matrix(0.707107 -0.707107 -0.707107 -0.707107 28.2842 57.1367)" fill="#FF65C7"/>
<path d="M19.0918 30.5845C18.2634 30.5845 17.5918 29.9129 17.5918 29.0845C17.5918 28.256 18.2634 27.5845 19.0918 27.5845V30.5845ZM39.0086 28.0238C39.5944 28.6096 39.5944 29.5593 39.0086 30.1451L29.4627 39.6911C28.8769 40.2769 27.9272 40.2769 27.3414 39.6911C26.7556 39.1053 26.7556 38.1555 27.3414 37.5698L35.8267 29.0845L27.3414 20.5992C26.7556 20.0134 26.7556 19.0637 27.3414 18.4779C27.9272 17.8921 28.8769 17.8921 29.4627 18.4779L39.0086 28.0238ZM19.0918 27.5845H37.948V30.5845H19.0918V27.5845Z" fill="white"/>
</svg>
