<svg width="1109" height="196" viewBox="0 0 1109 196" fill="none" xmlns="http://www.w3.org/2000/svg">
<path fill-rule="evenodd" clip-rule="evenodd" d="M0 20.0003C0 8.95461 8.95432 0.000305176 20 0.000305176H1089C1100.05 0.000305176 1109 8.95462 1109 20.0003V51.273C1109 62.3187 1100.05 71.273 1089 71.273H1022C1010.95 71.273 1002 80.2273 1002 91.273V113.637C1002 124.682 993.046 133.637 982 133.637H875C863.954 133.637 855 142.591 855 153.637V176C855 187.046 846.046 196 835 196H274C262.954 196 254 187.046 254 176V153.637C254 142.591 245.046 133.637 234 133.637H127C115.954 133.637 107 124.682 107 113.637V91.273C107 80.2273 98.0457 71.273 87 71.273H20C8.95431 71.273 0 62.3187 0 51.273V20.0003Z" fill="#FF65C7"/>
<path d="M299.69 167.65C286.69 167.65 279.34 161.1 279.34 149.6C279.34 137.9 286.59 131.35 299.69 131.35C312.79 131.35 320.04 137.9 320.04 148.9C320.04 161.05 312.69 167.65 299.69 167.65ZM292.89 149.45C292.89 157.05 295.84 160 299.69 160C303.54 160 306.49 157.05 306.49 149C306.49 141.6 303.59 138.75 299.69 138.75C295.79 138.75 292.89 141.6 292.89 149.45ZM323.653 167V132H358.303V139.95H335.853V144.9H347.603C356.753 144.9 361.353 149.6 361.353 155.7C361.353 162.2 356.653 167 347.603 167H323.653ZM335.853 159.7H344.053C347.003 159.7 348.553 158.1 348.553 155.6C348.553 153.4 347.053 151.9 344.053 151.9H335.853V159.7ZM370.312 167.25C369.112 167.25 367.912 167.2 367.062 167.15L365.512 157.9H366.412C370.512 157.9 372.012 157.6 372.762 157.3L360.162 132H373.812L381.462 150.15L388.662 132H400.362L389.562 154.9C385.412 163.6 381.012 167.3 370.312 167.25ZM425.47 153.5C423.47 153.7 420.57 154 417.47 154C405.87 154 401.47 149.8 401.47 141.7V132H413.82V140.9C413.82 144.4 415.37 146.1 420.27 146.1C422.22 146.1 424.17 145.85 425.47 145.7V132H437.77V167H425.47V153.5ZM442.452 167V132H474.902V139.8H454.752V145.15H471.152V152.55H454.752V159.2H474.902V167H442.452ZM478.975 167V132H491.275V144.8H503.725V132H516.075V167H503.725V152.6H491.275V167H478.975ZM520.772 167V132H532.922V153.95H532.972L545.772 132H558.972V167H546.822V145.05H546.772L534.022 167H520.772ZM570.092 151.5C566.192 150.3 562.992 147.45 562.992 142.55C562.992 136.55 567.342 132 576.592 132H600.592V167H588.392V153.8H581.542L575.492 167H561.692L570.092 151.5ZM575.692 142.9C575.692 145.15 577.142 146.65 579.992 146.65H588.392V139.3H579.992C577.142 139.3 575.692 140.7 575.692 142.9ZM617.315 174V158.9H622.215C623.665 155.3 625.365 149.5 626.065 140.3L626.565 132H659.415V158.9H664.465V174H653.165V167H628.565V174H617.315ZM633.165 159.05H647.115V139.9H636.465L636.315 142C635.715 149.95 634.415 155.5 633.165 159.05ZM667.5 167V132H699.95V139.8H679.8V145.15H696.2V152.55H679.8V159.2H699.95V167H667.5ZM714.468 167V140.25H702.918V132H738.468V140.25H726.968V167H714.468ZM741.817 167V132H774.267V139.8H754.117V145.15H770.517V152.55H754.117V159.2H774.267V167H741.817ZM778.34 167V132H790.49V153.95H790.54L803.34 132H816.54V167H804.39V145.05H804.34L791.59 167H778.34ZM783.74 122.25H793.34C793.94 124.4 795.19 125.5 797.49 125.5C799.79 125.5 800.99 124.4 801.44 122.25H811.09C809.94 126.2 806.59 129.5 797.49 129.5C788.44 129.5 784.89 126.2 783.74 122.25Z" fill="white"/>
<path d="M31.7768 60.0003V25.0003H49.5268L57.3768 43.6003H57.4268L65.3768 25.0003H82.4268V60.0003H70.1768V35.0503H70.1268L59.4268 60.0003H51.9768L41.5768 35.0503H41.5268V60.0003H31.7768ZM87.1479 60.0003V25.0003H119.598V32.8003H99.4479V38.1503H115.848V45.5503H99.4479V52.2003H119.598V60.0003H87.1479ZM123.671 60.0003V25.0003H135.971V37.8003H148.421V25.0003H160.771V60.0003H148.421V45.6003H135.971V60.0003H123.671ZM171.868 44.5003C167.968 43.3003 164.768 40.4503 164.768 35.5503C164.768 29.5503 169.118 25.0003 178.368 25.0003H202.368V60.0003H190.168V46.8003H183.318L177.268 60.0003H163.468L171.868 44.5003ZM177.468 35.9003C177.468 38.1503 178.918 39.6503 181.768 39.6503H190.168V32.3003H181.768C178.918 32.3003 177.468 33.7003 177.468 35.9003ZM237.592 60.6503C224.592 60.6503 220.192 56.4503 218.942 51.4503L229.642 48.8003C230.592 51.4503 232.392 53.1503 236.842 53.1503C241.342 53.1503 242.942 51.3003 242.942 48.9003C242.942 46.7003 241.492 45.2003 237.092 45.2003H230.742V38.1503H236.942C240.442 38.1503 241.742 36.7503 241.742 34.6503C241.742 32.6003 240.342 31.1503 236.542 31.1503C232.492 31.1503 231.042 32.6503 230.492 35.1503L220.392 34.0003C221.292 28.9003 225.642 24.3503 237.992 24.3503C250.392 24.3503 254.742 29.0003 254.742 34.1003C254.742 37.9503 252.442 40.5503 248.992 41.8003C252.942 42.9003 255.992 45.5003 255.992 50.0003C255.992 55.5503 251.192 60.6503 237.592 60.6503ZM278.615 60.6503C265.615 60.6503 258.265 54.1003 258.265 42.6003C258.265 30.9003 265.515 24.3503 278.615 24.3503C291.715 24.3503 298.965 30.9003 298.965 41.9003C298.965 54.0503 291.615 60.6503 278.615 60.6503ZM271.815 42.4503C271.815 50.0503 274.765 53.0003 278.615 53.0003C282.465 53.0003 285.415 50.0503 285.415 42.0003C285.415 34.6003 282.515 31.7503 278.615 31.7503C274.715 31.7503 271.815 34.6003 271.815 42.4503ZM302.578 60.0003V25.0003H326.528C335.028 25.0003 339.028 29.0503 339.028 34.2003C339.028 38.1003 336.678 40.6003 333.328 41.7503C337.078 42.8503 340.128 45.5003 340.128 50.3503C340.128 55.9003 336.178 60.0003 327.628 60.0003H302.578ZM314.678 52.9503H323.678C326.328 52.9503 327.878 51.4503 327.878 49.0503C327.878 46.8003 326.328 45.3003 323.678 45.3003H314.678V52.9503ZM314.678 38.6003H323.128C325.528 38.6003 326.928 37.3003 326.928 35.1503C326.928 33.1503 325.528 31.8003 323.128 31.8003H314.678V38.6003ZM349.334 60.2503C348.134 60.2503 346.934 60.2003 346.084 60.1503L344.534 50.9003H345.434C349.534 50.9003 351.034 50.6003 351.784 50.3003L339.184 25.0003H352.834L360.484 43.1503L367.684 25.0003H379.384L368.584 47.9003C364.434 56.6003 360.034 60.3003 349.334 60.2503ZM391.342 60.0003V33.2503H379.792V25.0003H415.342V33.2503H403.842V60.0003H391.342ZM438.763 44.5003C434.863 43.3003 431.663 40.4503 431.663 35.5503C431.663 29.5503 436.013 25.0003 445.263 25.0003H469.263V60.0003H457.063V46.8003H450.213L444.163 60.0003H430.363L438.763 44.5003ZM444.363 35.9003C444.363 38.1503 445.813 39.6503 448.663 39.6503H457.063V32.3003H448.663C445.813 32.3003 444.363 33.7003 444.363 35.9003ZM473.964 60.0003V25.0003H486.264V37.8003H498.714V25.0003H511.064V60.0003H498.714V45.6003H486.264V60.0003H473.964ZM513.011 60.0003L525.661 25.0003H541.161L553.811 60.0003H540.561L538.461 53.6003H526.111L524.011 60.0003H513.011ZM528.361 46.7503H536.211L532.311 34.3003L528.361 46.7503ZM569.374 60.0003V25.0003H587.124L594.974 43.6003H595.024L602.974 25.0003H620.024V60.0003H607.774V35.0503H607.724L597.024 60.0003H589.574L579.174 35.0503H579.124V60.0003H569.374ZM624.746 60.0003V25.0003H636.896V46.9503H636.946L649.746 25.0003H662.946V60.0003H650.796V38.0503H650.746L637.996 60.0003H624.746ZM665.115 60.0003L677.815 42.0503L665.915 25.0003H680.465L687.215 36.2503L693.965 25.0003H706.015L694.115 42.1003L706.815 60.0003H691.665L684.615 47.9503L677.165 60.0003H665.115ZM705.492 60.0003L718.142 25.0003H733.642L746.292 60.0003H733.042L730.942 53.6003H718.592L716.492 60.0003H705.492ZM720.842 46.7503H728.692L724.792 34.3003L720.842 46.7503ZM748.183 60.0003V25.0003H760.333V46.9503H760.383L773.183 25.0003H786.383V60.0003H774.233V38.0503H774.183L761.433 60.0003H748.183ZM753.583 15.2503H763.183C763.783 17.4003 765.033 18.5003 767.333 18.5003C769.633 18.5003 770.833 17.4003 771.283 15.2503H780.933C779.783 19.2003 776.433 22.5003 767.333 22.5003C758.283 22.5003 754.733 19.2003 753.583 15.2503ZM789.453 50.2503C795.203 49.8503 796.903 48.1503 797.403 37.5503L797.903 25.0003H831.103V60.0003H818.803V33.0503H808.003L807.803 38.6503C807.153 55.7503 802.503 60.2503 792.053 60.2503H791.253L789.453 50.2503ZM855.031 60.6503C842.031 60.6503 834.681 54.1003 834.681 42.6003C834.681 30.9003 841.931 24.3503 855.031 24.3503C868.131 24.3503 875.381 30.9003 875.381 41.9003C875.381 54.0503 868.031 60.6503 855.031 60.6503ZM848.231 42.4503C848.231 50.0503 851.181 53.0003 855.031 53.0003C858.881 53.0003 861.831 50.0503 861.831 42.0003C861.831 34.6003 858.931 31.7503 855.031 31.7503C851.131 31.7503 848.231 34.6003 848.231 42.4503ZM878.994 60.0003V25.0003H902.944C911.444 25.0003 915.444 29.0503 915.444 34.2003C915.444 38.1003 913.094 40.6003 909.744 41.7503C913.494 42.8503 916.544 45.5003 916.544 50.3503C916.544 55.9003 912.594 60.0003 904.044 60.0003H878.994ZM891.094 52.9503H900.094C902.744 52.9503 904.294 51.4503 904.294 49.0503C904.294 46.8003 902.744 45.3003 900.094 45.3003H891.094V52.9503ZM891.094 38.6003H899.544C901.944 38.6003 903.344 37.3003 903.344 35.1503C903.344 33.1503 901.944 31.8003 899.544 31.8003H891.094V38.6003ZM939.013 60.6503C925.963 60.6503 918.763 54.1503 918.763 42.4003C918.763 30.8503 925.963 24.3503 939.363 24.3503C949.613 24.3503 954.763 28.7503 955.763 35.1503L944.513 36.1003C944.013 32.9503 942.463 31.4003 939.663 31.4003C935.963 31.4003 932.963 34.3503 932.963 42.0003C932.963 49.5503 936.063 52.6503 940.013 52.6503C943.313 52.6503 945.113 51.0003 946.313 47.2503L956.813 50.2503C955.013 55.9503 949.813 60.6503 939.013 60.6503ZM959.658 60.0003V25.0003H972.058V32.7003C972.058 34.8003 971.958 37.4003 971.858 39.6503L983.808 25.0003H996.308L982.708 40.4003L998.408 60.0003H983.408L971.858 44.5003C971.958 46.7503 972.058 49.3503 972.058 51.4503V60.0003H959.658ZM997.63 60.0003L1010.28 25.0003H1025.78L1038.43 60.0003H1025.18L1023.08 53.6003H1010.73L1008.63 60.0003H997.63ZM1012.98 46.7503H1020.83L1016.93 34.3003L1012.98 46.7503ZM1046.72 44.5003C1042.82 43.3003 1039.62 40.4503 1039.62 35.5503C1039.62 29.5503 1043.97 25.0003 1053.22 25.0003H1077.22V60.0003H1065.02V46.8003H1058.17L1052.12 60.0003H1038.32L1046.72 44.5003ZM1052.32 35.9003C1052.32 38.1503 1053.77 39.6503 1056.62 39.6503H1065.02V32.3003H1056.62C1053.77 32.3003 1052.32 33.7003 1052.32 35.9003Z" fill="white"/>
<path d="M153.759 95.5003C149.859 94.3003 146.659 91.4503 146.659 86.5503C146.659 80.5503 151.009 76.0003 160.259 76.0003H184.259V111H172.059V97.8003H165.209L159.159 111H145.359L153.759 95.5003ZM159.359 86.9003C159.359 89.1503 160.809 90.6503 163.659 90.6503H172.059V83.3003H163.659C160.809 83.3003 159.359 84.7003 159.359 86.9003ZM221.782 111.65C208.732 111.65 201.532 105.15 201.532 93.4003C201.532 81.8503 208.732 75.3503 222.132 75.3503C232.382 75.3503 237.532 79.7503 238.532 86.1503L227.282 87.1003C226.782 83.9503 225.232 82.4003 222.432 82.4003C218.732 82.4003 215.732 85.3503 215.732 93.0003C215.732 100.55 218.832 103.65 222.782 103.65C226.082 103.65 227.882 102 229.082 98.2503L239.582 101.25C237.782 106.95 232.582 111.65 221.782 111.65ZM242.427 111V76.0003H279.377V111H266.977V84.0003H254.827V111H242.427ZM284.078 111V76.0003H316.528V83.8003H296.378V89.1503H312.778V96.5503H296.378V103.2H316.528V111H284.078ZM351.201 118V111H320.601V76.0003H333.001V103H345.001V76.0003H357.351V102.9H362.451V118H351.201ZM365.523 111V76.0003H377.673V97.9503H377.723L390.523 76.0003H403.723V111H391.573V89.0503H391.523L378.773 111H365.523ZM405.693 111L418.343 76.0003H433.843L446.493 111H433.243L431.143 104.6H418.793L416.693 111H405.693ZM421.043 97.7503H428.893L424.993 85.3003L421.043 97.7503ZM446.441 101.25C452.191 100.85 453.891 99.1503 454.391 88.5503L454.891 76.0003H488.091V111H475.791V84.0503H464.991L464.791 89.6503C464.141 106.75 459.491 111.25 449.041 111.25H448.241L446.441 101.25ZM492.769 111V76.0003H504.919V97.9503H504.969L517.769 76.0003H530.969V111H518.819V89.0503H518.769L506.019 111H492.769ZM554.839 111.65C541.789 111.65 534.589 105.15 534.589 93.4003C534.589 81.8503 541.789 75.3503 555.189 75.3503C565.439 75.3503 570.589 79.7503 571.589 86.1503L560.339 87.1003C559.839 83.9503 558.289 82.4003 555.489 82.4003C551.789 82.4003 548.789 85.3503 548.789 93.0003C548.789 100.55 551.889 103.65 555.839 103.65C559.139 103.65 560.939 102 562.139 98.2503L572.639 101.25C570.839 106.95 565.639 111.65 554.839 111.65ZM585.342 111V84.2503H573.792V76.0003H609.342V84.2503H597.842V111H585.342ZM626.363 111V76.0003H650.313C658.813 76.0003 662.813 80.0503 662.813 85.2003C662.813 89.1003 660.463 91.6003 657.113 92.7503C660.863 93.8503 663.913 96.5003 663.913 101.35C663.913 106.9 659.963 111 651.413 111H626.363ZM638.463 103.95H647.463C650.113 103.95 651.663 102.45 651.663 100.05C651.663 97.8003 650.113 96.3003 647.463 96.3003H638.463V103.95ZM638.463 89.6003H646.913C649.313 89.6003 650.713 88.3003 650.713 86.1503C650.713 84.1503 649.313 82.8003 646.913 82.8003H638.463V89.6003ZM700.251 111.65C687.251 111.65 679.901 105.1 679.901 93.6003C679.901 81.9003 687.151 75.3503 700.251 75.3503C713.351 75.3503 720.601 81.9003 720.601 92.9003C720.601 105.05 713.251 111.65 700.251 111.65ZM693.451 93.4503C693.451 101.05 696.401 104 700.251 104C704.101 104 707.051 101.05 707.051 93.0003C707.051 85.6003 704.151 82.7503 700.251 82.7503C696.351 82.7503 693.451 85.6003 693.451 93.4503ZM724.214 111V76.0003H758.864V83.9503H736.414V88.9003H748.164C757.314 88.9003 761.914 93.6003 761.914 99.7003C761.914 106.2 757.214 111 748.164 111H724.214ZM736.414 103.7H744.614C747.564 103.7 749.114 102.1 749.114 99.6003C749.114 97.4003 747.614 95.9003 744.614 95.9003H736.414V103.7ZM763.482 101.25C769.232 100.85 770.932 99.1503 771.432 88.5503L771.932 76.0003H805.132V111H792.832V84.0503H782.032L781.832 89.6503C781.182 106.75 776.532 111.25 766.082 111.25H765.282L763.482 101.25ZM807.06 111L819.71 76.0003H835.21L847.86 111H834.61L832.51 104.6H820.16L818.06 111H807.06ZM822.41 97.7503H830.26L826.36 85.3003L822.41 97.7503ZM867.241 111.65C854.191 111.65 846.991 105.15 846.991 93.4003C846.991 81.8503 854.191 75.3503 867.591 75.3503C877.841 75.3503 882.991 79.7503 883.991 86.1503L872.741 87.1003C872.241 83.9503 870.691 82.4003 867.891 82.4003C864.191 82.4003 861.191 85.3503 861.191 93.0003C861.191 100.55 864.291 103.65 868.241 103.65C871.541 103.65 873.341 102 874.541 98.2503L885.041 101.25C883.241 106.95 878.041 111.65 867.241 111.65ZM897.744 111V84.2503H886.194V76.0003H921.744V84.2503H910.244V111H897.744ZM925.093 111V76.0003H937.243V97.9503H937.293L950.093 76.0003H963.293V111H951.143V89.0503H951.093L938.343 111H925.093Z" fill="white"/>
</svg>
