<svg width="238" height="417" viewBox="0 0 238 417" fill="none" xmlns="http://www.w3.org/2000/svg">
<path d="M30.5319 270.432C46.3225 307.968 90.6727 343.883 130.822 347.655C145.481 349.032 163.745 348.376 173.243 332.917C181.059 320.196 183.273 300.064 177.697 286.882C170.76 270.48 140.634 250.143 125.645 244.817C118.249 242.188 89.099 236.615 82.6984 248.676C76.9438 259.519 92.84 281.351 99.7753 287.116C121.49 305.166 162.383 312.03 189.534 316.709C220.027 321.965 246.974 322.633 272.602 299.699C287.026 286.792 293.091 270.001 289.147 252.264C284.612 231.863 274.357 205.634 258.439 192.344C252.169 187.109 224.85 171.276 215.601 184.927C201.932 198.098 207.1 208.794 209.697 215.88C213.713 226.839 238.537 236.51 248.576 238.376C273.339 242.979 304.075 225.766 306.198 194.846C307.763 172.034 303.389 150.381 296.39 129.908C286.883 102.101 264.629 79.4124 240.845 64.6176C220.627 52.0404 218.374 43.2505 188.697 50.2465" stroke="#FF65C7" stroke-width="30.3835" stroke-linecap="round"/>
<path d="M18.8167 266.465L41.242 263.542L45.5616 271.912L30.187 288.497L26.4944 281.342L29.3652 278.425L25.9234 271.756L21.8822 272.405L18.8167 266.465ZM30.2495 271.062L32.4371 275.301L38.0733 269.725L30.2495 271.062Z" fill="#FFF1F1"/>
<path d="M31.9628 290.926L44.1739 281.889L48.2047 287.335L43.9552 290.48L46.7388 294.241L50.9882 291.096L55.0371 296.566L42.8259 305.604L38.7771 300.133L43.515 296.627L40.7314 292.866L35.9935 296.372L31.9628 290.926Z" fill="#FFF1F1"/>
<path d="M49.1791 305.03C51.2203 306.852 52.2083 306.829 55.5935 303.634L58.7659 300.529L70.6136 311.836L60.1255 322.826L55.2018 318.127L62.8161 310.148L59.6729 307.149L58.7689 308.008C53.2641 313.38 50.0213 313.478 47.0759 310.667C46.4824 310.1 45.9299 309.447 45.9299 309.447L49.1791 305.03Z" fill="#FFF1F1"/>
<path d="M67.988 328.821C64.9007 326.825 64.217 324.357 65.6522 322.137C67.1203 319.866 69.7671 319.298 75.008 322.216L78.3039 324.057L78.9143 323.113C79.5081 322.195 79.3277 321.355 78.2816 320.678C77.1845 319.969 76.2752 320.032 75.297 320.594L70.809 316.679C72.8957 315.242 75.7555 314.848 80.5779 317.966C85.6555 321.249 86.2538 324.24 84.4557 327.022L80.0512 333.834C79.5728 334.574 79.4545 335.149 79.4127 335.773L73.5952 332.012C73.6746 331.665 73.838 331.301 74.0855 330.918C74.2999 330.586 74.5564 330.245 74.9134 329.861C73.6561 330.351 71.0498 330.8 67.988 328.821ZM71.897 325.125C71.4186 325.865 71.5825 326.731 72.7052 327.457C73.8789 328.215 75.1093 328.215 75.7305 328.038L77.0172 326.048L74.7254 324.891C73.2741 324.17 72.3919 324.36 71.897 325.125Z" fill="#FFF1F1"/>
<path d="M83.4722 337.866L89.0992 323.755L95.3928 326.265L93.4346 331.176L97.7808 332.909L99.739 327.998L106.061 330.519L100.434 344.63L94.112 342.109L96.2953 336.634L91.949 334.901L89.7658 340.376L83.4722 337.866Z" fill="#FFF1F1"/>
<path d="M104.439 353.523L105.864 345.414L108.198 345.824C109.134 344.538 110.236 342.48 111.115 339.056L112.087 335.278L128.097 338.092L126.183 348.985L128.876 349.458L127.451 357.568L121.436 356.511L122.146 352.471L111.193 350.546L110.483 354.586L104.439 353.523ZM113.824 346.813L119.48 347.807L120.7 340.864L116.391 340.107L116.184 340.934C115.439 343.765 114.583 345.65 113.824 346.813Z" fill="#FFF1F1"/>
<path d="M136.208 356.944L134.494 341.849L141.045 341.105L142.07 350.132L142.1 350.128L145.996 340.543L153.09 339.737L154.805 354.831L148.254 355.576L147.228 346.549L147.198 346.552L143.303 356.138L136.208 356.944Z" fill="#FFF1F1"/>
<path d="M165.899 343.776C164.304 344.539 162.263 344.59 160.726 343.034C158.719 341.001 158.739 337.907 161.766 334.919L170.09 326.701L180.763 337.512L175.963 342.25L172.463 338.704L170.798 340.348L172.59 345.58L167.293 350.81L165.899 343.776ZM165.61 338.467C166.315 339.181 167.239 339.165 168.169 338.247L170.115 336.326L167.809 333.991L165.863 335.912C164.933 336.83 164.906 337.754 165.61 338.467Z" fill="#FFF1F1"/>
<path d="M173.224 314.288L169.19 318.489L167.07 314.716L166.159 319.002L161.059 316.397L163.849 313.079L159.633 313.5L160.542 307.646L164.397 309.351L162.774 305.348L168.428 304.381L168.006 308.681L171.161 305.789L173.732 311.015L169.517 312.021L173.224 314.288Z" fill="#FFF1F1"/>
<path d="M185.822 286.956L163.369 289.656L159.132 281.244L174.671 264.812L178.292 272.004L175.392 274.893L178.768 281.595L182.815 280.986L185.822 286.956ZM174.435 282.246L172.29 277.986L166.599 283.505L174.435 282.246Z" fill="#FFF1F1"/>
<path d="M168.093 257.087L159.087 269.322L153.63 265.305L156.764 261.047L152.996 258.273L149.862 262.531L144.381 258.496L153.387 246.262L158.868 250.297L155.374 255.044L159.142 257.817L162.636 253.07L168.093 257.087Z" fill="#FFF1F1"/>
<path d="M147.311 248.937C144.794 247.864 143.865 248.202 141.681 252.313L139.669 256.27L124.826 249.35L131.244 235.581L137.413 238.457L132.753 248.453L136.691 250.289L137.272 249.185C140.768 242.334 143.809 241.204 147.499 242.924C148.243 243.27 148.975 243.712 148.975 243.712L147.311 248.937Z" fill="#FFF1F1"/>
<path d="M119.702 233.313C123.182 234.499 124.445 236.727 123.592 239.229C122.72 241.788 120.29 242.983 114.497 241.425L110.853 240.44L110.49 241.504C110.137 242.539 110.516 243.31 111.695 243.712C112.932 244.134 113.799 243.851 114.611 243.069L119.916 245.776C118.241 247.677 115.562 248.754 110.127 246.901C104.404 244.951 103.097 242.194 104.165 239.059L106.783 231.38C107.067 230.546 107.042 229.96 106.931 229.344L113.488 231.58C113.495 231.935 113.425 232.329 113.278 232.76C113.151 233.134 112.985 233.527 112.732 233.986C113.832 233.206 116.251 232.136 119.702 233.313ZM116.808 237.847C117.093 237.013 116.723 236.213 115.458 235.782C114.135 235.331 112.942 235.631 112.382 235.953L111.618 238.197L114.121 238.761C115.704 239.108 116.514 238.71 116.808 237.847Z" fill="#FFF1F1"/>
<path d="M90.5446 234.007L100.835 245.183L95.8508 249.772L92.2697 245.883L88.8276 249.053L92.4087 252.942L87.402 257.552L77.1115 246.376L82.1182 241.766L86.1109 246.102L89.553 242.933L85.5603 238.597L90.5446 234.007Z" fill="#FFF1F1"/>
<path d="M75.5794 261.89L83.3948 259.298L84.1408 261.547C85.7162 261.761 88.051 261.755 91.4824 260.905L95.2694 259.97L100.386 275.398L89.8887 278.88L90.7495 281.475L82.9341 284.067L81.0118 278.27L84.905 276.979L81.4046 266.424L77.5114 267.715L75.5794 261.89ZM85.9388 266.969L87.7464 272.42L94.4371 270.201L93.0599 266.048L92.2332 266.258C89.3882 266.946 87.3222 267.087 85.9388 266.969Z" fill="#FFF1F1"/>
<path d="M94.7293 289.197L104.383 277.467L109.474 281.657L103.701 288.671L103.724 288.691L113.321 284.823L118.835 289.361L109.181 301.091L104.09 296.901L109.863 289.886L109.839 289.867L100.242 293.734L94.7293 289.197Z" fill="#FFF1F1"/>
<path d="M125.432 301.101C124.248 299.788 123.62 297.845 124.677 295.93C126.057 293.429 129.029 292.571 132.753 294.626L142.995 300.278L135.655 313.579L129.749 310.32L132.157 305.957L130.108 304.827L125.599 308.03L119.082 304.433L125.432 301.101ZM130.441 299.319C129.957 300.197 130.234 301.079 131.377 301.71L133.772 303.031L135.357 300.158L132.963 298.837C131.819 298.206 130.926 298.441 130.441 299.319Z" fill="#FFF1F1"/>
<path d="M180.602 322.713L183.586 307.817L190.229 309.148L189.191 314.332L193.779 315.251L194.817 310.067L201.491 311.404L198.507 326.299L191.834 324.963L192.991 319.183L188.403 318.264L187.246 324.044L180.602 322.713Z" fill="#FFF1F1"/>
<path d="M202.61 321.738C205.346 321.794 206.081 321.134 206.574 316.505L206.965 312.084L223.318 312.966L222.5 328.136L215.704 327.769L216.298 316.756L211.959 316.522L211.831 317.763C211.144 325.424 208.745 327.607 204.679 327.387C203.86 327.343 203.015 327.206 203.015 327.206L202.61 321.738Z" fill="#FFF1F1"/>
<path d="M232.895 327.327C229.278 327.982 227.091 326.65 226.619 324.049C226.137 321.388 227.679 319.163 233.498 317.707L237.162 316.795L236.962 315.689C236.766 314.613 236.06 314.123 234.834 314.346C233.549 314.579 232.929 315.247 232.599 316.326L226.648 316.54C227.187 314.064 229.004 311.821 234.654 310.796C240.604 309.718 243.086 311.491 243.677 314.75L245.124 322.732C245.281 323.599 245.588 324.099 245.985 324.583L239.168 325.819C238.989 325.512 238.859 325.134 238.778 324.685C238.707 324.297 238.661 323.873 238.659 323.348C238.076 324.566 236.483 326.676 232.895 327.327ZM233.219 321.957C233.376 322.824 234.088 323.343 235.403 323.105C236.778 322.855 237.676 322.013 238.007 321.459L237.585 319.127L235.122 319.852C233.57 320.318 233.056 321.06 233.219 321.957Z" fill="#FFF1F1"/>
<path d="M236.936 177.219C234.204 177.383 233.525 178.1 233.406 182.754L233.373 187.192L217.002 187.631L216.595 172.445L223.399 172.262L223.694 183.288L228.037 183.171L228.065 181.924C228.132 174.233 230.349 171.864 234.418 171.754C235.239 171.733 236.091 171.801 236.091 171.801L236.936 177.219Z" fill="#FFF1F1"/>
<path d="M201.728 192.413C201.363 188.755 202.866 186.681 205.497 186.419C208.188 186.151 210.282 187.866 211.269 193.783L211.885 197.508L213.003 197.396C214.092 197.288 214.636 196.623 214.512 195.383C214.383 194.083 213.766 193.412 212.717 192.997L212.979 187.047C215.404 187.783 217.495 189.773 218.065 195.487C218.664 201.504 216.699 203.837 213.403 204.165L205.331 204.97C204.454 205.057 203.931 205.323 203.417 205.68L202.73 198.787C203.05 198.633 203.437 198.533 203.891 198.488C204.284 198.449 204.71 198.437 205.233 198.476C204.066 197.798 202.09 196.041 201.728 192.413ZM207.055 193.165C206.178 193.252 205.603 193.92 205.736 195.25C205.875 196.641 206.642 197.603 207.168 197.978L209.526 197.743L209.001 195.23C208.66 193.646 207.962 193.074 207.055 193.165Z" fill="#FFF1F1"/>
<path d="M205.652 217.471L218.171 208.865L222.01 214.448L217.653 217.443L220.304 221.299L224.66 218.304L228.516 223.913L215.997 232.519L212.141 226.91L216.999 223.571L214.348 219.715L209.491 223.054L205.652 217.471Z" fill="#FFF1F1"/>
<path d="M224.136 242.333L226.819 234.549L229.06 235.321C230.186 234.198 231.598 232.339 233.005 229.096L234.559 225.518L249.927 230.815L246.324 241.271L248.909 242.162L246.226 249.946L240.452 247.956L241.789 244.078L231.275 240.455L229.939 244.333L224.136 242.333ZM234.46 237.182L239.889 239.053L242.186 232.389L238.05 230.963L237.715 231.748C236.535 234.426 235.393 236.154 234.46 237.182Z" fill="#FFF1F1"/>
<path d="M260.436 64.3258L251.447 76.5725L246.132 72.6711L251.507 65.3476L251.483 65.3296L242.115 69.7226L236.359 65.4976L245.348 53.2509L250.663 57.1523L245.288 64.4758L245.312 64.4938L254.68 60.1008L260.436 64.3258Z" fill="#FFF1F1"/>
<path d="M235.528 54.1847C236.691 55.5165 237.287 57.4695 236.199 59.3674C234.779 61.8453 231.793 62.6553 228.103 60.54L217.954 54.7229L225.509 41.5428L231.361 44.8971L228.883 49.2202L230.913 50.3836L235.473 47.2541L241.931 50.9559L235.528 54.1847ZM230.491 55.8852C230.989 55.0153 230.727 54.1293 229.593 53.4796L227.221 52.1198L225.589 54.9667L227.961 56.3265C229.095 56.9762 229.992 56.7551 230.491 55.8852Z" fill="#FFF1F1"/>
<path d="M206.433 41.5785L209.757 46.3615L205.641 47.6967L209.663 49.4347L206.104 53.9206L203.401 50.5312L202.983 54.748L197.422 52.7034L199.854 49.2596L195.61 50.0621L195.775 44.3285L199.909 45.5892L197.694 41.9264L203.325 40.4356L203.481 44.7661L206.433 41.5785Z" fill="#FFF1F1"/>
</svg>
