<svg width="261" height="425" viewBox="0 0 261 425" fill="none" xmlns="http://www.w3.org/2000/svg">
<path d="M226.308 173.665C216.118 134.238 177.434 92.2806 138.254 82.7364C123.948 79.2515 105.782 77.2573 94.1456 91.1782C84.5707 102.633 79.4659 122.233 83.0743 136.083C87.5641 153.317 114.429 177.801 128.489 185.241C135.427 188.912 163.462 198.647 171.541 187.64C178.805 177.743 166.237 153.84 160.209 147.132C141.336 126.128 101.867 113.417 75.6802 104.857C46.2692 95.2422 19.7025 90.6806 -8.97578 109.662C-25.1164 120.346 -33.5478 136.082 -32.2135 154.203C-30.6788 175.045 -24.3295 202.483 -10.5028 217.937C-5.0565 224.025 19.6828 243.646 30.8106 231.478C46.2419 220.424 42.6773 209.093 41.1335 201.705C38.7462 190.281 15.5835 177.118 5.92018 173.818C-17.9157 165.679 -50.8201 178.261 -57.396 208.548C-62.2475 230.893 -61.0543 252.951 -57.092 274.222C-51.7106 303.112 -32.9759 328.783 -11.5844 346.865C6.6005 362.237 7.55712 371.26 37.9339 368.634" stroke="#FF65C7" stroke-width="30.3835" stroke-linecap="round"/>
<path d="M237.326 179.285L214.713 178.931L211.651 170.024L229.265 155.839L231.882 163.453L228.62 165.924L231.06 173.021L235.152 172.964L237.326 179.285ZM226.679 173.082L225.128 168.571L218.744 173.272L226.679 173.082Z" fill="#FFF1F1"/>
<path d="M227.859 153.179L214.468 160.353L211.268 154.381L215.928 151.884L213.718 147.76L209.058 150.257L205.844 144.258L219.235 137.083L222.449 143.082L217.253 145.866L219.463 149.99L224.659 147.206L227.859 153.179Z" fill="#FFF1F1"/>
<path d="M212.866 136.731C211.11 134.633 210.129 134.513 206.317 137.184L202.728 139.796L192.642 126.894L204.611 117.538L208.803 122.9L200.113 129.693L202.789 133.116L203.808 132.396C210.033 127.877 213.255 128.251 215.763 131.458C216.268 132.104 216.72 132.831 216.72 132.831L212.866 136.731Z" fill="#FFF1F1"/>
<path d="M197.699 110.468C200.465 112.89 200.784 115.431 199.042 117.42C197.261 119.454 194.56 119.633 189.797 115.987L186.802 113.688L186.061 114.534C185.341 115.357 185.398 116.214 186.335 117.035C187.318 117.895 188.227 117.964 189.276 117.55L193.15 122.074C190.877 123.193 187.99 123.169 183.67 119.386C179.121 115.403 178.962 112.356 181.144 109.864L186.488 103.761C187.069 103.098 187.269 102.547 187.401 101.935L192.613 106.499C192.484 106.83 192.269 107.167 191.969 107.51C191.709 107.807 191.406 108.107 190.997 108.436C192.312 108.134 194.956 108.066 197.699 110.468ZM193.296 113.559C193.876 112.896 193.84 112.016 192.834 111.135C191.782 110.214 190.565 110.036 189.924 110.122L188.363 111.905L190.463 113.381C191.795 114.304 192.695 114.245 193.296 113.559Z" fill="#FFF1F1"/>
<path d="M183.687 99.2763L176.076 112.424L170.212 109.03L172.861 104.454L168.811 102.11L166.163 106.686L160.273 103.276L167.883 90.1284L173.773 93.5379L170.821 98.6394L174.87 100.983L177.823 95.882L183.687 99.2763Z" fill="#FFF1F1"/>
<path d="M165.208 80.7491L162.624 88.567L160.374 87.8232C159.262 88.9597 157.873 90.8368 156.508 94.0973L154.999 97.6946L139.565 92.5929L143.036 82.0921L140.439 81.2339L143.024 73.416L148.822 75.3327L147.535 79.2272L158.093 82.7173L159.381 78.8228L165.208 80.7491ZM154.95 86.0304L149.498 84.2281L147.285 90.9209L151.44 92.2941L151.764 91.5054C152.911 88.8123 154.03 87.0704 154.95 86.0304Z" fill="#FFF1F1"/>
<path d="M134.268 72.7656L133.78 87.9495L127.19 87.7374L127.482 78.6575L127.452 78.6565L122.21 87.5771L115.073 87.3475L115.562 72.1636L122.152 72.3757L121.859 81.4556L121.89 81.4566L127.132 72.536L134.268 72.7656Z" fill="#FFF1F1"/>
<path d="M102.985 81.4967C104.673 80.9724 106.7 81.2171 107.996 82.9799C109.687 85.2814 109.219 88.3397 105.792 90.8584L96.3652 97.7851L87.3695 85.543L92.805 81.549L95.7556 85.5644L97.6409 84.179L96.6246 78.7423L102.623 74.3345L102.985 81.4967ZM102.501 86.7911C101.907 85.9831 100.991 85.8648 99.9382 86.6384L97.7346 88.2576L99.6777 90.9019L101.881 89.2827C102.934 88.5091 103.095 87.5991 102.501 86.7911Z" fill="#FFF1F1"/>
<path d="M91.4672 109.614L96.0671 106.041L97.6189 110.081L99.1409 105.972L103.809 109.288L100.568 112.167L104.801 112.36L103.055 118.022L99.4866 115.776L100.513 119.972L94.7789 120.111L95.8185 115.917L92.2784 118.322L90.4909 112.779L94.807 112.393L91.4672 109.614Z" fill="#FFF1F1"/>
<path d="M75.0459 134.834L97.6535 135.412L100.627 144.349L82.8742 158.359L80.3319 150.719L83.6191 148.28L81.2495 141.159L77.1565 141.176L75.0459 134.834ZM85.6308 141.142L87.137 145.669L93.5672 141.031L85.6308 141.142Z" fill="#FFF1F1"/>
<path d="M88.2643 166.955L98.9466 156.153L103.764 160.917L100.047 164.676L103.374 167.966L107.091 164.207L111.93 168.993L101.248 179.795L96.4089 175.009L100.554 170.818L97.2266 167.528L93.0819 171.719L88.2643 166.955Z" fill="#FFF1F1"/>
<path d="M107.648 178.028C109.983 179.453 110.951 179.253 113.707 175.502L116.27 171.879L129.956 180.874L121.612 193.569L115.924 189.83L121.982 180.614L118.351 178.227L117.616 179.235C113.166 185.508 109.993 186.186 106.591 183.95C105.905 183.5 105.244 182.956 105.244 182.956L107.648 178.028Z" fill="#FFF1F1"/>
<path d="M132.703 197.484C129.431 195.807 128.505 193.419 129.711 191.067C130.944 188.661 133.521 187.831 139.027 190.21L142.491 191.713L143.004 190.713C143.503 189.739 143.239 188.921 142.131 188.353C140.968 187.757 140.07 187.911 139.153 188.567L134.296 185.121C136.228 183.483 139.035 182.805 144.145 185.425C149.525 188.183 150.419 191.1 148.908 194.047L145.207 201.266C144.805 202.05 144.745 202.634 144.765 203.259L138.601 200.098C138.645 199.746 138.772 199.366 138.979 198.961C139.16 198.609 139.381 198.245 139.698 197.827C138.496 198.44 135.947 199.147 132.703 197.484ZM136.223 193.416C135.821 194.2 136.07 195.045 137.26 195.655C138.504 196.293 139.728 196.169 140.328 195.931L141.41 193.822L139.014 192.901C137.498 192.328 136.639 192.605 136.223 193.416Z" fill="#FFF1F1"/>
<path d="M161.655 201.018L153.09 188.47L158.686 184.65L161.667 189.017L165.532 186.379L162.551 182.013L168.172 178.176L176.737 190.723L171.115 194.56L167.792 189.692L163.928 192.33L167.251 197.198L161.655 201.018Z" fill="#FFF1F1"/>
<path d="M180.498 175.595L172.39 177.028L171.978 174.694C170.45 174.255 168.139 173.923 164.62 174.267L160.738 174.645L157.908 158.638L168.799 156.713L168.323 154.02L176.432 152.587L177.494 158.601L173.455 159.314L175.391 170.265L179.43 169.551L180.498 175.595ZM170.983 169.069L169.984 163.415L163.042 164.642L163.804 168.95L164.652 168.862C167.567 168.593 169.632 168.753 170.983 169.069Z" fill="#FFF1F1"/>
<path d="M165.503 145.803L154.253 156.012L149.822 151.13L156.55 145.025L156.529 145.002L146.474 147.439L141.675 142.152L152.926 131.943L157.356 136.826L150.629 142.931L150.649 142.953L160.705 140.516L165.503 145.803Z" fill="#FFF1F1"/>
<path d="M136.847 129.58C137.829 131.051 138.169 133.064 136.846 134.806C135.118 137.081 132.053 137.5 128.666 134.927L119.35 127.852L128.539 115.754L133.91 119.833L130.896 123.802L132.759 125.217L137.685 122.7L143.613 127.203L136.847 129.58ZM131.633 130.618C132.239 129.82 132.093 128.907 131.052 128.117L128.875 126.463L126.89 129.076L129.068 130.73C130.108 131.521 131.026 131.417 131.633 130.618Z" fill="#FFF1F1"/>
<path d="M85.3869 100.209L80.2783 114.516L73.8974 112.238L75.6752 107.259L71.2686 105.685L69.4908 110.664L63.0813 108.376L68.1899 94.0686L74.5994 96.3573L72.6173 101.908L77.0239 103.482L79.006 97.9307L85.3869 100.209Z" fill="#FFF1F1"/>
<path d="M63.4688 97.9877C60.7703 97.5361 59.9471 98.0828 58.7891 102.592L57.7625 106.91L41.7095 103.67L44.7151 88.7783L51.3865 90.1248L49.2044 100.936L53.4634 101.796L53.7694 100.586C55.5583 93.1055 58.2489 91.2929 62.2398 92.0984C63.0439 92.2607 63.8598 92.5183 63.8598 92.5183L63.4688 97.9877Z" fill="#FFF1F1"/>
<path d="M34.3121 88.0742C37.9864 87.949 39.9574 89.5844 40.0474 92.2262C40.1395 94.9288 38.2916 96.907 32.323 97.5055L28.5659 97.8767L28.6041 99.0003C28.6414 100.093 29.2694 100.68 30.5144 100.638C31.8201 100.593 32.5303 100.022 33.0124 99.0021L38.9323 99.6517C38.0403 102.023 35.918 103.98 30.1789 104.176C24.1361 104.381 21.936 102.268 21.8232 98.9577L21.547 90.85C21.517 89.9694 21.2858 89.43 20.9636 88.8938L27.887 88.6579C28.0198 88.9878 28.094 89.3805 28.1095 89.836C28.123 90.2307 28.1071 90.6569 28.0336 91.1762C28.7858 90.0561 30.6682 88.1983 34.3121 88.0742ZM33.2147 93.3406C33.1847 92.46 32.5557 91.843 31.2196 91.8885C29.8227 91.9361 28.813 92.6393 28.4045 93.1397L28.4852 95.5082L31.0266 95.148C32.6298 94.911 33.2457 94.2516 33.2147 93.3406Z" fill="#FFF1F1"/>
<path d="M15.569 89.8386L20.1408 104.326L13.6794 106.365L12.0884 101.323L7.62624 102.732L9.21724 107.773L2.72685 109.821L-1.84501 95.3339L4.64539 93.2858L6.41927 98.9069L10.8814 97.4988L9.10754 91.8776L15.569 89.8386Z" fill="#FFF1F1"/>
<path d="M-8.7145 95.7578L-3.83291 102.389L-5.74141 103.794C-5.45755 105.358 -4.72981 107.576 -2.86048 110.577L-0.799466 113.889L-13.8898 123.526L-20.4466 114.62L-22.6488 116.241L-27.5304 109.61L-22.6123 105.989L-20.1805 109.293L-11.2252 102.7L-13.657 99.3965L-8.7145 95.7578ZM-10.3414 107.18L-14.9658 110.585L-10.7867 116.261L-7.26336 113.667L-7.7188 112.946C-9.25233 110.453 -10.0252 108.532 -10.3414 107.18Z" fill="#FFF1F1"/>
<path d="M-15.1118 225.311L-5.40753 213.623L-0.194529 217.951L-3.57161 222.019L0.0284016 225.007L3.40548 220.94L8.64185 225.287L-1.06239 236.976L-6.29876 232.628L-2.53352 228.093L-6.13353 225.104L-9.89877 229.639L-15.1118 225.311Z" fill="#FFF1F1"/>
<path d="M8.58472 236.016C11.3108 236.248 12.0874 235.637 12.8783 231.05L13.5535 226.663L29.8154 228.599L28.0195 243.684L21.2613 242.88L22.5652 231.928L18.2508 231.414L18.0432 232.644C16.8629 240.245 14.3271 242.268 10.2843 241.787C9.4697 241.69 8.63571 241.499 8.63571 241.499L8.58472 236.016Z" fill="#FFF1F1"/>
<path d="M45.6208 226.078C45.452 229.751 43.6645 231.585 41.0239 231.463C38.3226 231.339 36.4983 229.339 36.3785 223.342L36.3086 219.567L35.1856 219.515C34.093 219.465 33.458 220.044 33.4009 221.289C33.3409 222.594 33.8537 223.347 34.8316 223.909L33.7112 229.759C31.4188 228.68 29.6374 226.408 29.901 220.672C30.1785 214.632 32.4615 212.608 35.7698 212.76L43.8736 213.132C44.7538 213.172 45.3099 212.985 45.8702 212.707L45.5522 219.627C45.2128 219.733 44.8154 219.775 44.3601 219.755C43.9656 219.736 43.542 219.687 43.0302 219.572C44.0866 220.411 45.7881 222.436 45.6208 226.078ZM40.4589 224.563C41.3391 224.604 42.0043 224.026 42.0657 222.691C42.1299 221.294 41.5095 220.232 41.0434 219.785L38.676 219.676L38.832 222.238C38.9402 223.855 39.5483 224.522 40.4589 224.563Z" fill="#FFF1F1"/>
<path d="M45.3653 200.716L31.7323 207.419L28.7428 201.339L33.4871 199.006L31.4225 194.807L26.6782 197.14L23.6753 191.032L37.3083 184.329L40.3112 190.437L35.0216 193.038L37.0862 197.237L42.3758 194.636L45.3653 200.716Z" fill="#FFF1F1"/>
<path d="M30.6751 173.44L26.8935 180.754L24.7883 179.666C23.5117 180.613 21.8453 182.249 19.9838 185.254L17.9277 188.569L3.48826 181.104L8.56751 171.28L6.13844 170.024L9.91997 162.709L15.3449 165.514L13.4611 169.158L23.3393 174.265L25.2231 170.621L30.6751 173.44ZM19.7143 177.043L14.6132 174.405L11.3759 180.667L15.2624 182.676L15.7071 181.948C17.2626 179.469 18.6424 177.925 19.7143 177.043Z" fill="#FFF1F1"/>
<path d="M1.49707 165.944L-1.39988 180.857L-7.87211 179.599L-6.13974 170.682L-6.16957 170.676L-12.7636 178.649L-19.7727 177.288L-16.8757 162.375L-10.4035 163.632L-12.1359 172.55L-12.106 172.556L-5.51203 164.582L1.49707 165.944Z" fill="#FFF1F1"/>
<path d="M-7.83314 357.958C-8.79083 356.472 -9.09846 354.453 -7.7473 352.733C-5.98328 350.486 -2.91165 350.117 0.433707 352.744L9.63343 359.969L0.250344 371.917L-5.05443 367.751L-1.97678 363.832L-3.81672 362.387L-8.78211 364.823L-14.6365 360.226L-7.83314 357.958ZM-2.60291 357.004C-3.22219 357.793 -3.09058 358.708 -2.06308 359.515L0.0875005 361.204L2.11425 358.623L-0.0363378 356.934C-1.06384 356.127 -1.98363 356.216 -2.60291 357.004Z" fill="#FFF1F1"/>
<path d="M19.13 374.643L16.5335 369.429L20.8 368.704L17.0714 366.402L21.2427 362.479L23.4267 366.224L24.4501 362.112L29.6564 364.94L26.7519 367.995L31.0678 367.816L30.0738 373.465L26.1665 371.619L27.8272 375.564L22.0401 376.224L22.5128 371.916L19.13 374.643Z" fill="#FFF1F1"/>
</svg>
