<svg width="1540" height="554" viewBox="0 0 1540 554" fill="none" xmlns="http://www.w3.org/2000/svg">
<path fill-rule="evenodd" clip-rule="evenodd" d="M769.54 377.576V327.991H700.378V377.576H769.54ZM699.378 377.576V327.991H630.214V377.576H699.378ZM769.54 326.991H700.378V277.412H769.54V326.991ZM699.378 326.991V277.412H630.214V326.991H699.378ZM769.54 276.412H700.378V226.821H769.54V276.412ZM699.378 276.412V226.821H630.214V276.412H699.378ZM769.54 225.821H700.378V176.236H769.54V225.821ZM699.378 225.821V176.236H630.214V225.821H699.378ZM769.54 175.236H700.378V125.651H769.54V175.236ZM699.378 175.236V125.651H630.214V175.236H699.378ZM769.54 124.651H700.378V75.0593H769.54V124.651ZM699.378 124.651V75.0593H630.214V124.651H699.378ZM769.54 74.0593H700.378V24.481L769.54 24.481V74.0593ZM699.378 74.0593V24.481L630.214 24.481V74.0593H699.378ZM630.214 23.481L699.378 23.481V1.13587C699.711 1.12503 700.045 1.11426 700.378 1.10357V23.481L769.54 23.481V0C769.874 0 770.207 7.62816e-05 770.54 0.000228799V23.481L839.704 23.481V1.13589C840.037 1.14674 840.371 1.15766 840.704 1.16866V23.481L909.866 23.481V4.59448C910.2 4.6166 910.533 4.63879 910.866 4.66105V23.481L978.9 23.481V10.3745C979.234 10.4084 979.567 10.4423 979.9 10.4763V23.481L1049.06 23.481V18.8397C1049.4 18.8866 1049.73 18.9335 1050.06 18.9804V23.481L1080.09 23.481C1082.17 23.8112 1084.24 24.1445 1086.31 24.481L1050.06 24.481V74.0593L1119.23 74.0594V30.1841C1119.56 30.2454 1119.89 30.3069 1120.23 30.3684V74.0594H1189.4V44.8215C1189.73 44.8998 1190.06 44.9782 1190.4 45.0567V74.0594H1259.56V63.4076C1259.89 63.5068 1260.23 63.6062 1260.56 63.7057V74.0594H1293.31C1294.3 74.3918 1295.29 74.7251 1296.28 75.0594H1260.56V124.651H1329.72V87.077C1330.06 87.2044 1330.39 87.332 1330.72 87.4597V124.651H1398.76V117.487C1399.09 117.657 1399.42 117.828 1399.76 117.998V124.651H1412.34C1412.95 124.984 1413.56 125.317 1414.16 125.651H1399.76V175.236H1468.92V161.281C1469.25 161.543 1469.59 161.804 1469.92 162.066V175.236H1485.49C1485.85 175.569 1486.22 175.902 1486.58 176.236H1469.92V225.821H1525.97C1526.15 226.154 1526.32 226.487 1526.49 226.821H1469.92V276.413H1539.08C1539.08 276.608 1539.08 276.804 1539.08 277V277.413H1469.92V326.991H1526.58C1526.41 327.324 1526.24 327.658 1526.07 327.991H1469.92V377.576H1486.79C1486.42 377.909 1486.06 378.243 1485.7 378.576H1469.92V391.934C1469.59 392.196 1469.25 392.457 1468.92 392.719V378.576H1399.76V428.167H1414.49C1413.89 428.501 1413.28 428.835 1412.67 429.167H1399.76V436.002C1399.42 436.172 1399.09 436.343 1398.76 436.513V429.167H1330.72V466.54C1330.39 466.668 1330.06 466.796 1329.72 466.923V429.167H1260.56V478.752H1296.84C1295.85 479.087 1294.86 479.42 1293.87 479.752H1260.56V490.294C1260.23 490.394 1259.89 490.493 1259.56 490.592V479.752H1190.4V508.943C1190.06 509.022 1189.73 509.1 1189.4 509.178V479.752H1120.23V523.632C1119.89 523.693 1119.56 523.755 1119.23 523.816V479.752H1050.06V529.344H1087.38C1085.32 529.68 1083.26 530.014 1081.19 530.344H1050.06V535.02C1049.73 535.067 1049.4 535.113 1049.06 535.16V530.344H979.9V543.524C979.567 543.558 979.234 543.592 978.9 543.625V530.344H910.866V549.339C910.533 549.361 910.2 549.383 909.866 549.406V530.344H840.704V552.831C840.371 552.842 840.037 552.853 839.704 552.864V530.344H770.54V554H769.54V530.344H700.378V552.896C700.044 552.886 699.711 552.875 699.378 552.864V530.344H630.214V549.472C629.881 549.45 629.548 549.428 629.214 549.405V530.344H561.181V543.727C560.848 543.693 560.514 543.659 560.181 543.625V530.344H491.018V535.3C490.685 535.254 490.351 535.207 490.018 535.16V530.344H457.891C455.823 530.014 453.76 529.68 451.701 529.344H490.018V479.752H420.855V524C420.522 523.938 420.188 523.877 419.855 523.816V479.752H350.686V509.413C350.352 509.335 350.019 509.257 349.686 509.178V479.752H280.523V490.89C280.189 490.791 279.856 490.692 279.523 490.592V479.752H245.209C244.218 479.42 243.229 479.087 242.242 478.752H279.523V429.167H210.36V467.304C210.026 467.177 209.693 467.05 209.36 466.923V429.167H141.326V437.022C140.992 436.853 140.659 436.683 140.326 436.513V429.167H126.41C125.801 428.834 125.194 428.501 124.589 428.167H140.326L140.326 378.576H71.1629V393.497C70.8285 393.238 70.4952 392.979 70.1629 392.719V378.576H53.3853C53.0205 378.243 52.6574 377.909 52.296 377.576H70.1629V327.991H13.0108C12.8386 327.658 12.6681 327.324 12.4992 326.991H70.1629V277.412H0.000834724C0.000278305 277.275 0 277.137 0 277C0 276.804 0.000565013 276.608 0.00169448 276.412H70.1629V226.821H12.5948C12.7644 226.487 12.9356 226.154 13.1085 225.821H70.1629V176.236H52.5004C52.8625 175.902 53.2264 175.569 53.592 175.236H70.1629V161.281C70.4952 161.021 70.8285 160.762 71.1629 160.503V175.236H140.326L140.326 125.651H124.919C125.525 125.317 126.133 124.984 126.743 124.651H140.326V117.487C140.659 117.317 140.992 117.147 141.326 116.978V124.651L209.36 124.651V87.0769C209.693 86.9497 210.026 86.8226 210.36 86.6956V124.651L279.523 124.651V75.0593L242.799 75.0593C243.788 74.725 244.779 74.3917 245.772 74.0593H279.523V63.4075C279.856 63.3084 280.189 63.2094 280.523 63.1105V74.0593L349.686 74.0593V44.8215C350.019 44.7433 350.352 44.6651 350.686 44.5871V74.0593L419.855 74.0593V30.1841C420.188 30.1228 420.522 30.0616 420.855 30.0005V74.0593L490.018 74.0593V24.481L452.775 24.481C454.842 24.1445 456.914 23.8111 458.991 23.481L490.018 23.481V18.8397C490.351 18.7929 490.685 18.7462 491.018 18.6996V23.481L560.181 23.481V10.3745C560.514 10.3407 560.848 10.3069 561.181 10.2732V23.481L629.214 23.481V4.59451C629.548 4.57241 629.881 4.55038 630.214 4.52844V23.481ZM769.54 529.344H700.378V479.752H769.54V529.344ZM769.54 478.752H700.378V429.167H769.54V478.752ZM699.378 478.752V429.167H630.214V478.752H699.378ZM769.54 428.167H700.378V378.576H769.54V428.167ZM699.378 428.167V378.576H630.214V428.167H699.378ZM699.378 529.344V479.752H630.214V529.344H699.378ZM629.214 377.576H561.181V327.991H629.214V377.576ZM629.214 277.412V326.991H561.181V277.412H629.214ZM629.214 226.821V276.412H561.181V226.821H629.214ZM629.214 176.236V225.821H561.181V176.236H629.214ZM629.214 125.651V175.236H561.181V125.651H629.214ZM629.214 75.0593V124.651H561.181V75.0593H629.214ZM629.214 24.481V74.0593H561.181V24.481L629.214 24.481ZM1468.92 176.236H1399.76V225.821H1468.92V176.236ZM1468.92 226.821H1399.76V276.413H1468.92V226.821ZM1468.92 277.413H1399.76V326.991H1468.92V277.413ZM1468.92 327.991H1399.76V377.576H1468.92V327.991ZM1398.76 378.576V428.167H1330.72V378.576H1398.76ZM1398.76 327.991V377.576H1330.72V327.991H1398.76ZM1398.76 277.413V326.991H1330.72V277.413H1398.76ZM1398.76 226.821V276.413H1330.72V226.821H1398.76ZM1398.76 176.236V225.821H1330.72V176.236H1398.76ZM1398.76 125.651V175.236H1330.72V125.651H1398.76ZM629.214 429.167V478.752H561.181V429.167H629.214ZM629.214 428.167H561.181V378.576H629.214V428.167ZM629.214 479.752V529.344H561.181V479.752H629.214ZM560.181 377.576H491.018V327.991H560.181V377.576ZM560.181 277.412V326.991H491.018V277.412H560.181ZM560.181 226.821V276.412H491.018V226.821H560.181ZM560.181 176.236V225.821H491.018V176.236H560.181ZM560.181 125.651V175.236H491.018V125.651H560.181ZM560.181 75.0593V124.651H491.018V75.0593H560.181ZM560.181 24.481V74.0593H491.018V24.481L560.181 24.481ZM1329.72 378.576V428.167H1260.56V378.576H1329.72ZM1329.72 327.991V377.576H1260.56V327.991H1329.72ZM1329.72 277.412V326.991H1260.56V277.412H1329.72ZM1329.72 226.821V276.412H1260.56V226.821H1329.72ZM1329.72 176.236V225.821H1260.56V176.236H1329.72ZM1329.72 125.651V175.236H1260.56V125.651H1329.72ZM560.181 429.167V478.752H491.018V429.167H560.181ZM560.181 428.167H491.018V378.576H560.181V428.167ZM560.181 479.752V529.344H491.018V479.752H560.181ZM490.018 377.576H420.855V327.991H490.018V377.576ZM490.018 277.412V326.991H420.855V277.412H490.018ZM490.018 226.821V276.412H420.855V226.821H490.018ZM490.018 176.236V225.821H420.855V176.236H490.018ZM490.018 125.651V175.236H420.855V125.651L490.018 125.651ZM490.018 75.0593V124.651L420.855 124.651V75.0593L490.018 75.0593ZM1259.56 429.167V478.752H1190.4V429.167H1259.56ZM1259.56 378.576V428.167H1190.4V378.576H1259.56ZM1259.56 327.991V377.576H1190.4V327.991H1259.56ZM1259.56 277.412V326.991H1190.4V277.412H1259.56ZM1259.56 226.821V276.412H1190.4V226.821H1259.56ZM1259.56 176.236V225.821H1190.4V176.236H1259.56ZM1259.56 125.651V175.236H1190.4V125.651H1259.56ZM1259.56 75.0594V124.651H1190.4V75.0594H1259.56ZM490.018 429.167V478.752H420.855V429.167H490.018ZM490.018 428.167H420.855V378.576H490.018V428.167ZM419.855 377.576H350.686V327.991H419.855V377.576ZM419.855 277.412V326.991H350.686V277.412H419.855ZM419.855 226.821V276.412H350.686V226.821H419.855ZM419.855 176.236V225.821H350.686V176.236H419.855ZM419.855 125.651V175.236H350.686V125.651L419.855 125.651ZM419.855 75.0593V124.651L350.686 124.651V75.0593L419.855 75.0593ZM1189.4 429.167V478.752H1120.23V429.167H1189.4ZM1189.4 378.576V428.167H1120.23V378.576H1189.4ZM1189.4 327.991V377.576H1120.23V327.991H1189.4ZM1189.4 277.412V326.991H1120.23V277.412H1189.4ZM1189.4 226.821V276.412H1120.23V226.821H1189.4ZM1189.4 176.236V225.821H1120.23V176.236H1189.4ZM1189.4 125.651V175.236H1120.23V125.651H1189.4ZM1189.4 75.0594V124.651H1120.23V75.0594H1189.4ZM419.855 429.167V478.752H350.686V429.167H419.855ZM419.855 428.167H350.686V378.576H419.855V428.167ZM349.686 377.576H280.523V327.991H349.686V377.576ZM349.686 277.412V326.991H280.523V277.412H349.686ZM349.686 226.821V276.412H280.523V226.821H349.686ZM349.686 176.236V225.821H280.523V176.236H349.686ZM349.686 125.651V175.236H280.523V125.651L349.686 125.651ZM349.686 75.0593V124.651L280.523 124.651V75.0593L349.686 75.0593ZM1119.23 429.167V478.752H1050.06V429.167H1119.23ZM1119.23 378.576V428.167H1050.06V378.576H1119.23ZM1119.23 327.991V377.576H1050.06V327.991H1119.23ZM1119.23 277.412V326.991H1050.06V277.412H1119.23ZM1119.23 226.821V276.412H1050.06V226.821H1119.23ZM1119.23 176.236V225.821H1050.06V176.236H1119.23ZM1119.23 125.651V175.236H1050.06V125.651L1119.23 125.651ZM1119.23 75.0594V124.651L1050.06 124.651V75.0593L1119.23 75.0594ZM349.686 429.167V478.752H280.523V429.167H349.686ZM349.686 428.167H280.523V378.576H349.686V428.167ZM279.523 377.576H210.36V327.991H279.523V377.576ZM279.523 277.412V326.991H210.36V277.412H279.523ZM279.523 226.821V276.412H210.36V226.821H279.523ZM279.523 176.236V225.821H210.36V176.236H279.523ZM279.523 125.651V175.236H210.36L210.36 125.651L279.523 125.651ZM1049.06 479.752V529.344H979.9V479.752H1049.06ZM1049.06 429.167V478.752H979.9V429.167H1049.06ZM1049.06 378.576V428.167H979.9V378.576H1049.06ZM1049.06 327.991V377.576H979.9V327.991H1049.06ZM1049.06 277.412V326.991H979.9V277.412H1049.06ZM1049.06 226.821V276.412H979.9V226.821H1049.06ZM1049.06 176.236V225.821H979.9V176.236H1049.06ZM1049.06 125.651V175.236H979.9V125.651L1049.06 125.651ZM1049.06 75.0593V124.651L979.9 124.651V75.0593L1049.06 75.0593ZM1049.06 24.481V74.0593L979.9 74.0593V24.481L1049.06 24.481ZM279.523 428.167H210.36L210.36 378.576H279.523V428.167ZM209.36 377.576H141.326V327.991H209.36V377.576ZM209.36 277.412V326.991H141.326V277.412H209.36ZM209.36 226.821V276.412H141.326V226.821H209.36ZM209.36 176.236V225.821H141.326V176.236H209.36ZM209.36 125.651L209.36 175.236H141.326L141.326 125.651L209.36 125.651ZM978.9 479.752V529.344H910.866V479.752H978.9ZM978.9 429.167V478.752H910.866V429.167H978.9ZM978.9 378.576V428.167H910.866V378.576H978.9ZM978.9 327.991V377.576H910.866V327.991H978.9ZM978.9 277.412V326.991H910.866V277.412H978.9ZM978.9 226.821V276.412H910.866V226.821H978.9ZM978.9 176.236V225.821H910.866V176.236H978.9ZM978.9 125.651V175.236H910.866V125.651L978.9 125.651ZM978.9 75.0593V124.651L910.866 124.651V75.0593L978.9 75.0593ZM978.9 24.481V74.0593L910.866 74.0593V24.481L978.9 24.481ZM209.36 428.167H141.326L141.326 378.576H209.36L209.36 428.167ZM140.326 377.576V327.991H71.1629V377.576H140.326ZM909.866 479.752V529.344H840.704V479.752H909.866ZM909.866 429.167V478.752H840.704V429.167H909.866ZM909.866 378.576V428.167H840.704V378.576H909.866ZM909.866 327.991V377.576H840.704V327.991H909.866ZM909.866 277.412V326.991H840.704V277.412H909.866ZM909.866 226.821V276.412H840.704V226.821H909.866ZM909.866 176.236V225.821H840.704V176.236H909.866ZM909.866 125.651V175.236H840.704V125.651L909.866 125.651ZM909.866 75.0593V124.651L840.704 124.651V75.0593L909.866 75.0593ZM909.866 24.481V74.0593L840.704 74.0593V24.481L909.866 24.481ZM71.1629 326.991H140.326V277.412H71.1629V326.991ZM71.1629 276.412H140.326V226.821H71.1629V276.412ZM71.1629 225.821H140.326V176.236H71.1629V225.821ZM839.704 529.344V479.752H770.54V529.344H839.704ZM839.704 478.752V429.167H770.54V478.752H839.704ZM839.704 428.167V378.576H770.54V428.167H839.704ZM839.704 377.576V327.991H770.54V377.576H839.704ZM839.704 326.991V277.412H770.54V326.991H839.704ZM839.704 276.412V226.821H770.54V276.412H839.704ZM839.704 225.821V176.236H770.54V225.821H839.704ZM839.704 175.236V125.651L770.54 125.651V175.236H839.704ZM839.704 124.651V75.0593L770.54 75.0593V124.651L839.704 124.651ZM839.704 74.0593V24.481L770.54 24.481V74.0593L839.704 74.0593Z" fill="white" fill-opacity="0.41"/>
</svg>
